M48
;DRILL file {KiCad 4.0.2-stable} date 29.01.2017 16:35:51
;FORMAT={-:-/ absolute / inch / decimal}
FMAT,2
INCH,TZ
T1C0.016
T2C0.032
%
G90
G05
M72
T1
X5.45Y-4.29
X5.45Y-4.39
X5.54Y-4.08
X5.56Y-4.25
X5.58Y-4.02
X5.6Y-4.15
X5.6Y-4.22
X5.62Y-4.29
X5.64Y-2.38
X5.65Y-2.9
X5.73Y-3.5
X5.76Y-3.63
X5.78Y-4.55
X5.82Y-2.38
X5.84Y-3.53
X5.86Y-4.49
X5.89Y-1.5
X5.89Y-4.46
X5.92Y-2.09
X5.92Y-2.45
X5.92Y-4.24
X5.95Y-4.26
X6.02Y-2.97
X6.04Y-1.8
X6.11Y-4.25
X6.14Y-4.64
X6.17Y-4.28
X6.25Y-4.33
T2
X5.4331Y-1.1811
X5.7965Y-4.9213
X5.8965Y-4.9213
T0
M30
