G04 #@! TF.FileFunction,Legend,Bot*
%FSLAX46Y46*%
G04 Gerber Fmt 4.6, Leading zero omitted, Abs format (unit mm)*
G04 Created by KiCad (PCBNEW 4.0.2-stable) date 15.03.2017 10:40:45*
%MOMM*%
G01*
G04 APERTURE LIST*
%ADD10C,0.100000*%
%ADD11C,0.150000*%
%ADD12C,0.254000*%
%ADD13C,0.120000*%
G04 APERTURE END LIST*
D10*
D11*
X166000000Y-128000000D02*
X166000000Y-30000000D01*
X131000000Y-30000000D02*
X131000000Y-128000000D01*
X131000000Y-30000000D02*
X166000000Y-30000000D01*
X134000000Y-128000000D02*
X131000000Y-128000000D01*
X166000000Y-128000000D02*
X163000000Y-128000000D01*
X134000000Y-130000000D02*
X134000000Y-128000000D01*
X163000000Y-130000000D02*
X134000000Y-130000000D01*
X163000000Y-128000000D02*
X163000000Y-130000000D01*
X161218381Y-39568381D02*
X161551715Y-39092190D01*
X161789810Y-39568381D02*
X161789810Y-38568381D01*
X161408857Y-38568381D01*
X161313619Y-38616000D01*
X161266000Y-38663619D01*
X161218381Y-38758857D01*
X161218381Y-38901714D01*
X161266000Y-38996952D01*
X161313619Y-39044571D01*
X161408857Y-39092190D01*
X161789810Y-39092190D01*
X160789810Y-39044571D02*
X160456476Y-39044571D01*
X160313619Y-39568381D02*
X160789810Y-39568381D01*
X160789810Y-38568381D01*
X160313619Y-38568381D01*
X159932667Y-39520762D02*
X159789810Y-39568381D01*
X159551714Y-39568381D01*
X159456476Y-39520762D01*
X159408857Y-39473143D01*
X159361238Y-39377905D01*
X159361238Y-39282667D01*
X159408857Y-39187429D01*
X159456476Y-39139810D01*
X159551714Y-39092190D01*
X159742191Y-39044571D01*
X159837429Y-38996952D01*
X159885048Y-38949333D01*
X159932667Y-38854095D01*
X159932667Y-38758857D01*
X159885048Y-38663619D01*
X159837429Y-38616000D01*
X159742191Y-38568381D01*
X159504095Y-38568381D01*
X159361238Y-38616000D01*
X158932667Y-39044571D02*
X158599333Y-39044571D01*
X158456476Y-39568381D02*
X158932667Y-39568381D01*
X158932667Y-38568381D01*
X158456476Y-38568381D01*
X158170762Y-38568381D02*
X157599333Y-38568381D01*
X157885048Y-39568381D02*
X157885048Y-38568381D01*
X161845428Y-42108381D02*
X161845428Y-41108381D01*
X161512094Y-41822667D01*
X161178761Y-41108381D01*
X161178761Y-42108381D01*
X160702571Y-42108381D02*
X160702571Y-41108381D01*
X160274000Y-42060762D02*
X160131143Y-42108381D01*
X159893047Y-42108381D01*
X159797809Y-42060762D01*
X159750190Y-42013143D01*
X159702571Y-41917905D01*
X159702571Y-41822667D01*
X159750190Y-41727429D01*
X159797809Y-41679810D01*
X159893047Y-41632190D01*
X160083524Y-41584571D01*
X160178762Y-41536952D01*
X160226381Y-41489333D01*
X160274000Y-41394095D01*
X160274000Y-41298857D01*
X160226381Y-41203619D01*
X160178762Y-41156000D01*
X160083524Y-41108381D01*
X159845428Y-41108381D01*
X159702571Y-41156000D01*
X159083524Y-41108381D02*
X158893047Y-41108381D01*
X158797809Y-41156000D01*
X158702571Y-41251238D01*
X158654952Y-41441714D01*
X158654952Y-41775048D01*
X158702571Y-41965524D01*
X158797809Y-42060762D01*
X158893047Y-42108381D01*
X159083524Y-42108381D01*
X159178762Y-42060762D01*
X159274000Y-41965524D01*
X159321619Y-41775048D01*
X159321619Y-41441714D01*
X159274000Y-41251238D01*
X159178762Y-41156000D01*
X159083524Y-41108381D01*
X161813714Y-44854762D02*
X161670857Y-44902381D01*
X161432761Y-44902381D01*
X161337523Y-44854762D01*
X161289904Y-44807143D01*
X161242285Y-44711905D01*
X161242285Y-44616667D01*
X161289904Y-44521429D01*
X161337523Y-44473810D01*
X161432761Y-44426190D01*
X161623238Y-44378571D01*
X161718476Y-44330952D01*
X161766095Y-44283333D01*
X161813714Y-44188095D01*
X161813714Y-44092857D01*
X161766095Y-43997619D01*
X161718476Y-43950000D01*
X161623238Y-43902381D01*
X161385142Y-43902381D01*
X161242285Y-43950000D01*
X160242285Y-44807143D02*
X160289904Y-44854762D01*
X160432761Y-44902381D01*
X160527999Y-44902381D01*
X160670857Y-44854762D01*
X160766095Y-44759524D01*
X160813714Y-44664286D01*
X160861333Y-44473810D01*
X160861333Y-44330952D01*
X160813714Y-44140476D01*
X160766095Y-44045238D01*
X160670857Y-43950000D01*
X160527999Y-43902381D01*
X160432761Y-43902381D01*
X160289904Y-43950000D01*
X160242285Y-43997619D01*
X159813714Y-44902381D02*
X159813714Y-43902381D01*
X159242285Y-44902381D02*
X159670857Y-44330952D01*
X159242285Y-43902381D02*
X159813714Y-44473810D01*
X161845428Y-47188381D02*
X161845428Y-46188381D01*
X161512094Y-46902667D01*
X161178761Y-46188381D01*
X161178761Y-47188381D01*
X160512095Y-46188381D02*
X160321618Y-46188381D01*
X160226380Y-46236000D01*
X160131142Y-46331238D01*
X160083523Y-46521714D01*
X160083523Y-46855048D01*
X160131142Y-47045524D01*
X160226380Y-47140762D01*
X160321618Y-47188381D01*
X160512095Y-47188381D01*
X160607333Y-47140762D01*
X160702571Y-47045524D01*
X160750190Y-46855048D01*
X160750190Y-46521714D01*
X160702571Y-46331238D01*
X160607333Y-46236000D01*
X160512095Y-46188381D01*
X159702571Y-47140762D02*
X159559714Y-47188381D01*
X159321618Y-47188381D01*
X159226380Y-47140762D01*
X159178761Y-47093143D01*
X159131142Y-46997905D01*
X159131142Y-46902667D01*
X159178761Y-46807429D01*
X159226380Y-46759810D01*
X159321618Y-46712190D01*
X159512095Y-46664571D01*
X159607333Y-46616952D01*
X159654952Y-46569333D01*
X159702571Y-46474095D01*
X159702571Y-46378857D01*
X159654952Y-46283619D01*
X159607333Y-46236000D01*
X159512095Y-46188381D01*
X159273999Y-46188381D01*
X159131142Y-46236000D01*
X158702571Y-47188381D02*
X158702571Y-46188381D01*
X162043905Y-48982381D02*
X161472476Y-48982381D01*
X161758191Y-49982381D02*
X161758191Y-48982381D01*
X161234381Y-48982381D02*
X160567714Y-49982381D01*
X160567714Y-48982381D02*
X161234381Y-49982381D01*
X160186762Y-49982381D02*
X160186762Y-48982381D01*
X159948667Y-48982381D01*
X159805809Y-49030000D01*
X159710571Y-49125238D01*
X159662952Y-49220476D01*
X159615333Y-49410952D01*
X159615333Y-49553810D01*
X159662952Y-49744286D01*
X159710571Y-49839524D01*
X159805809Y-49934762D01*
X159948667Y-49982381D01*
X160186762Y-49982381D01*
X161448666Y-52268381D02*
X161782000Y-51792190D01*
X162020095Y-52268381D02*
X162020095Y-51268381D01*
X161639142Y-51268381D01*
X161543904Y-51316000D01*
X161496285Y-51363619D01*
X161448666Y-51458857D01*
X161448666Y-51601714D01*
X161496285Y-51696952D01*
X161543904Y-51744571D01*
X161639142Y-51792190D01*
X162020095Y-51792190D01*
X161115333Y-51268381D02*
X160448666Y-52268381D01*
X160448666Y-51268381D02*
X161115333Y-52268381D01*
X160067714Y-52268381D02*
X160067714Y-51268381D01*
X159829619Y-51268381D01*
X159686761Y-51316000D01*
X159591523Y-51411238D01*
X159543904Y-51506476D01*
X159496285Y-51696952D01*
X159496285Y-51839810D01*
X159543904Y-52030286D01*
X159591523Y-52125524D01*
X159686761Y-52220762D01*
X159829619Y-52268381D01*
X160067714Y-52268381D01*
X161543904Y-54110000D02*
X161639142Y-54062381D01*
X161781999Y-54062381D01*
X161924857Y-54110000D01*
X162020095Y-54205238D01*
X162067714Y-54300476D01*
X162115333Y-54490952D01*
X162115333Y-54633810D01*
X162067714Y-54824286D01*
X162020095Y-54919524D01*
X161924857Y-55014762D01*
X161781999Y-55062381D01*
X161686761Y-55062381D01*
X161543904Y-55014762D01*
X161496285Y-54967143D01*
X161496285Y-54633810D01*
X161686761Y-54633810D01*
X161067714Y-55062381D02*
X161067714Y-54062381D01*
X160496285Y-55062381D01*
X160496285Y-54062381D01*
X160020095Y-55062381D02*
X160020095Y-54062381D01*
X159782000Y-54062381D01*
X159639142Y-54110000D01*
X159543904Y-54205238D01*
X159496285Y-54300476D01*
X159448666Y-54490952D01*
X159448666Y-54633810D01*
X159496285Y-54824286D01*
X159543904Y-54919524D01*
X159639142Y-55014762D01*
X159782000Y-55062381D01*
X160020095Y-55062381D01*
X162115333Y-56348381D02*
X161782000Y-57348381D01*
X161448666Y-56348381D01*
X160543904Y-57253143D02*
X160591523Y-57300762D01*
X160734380Y-57348381D01*
X160829618Y-57348381D01*
X160972476Y-57300762D01*
X161067714Y-57205524D01*
X161115333Y-57110286D01*
X161162952Y-56919810D01*
X161162952Y-56776952D01*
X161115333Y-56586476D01*
X161067714Y-56491238D01*
X160972476Y-56396000D01*
X160829618Y-56348381D01*
X160734380Y-56348381D01*
X160591523Y-56396000D01*
X160543904Y-56443619D01*
X159543904Y-57253143D02*
X159591523Y-57300762D01*
X159734380Y-57348381D01*
X159829618Y-57348381D01*
X159972476Y-57300762D01*
X160067714Y-57205524D01*
X160115333Y-57110286D01*
X160162952Y-56919810D01*
X160162952Y-56776952D01*
X160115333Y-56586476D01*
X160067714Y-56491238D01*
X159972476Y-56396000D01*
X159829618Y-56348381D01*
X159734380Y-56348381D01*
X159591523Y-56396000D01*
X159543904Y-56443619D01*
D12*
X165538000Y-37552000D02*
X165538000Y-57952000D01*
X163138000Y-57952000D02*
X163138000Y-37552000D01*
X165538000Y-57952000D02*
X163138000Y-57952000D01*
X163138000Y-55352000D02*
X165538000Y-55352000D01*
X165538000Y-37552000D02*
X163138000Y-37552000D01*
D11*
X144875000Y-109625000D02*
X144875000Y-109400000D01*
X152125000Y-109625000D02*
X152125000Y-109300000D01*
X152125000Y-102375000D02*
X152125000Y-102700000D01*
X144875000Y-102375000D02*
X144875000Y-102700000D01*
X144875000Y-109625000D02*
X145200000Y-109625000D01*
X144875000Y-102375000D02*
X145200000Y-102375000D01*
X152125000Y-102375000D02*
X151800000Y-102375000D01*
X152125000Y-109625000D02*
X151800000Y-109625000D01*
X144875000Y-109400000D02*
X143450000Y-109400000D01*
D13*
X138946000Y-104306000D02*
X139946000Y-104306000D01*
X139946000Y-106006000D02*
X138946000Y-106006000D01*
X154000000Y-55150000D02*
X155000000Y-55150000D01*
X155000000Y-56850000D02*
X154000000Y-56850000D01*
X156964000Y-104990000D02*
X155964000Y-104990000D01*
X155964000Y-103290000D02*
X156964000Y-103290000D01*
D11*
X149190000Y-115203000D02*
X147990000Y-115203000D01*
X147990000Y-116953000D02*
X149190000Y-116953000D01*
X156500000Y-52500000D02*
X140500000Y-52500000D01*
X140500000Y-52500000D02*
X140500000Y-33500000D01*
X140500000Y-33500000D02*
X156500000Y-33500000D01*
X156500000Y-33500000D02*
X156500000Y-52500000D01*
D13*
X154677000Y-122412000D02*
X154677000Y-120412000D01*
X156727000Y-120412000D02*
X156727000Y-122412000D01*
X136160000Y-117847000D02*
X138160000Y-117847000D01*
X138160000Y-119897000D02*
X136160000Y-119897000D01*
X137422000Y-115482000D02*
X138422000Y-115482000D01*
X138422000Y-117182000D02*
X137422000Y-117182000D01*
D11*
X143635421Y-121304000D02*
G75*
G03X143635421Y-121304000I-141421J0D01*
G01*
X140994000Y-121704000D02*
X140994000Y-120104000D01*
X140994000Y-120104000D02*
X143994000Y-120104000D01*
X143994000Y-120104000D02*
X143994000Y-121704000D01*
X143994000Y-121704000D02*
X140994000Y-121704000D01*
D13*
X141478000Y-126366000D02*
X138938000Y-126366000D01*
X138938000Y-124586000D02*
X141478000Y-124586000D01*
X138938000Y-124586000D02*
X138938000Y-126366000D01*
X141478000Y-126366000D02*
X141478000Y-124586000D01*
D11*
X149820190Y-108656381D02*
X149820190Y-107656381D01*
X148772571Y-108561143D02*
X148820190Y-108608762D01*
X148963047Y-108656381D01*
X149058285Y-108656381D01*
X149201143Y-108608762D01*
X149296381Y-108513524D01*
X149344000Y-108418286D01*
X149391619Y-108227810D01*
X149391619Y-108084952D01*
X149344000Y-107894476D01*
X149296381Y-107799238D01*
X149201143Y-107704000D01*
X149058285Y-107656381D01*
X148963047Y-107656381D01*
X148820190Y-107704000D01*
X148772571Y-107751619D01*
X147820190Y-108656381D02*
X148391619Y-108656381D01*
X148105905Y-108656381D02*
X148105905Y-107656381D01*
X148201143Y-107799238D01*
X148296381Y-107894476D01*
X148391619Y-107942095D01*
X154047619Y-100116667D02*
X153571428Y-100116667D01*
X154142857Y-100402381D02*
X153809524Y-99402381D01*
X153476190Y-100402381D01*
X153285714Y-99402381D02*
X152714285Y-99402381D01*
X153000000Y-100402381D02*
X153000000Y-99402381D01*
X152380952Y-100402381D02*
X152380952Y-99402381D01*
X152047618Y-100116667D01*
X151714285Y-99402381D01*
X151714285Y-100402381D01*
X151238095Y-99878571D02*
X150904761Y-99878571D01*
X150761904Y-100402381D02*
X151238095Y-100402381D01*
X151238095Y-99402381D01*
X150761904Y-99402381D01*
X149809523Y-99450000D02*
X149904761Y-99402381D01*
X150047618Y-99402381D01*
X150190476Y-99450000D01*
X150285714Y-99545238D01*
X150333333Y-99640476D01*
X150380952Y-99830952D01*
X150380952Y-99973810D01*
X150333333Y-100164286D01*
X150285714Y-100259524D01*
X150190476Y-100354762D01*
X150047618Y-100402381D01*
X149952380Y-100402381D01*
X149809523Y-100354762D01*
X149761904Y-100307143D01*
X149761904Y-99973810D01*
X149952380Y-99973810D01*
X149380952Y-100116667D02*
X148904761Y-100116667D01*
X149476190Y-100402381D02*
X149142857Y-99402381D01*
X148809523Y-100402381D01*
X148571428Y-99402381D02*
X147952380Y-99402381D01*
X148285714Y-99783333D01*
X148142856Y-99783333D01*
X148047618Y-99830952D01*
X147999999Y-99878571D01*
X147952380Y-99973810D01*
X147952380Y-100211905D01*
X147999999Y-100307143D01*
X148047618Y-100354762D01*
X148142856Y-100402381D01*
X148428571Y-100402381D01*
X148523809Y-100354762D01*
X148571428Y-100307143D01*
X147571428Y-99497619D02*
X147523809Y-99450000D01*
X147428571Y-99402381D01*
X147190475Y-99402381D01*
X147095237Y-99450000D01*
X147047618Y-99497619D01*
X146999999Y-99592857D01*
X146999999Y-99688095D01*
X147047618Y-99830952D01*
X147619047Y-100402381D01*
X146999999Y-100402381D01*
X146428571Y-99830952D02*
X146523809Y-99783333D01*
X146571428Y-99735714D01*
X146619047Y-99640476D01*
X146619047Y-99592857D01*
X146571428Y-99497619D01*
X146523809Y-99450000D01*
X146428571Y-99402381D01*
X146238094Y-99402381D01*
X146142856Y-99450000D01*
X146095237Y-99497619D01*
X146047618Y-99592857D01*
X146047618Y-99640476D01*
X146095237Y-99735714D01*
X146142856Y-99783333D01*
X146238094Y-99830952D01*
X146428571Y-99830952D01*
X146523809Y-99878571D01*
X146571428Y-99926190D01*
X146619047Y-100021429D01*
X146619047Y-100211905D01*
X146571428Y-100307143D01*
X146523809Y-100354762D01*
X146428571Y-100402381D01*
X146238094Y-100402381D01*
X146142856Y-100354762D01*
X146095237Y-100307143D01*
X146047618Y-100211905D01*
X146047618Y-100021429D01*
X146095237Y-99926190D01*
X146142856Y-99878571D01*
X146238094Y-99830952D01*
X145619047Y-100402381D02*
X145619047Y-99402381D01*
X145238094Y-99402381D01*
X145142856Y-99450000D01*
X145095237Y-99497619D01*
X145047618Y-99592857D01*
X145047618Y-99735714D01*
X145095237Y-99830952D01*
X145142856Y-99878571D01*
X145238094Y-99926190D01*
X145619047Y-99926190D01*
X144619047Y-100021429D02*
X143857142Y-100021429D01*
X143428571Y-100116667D02*
X142952380Y-100116667D01*
X143523809Y-100402381D02*
X143190476Y-99402381D01*
X142857142Y-100402381D01*
X139612666Y-103413143D02*
X139660285Y-103460762D01*
X139803142Y-103508381D01*
X139898380Y-103508381D01*
X140041238Y-103460762D01*
X140136476Y-103365524D01*
X140184095Y-103270286D01*
X140231714Y-103079810D01*
X140231714Y-102936952D01*
X140184095Y-102746476D01*
X140136476Y-102651238D01*
X140041238Y-102556000D01*
X139898380Y-102508381D01*
X139803142Y-102508381D01*
X139660285Y-102556000D01*
X139612666Y-102603619D01*
X138660285Y-103508381D02*
X139231714Y-103508381D01*
X138946000Y-103508381D02*
X138946000Y-102508381D01*
X139041238Y-102651238D01*
X139136476Y-102746476D01*
X139231714Y-102794095D01*
X154598666Y-58269143D02*
X154646285Y-58316762D01*
X154789142Y-58364381D01*
X154884380Y-58364381D01*
X155027238Y-58316762D01*
X155122476Y-58221524D01*
X155170095Y-58126286D01*
X155217714Y-57935810D01*
X155217714Y-57792952D01*
X155170095Y-57602476D01*
X155122476Y-57507238D01*
X155027238Y-57412000D01*
X154884380Y-57364381D01*
X154789142Y-57364381D01*
X154646285Y-57412000D01*
X154598666Y-57459619D01*
X154217714Y-57459619D02*
X154170095Y-57412000D01*
X154074857Y-57364381D01*
X153836761Y-57364381D01*
X153741523Y-57412000D01*
X153693904Y-57459619D01*
X153646285Y-57554857D01*
X153646285Y-57650095D01*
X153693904Y-57792952D01*
X154265333Y-58364381D01*
X153646285Y-58364381D01*
X156630666Y-106597143D02*
X156678285Y-106644762D01*
X156821142Y-106692381D01*
X156916380Y-106692381D01*
X157059238Y-106644762D01*
X157154476Y-106549524D01*
X157202095Y-106454286D01*
X157249714Y-106263810D01*
X157249714Y-106120952D01*
X157202095Y-105930476D01*
X157154476Y-105835238D01*
X157059238Y-105740000D01*
X156916380Y-105692381D01*
X156821142Y-105692381D01*
X156678285Y-105740000D01*
X156630666Y-105787619D01*
X156297333Y-105692381D02*
X155678285Y-105692381D01*
X156011619Y-106073333D01*
X155868761Y-106073333D01*
X155773523Y-106120952D01*
X155725904Y-106168571D01*
X155678285Y-106263810D01*
X155678285Y-106501905D01*
X155725904Y-106597143D01*
X155773523Y-106644762D01*
X155868761Y-106692381D01*
X156154476Y-106692381D01*
X156249714Y-106644762D01*
X156297333Y-106597143D01*
X148756666Y-118630381D02*
X149090000Y-118154190D01*
X149328095Y-118630381D02*
X149328095Y-117630381D01*
X148947142Y-117630381D01*
X148851904Y-117678000D01*
X148804285Y-117725619D01*
X148756666Y-117820857D01*
X148756666Y-117963714D01*
X148804285Y-118058952D01*
X148851904Y-118106571D01*
X148947142Y-118154190D01*
X149328095Y-118154190D01*
X147804285Y-118630381D02*
X148375714Y-118630381D01*
X148090000Y-118630381D02*
X148090000Y-117630381D01*
X148185238Y-117773238D01*
X148280476Y-117868476D01*
X148375714Y-117916095D01*
X149476190Y-45952381D02*
X149476190Y-44952381D01*
X148428571Y-45857143D02*
X148476190Y-45904762D01*
X148619047Y-45952381D01*
X148714285Y-45952381D01*
X148857143Y-45904762D01*
X148952381Y-45809524D01*
X149000000Y-45714286D01*
X149047619Y-45523810D01*
X149047619Y-45380952D01*
X149000000Y-45190476D01*
X148952381Y-45095238D01*
X148857143Y-45000000D01*
X148714285Y-44952381D01*
X148619047Y-44952381D01*
X148476190Y-45000000D01*
X148428571Y-45047619D01*
X148047619Y-45047619D02*
X148000000Y-45000000D01*
X147904762Y-44952381D01*
X147666666Y-44952381D01*
X147571428Y-45000000D01*
X147523809Y-45047619D01*
X147476190Y-45142857D01*
X147476190Y-45238095D01*
X147523809Y-45380952D01*
X148095238Y-45952381D01*
X147476190Y-45952381D01*
X150595238Y-39857143D02*
X150642857Y-39904762D01*
X150785714Y-39952381D01*
X150880952Y-39952381D01*
X151023810Y-39904762D01*
X151119048Y-39809524D01*
X151166667Y-39714286D01*
X151214286Y-39523810D01*
X151214286Y-39380952D01*
X151166667Y-39190476D01*
X151119048Y-39095238D01*
X151023810Y-39000000D01*
X150880952Y-38952381D01*
X150785714Y-38952381D01*
X150642857Y-39000000D01*
X150595238Y-39047619D01*
X149595238Y-39857143D02*
X149642857Y-39904762D01*
X149785714Y-39952381D01*
X149880952Y-39952381D01*
X150023810Y-39904762D01*
X150119048Y-39809524D01*
X150166667Y-39714286D01*
X150214286Y-39523810D01*
X150214286Y-39380952D01*
X150166667Y-39190476D01*
X150119048Y-39095238D01*
X150023810Y-39000000D01*
X149880952Y-38952381D01*
X149785714Y-38952381D01*
X149642857Y-39000000D01*
X149595238Y-39047619D01*
X148642857Y-39952381D02*
X149214286Y-39952381D01*
X148928572Y-39952381D02*
X148928572Y-38952381D01*
X149023810Y-39095238D01*
X149119048Y-39190476D01*
X149214286Y-39238095D01*
X147690476Y-39952381D02*
X148261905Y-39952381D01*
X147976191Y-39952381D02*
X147976191Y-38952381D01*
X148071429Y-39095238D01*
X148166667Y-39190476D01*
X148261905Y-39238095D01*
X147071429Y-38952381D02*
X146976190Y-38952381D01*
X146880952Y-39000000D01*
X146833333Y-39047619D01*
X146785714Y-39142857D01*
X146738095Y-39333333D01*
X146738095Y-39571429D01*
X146785714Y-39761905D01*
X146833333Y-39857143D01*
X146880952Y-39904762D01*
X146976190Y-39952381D01*
X147071429Y-39952381D01*
X147166667Y-39904762D01*
X147214286Y-39857143D01*
X147261905Y-39761905D01*
X147309524Y-39571429D01*
X147309524Y-39333333D01*
X147261905Y-39142857D01*
X147214286Y-39047619D01*
X147166667Y-39000000D01*
X147071429Y-38952381D01*
X145785714Y-39952381D02*
X146357143Y-39952381D01*
X146071429Y-39952381D02*
X146071429Y-38952381D01*
X146166667Y-39095238D01*
X146261905Y-39190476D01*
X146357143Y-39238095D01*
X153759143Y-121245334D02*
X153806762Y-121197715D01*
X153854381Y-121054858D01*
X153854381Y-120959620D01*
X153806762Y-120816762D01*
X153711524Y-120721524D01*
X153616286Y-120673905D01*
X153425810Y-120626286D01*
X153282952Y-120626286D01*
X153092476Y-120673905D01*
X152997238Y-120721524D01*
X152902000Y-120816762D01*
X152854381Y-120959620D01*
X152854381Y-121054858D01*
X152902000Y-121197715D01*
X152949619Y-121245334D01*
X153187714Y-122102477D02*
X153854381Y-122102477D01*
X152806762Y-121864381D02*
X153521048Y-121626286D01*
X153521048Y-122245334D01*
X133008666Y-119229143D02*
X133056285Y-119276762D01*
X133199142Y-119324381D01*
X133294380Y-119324381D01*
X133437238Y-119276762D01*
X133532476Y-119181524D01*
X133580095Y-119086286D01*
X133627714Y-118895810D01*
X133627714Y-118752952D01*
X133580095Y-118562476D01*
X133532476Y-118467238D01*
X133437238Y-118372000D01*
X133294380Y-118324381D01*
X133199142Y-118324381D01*
X133056285Y-118372000D01*
X133008666Y-118419619D01*
X132103904Y-118324381D02*
X132580095Y-118324381D01*
X132627714Y-118800571D01*
X132580095Y-118752952D01*
X132484857Y-118705333D01*
X132246761Y-118705333D01*
X132151523Y-118752952D01*
X132103904Y-118800571D01*
X132056285Y-118895810D01*
X132056285Y-119133905D01*
X132103904Y-119229143D01*
X132151523Y-119276762D01*
X132246761Y-119324381D01*
X132484857Y-119324381D01*
X132580095Y-119276762D01*
X132627714Y-119229143D01*
X134532666Y-116689143D02*
X134580285Y-116736762D01*
X134723142Y-116784381D01*
X134818380Y-116784381D01*
X134961238Y-116736762D01*
X135056476Y-116641524D01*
X135104095Y-116546286D01*
X135151714Y-116355810D01*
X135151714Y-116212952D01*
X135104095Y-116022476D01*
X135056476Y-115927238D01*
X134961238Y-115832000D01*
X134818380Y-115784381D01*
X134723142Y-115784381D01*
X134580285Y-115832000D01*
X134532666Y-115879619D01*
X133675523Y-115784381D02*
X133866000Y-115784381D01*
X133961238Y-115832000D01*
X134008857Y-115879619D01*
X134104095Y-116022476D01*
X134151714Y-116212952D01*
X134151714Y-116593905D01*
X134104095Y-116689143D01*
X134056476Y-116736762D01*
X133961238Y-116784381D01*
X133770761Y-116784381D01*
X133675523Y-116736762D01*
X133627904Y-116689143D01*
X133580285Y-116593905D01*
X133580285Y-116355810D01*
X133627904Y-116260571D01*
X133675523Y-116212952D01*
X133770761Y-116165333D01*
X133961238Y-116165333D01*
X134056476Y-116212952D01*
X134104095Y-116260571D01*
X134151714Y-116355810D01*
X145446381Y-119927810D02*
X144446381Y-119927810D01*
X145351143Y-120975429D02*
X145398762Y-120927810D01*
X145446381Y-120784953D01*
X145446381Y-120689715D01*
X145398762Y-120546857D01*
X145303524Y-120451619D01*
X145208286Y-120404000D01*
X145017810Y-120356381D01*
X144874952Y-120356381D01*
X144684476Y-120404000D01*
X144589238Y-120451619D01*
X144494000Y-120546857D01*
X144446381Y-120689715D01*
X144446381Y-120784953D01*
X144494000Y-120927810D01*
X144541619Y-120975429D01*
X144446381Y-121308762D02*
X144446381Y-121927810D01*
X144827333Y-121594476D01*
X144827333Y-121737334D01*
X144874952Y-121832572D01*
X144922571Y-121880191D01*
X145017810Y-121927810D01*
X145255905Y-121927810D01*
X145351143Y-121880191D01*
X145398762Y-121832572D01*
X145446381Y-121737334D01*
X145446381Y-121451619D01*
X145398762Y-121356381D01*
X145351143Y-121308762D01*
X141041333Y-123148381D02*
X141041333Y-123862667D01*
X141088953Y-124005524D01*
X141184191Y-124100762D01*
X141327048Y-124148381D01*
X141422286Y-124148381D01*
X140565143Y-124148381D02*
X140565143Y-123148381D01*
X140184190Y-123148381D01*
X140088952Y-123196000D01*
X140041333Y-123243619D01*
X139993714Y-123338857D01*
X139993714Y-123481714D01*
X140041333Y-123576952D01*
X140088952Y-123624571D01*
X140184190Y-123672190D01*
X140565143Y-123672190D01*
X139041333Y-124148381D02*
X139612762Y-124148381D01*
X139327048Y-124148381D02*
X139327048Y-123148381D01*
X139422286Y-123291238D01*
X139517524Y-123386476D01*
X139612762Y-123434095D01*
M02*
