M48
;DRILL file {KiCad 4.0.2-stable} date 15.03.2017 10:40:46
;FORMAT={-:-/ absolute / inch / decimal}
FMAT,2
INCH,TZ
T1C0.016
T2C0.032
T3C0.197
%
G90
G05
M72
T1
X5.29Y-2.275
X5.52Y-4.19
X5.52Y-4.47
X5.55Y-4.25
X5.73Y-1.41
X5.75Y-4.7
X5.7675Y-3.8825
X5.77Y-4.28
X5.7975Y-3.855
X5.8Y-4.4075
X5.83Y-4.0625
X5.86Y-2.45
X5.86Y-3.2975
X5.8625Y-4.4075
X5.895Y-4.4075
X5.925Y-2.18
X5.925Y-2.45
X5.925Y-4.2525
X5.955Y-4.235
X5.97Y-4.7
X5.98Y-4.66
X6.035Y-2.305
X6.16Y-4.285
X6.19Y-4.25
X6.22Y-4.22
T2
X5.47Y-1.28
X5.8161Y-5.
X5.9161Y-5.
X6.4676Y-1.53
X6.4676Y-1.73
X6.4676Y-1.93
X6.4676Y-2.13
X6.4724Y-1.63
X6.4724Y-1.83
X6.4724Y-2.03
X6.4724Y-2.23
T3
X5.315Y-1.3386
X5.315Y-4.8819
X6.378Y-1.3386
X6.378Y-4.8819
T0
M30
