G04 #@! TF.FileFunction,Copper,L2,Bot,Signal*
%FSLAX46Y46*%
G04 Gerber Fmt 4.6, Leading zero omitted, Abs format (unit mm)*
G04 Created by KiCad (PCBNEW 4.0.2-stable) date 15.03.2017 10:40:45*
%MOMM*%
G01*
G04 APERTURE LIST*
%ADD10C,0.100000*%
%ADD11C,0.150000*%
%ADD12C,1.397000*%
%ADD13R,1.397000X1.397000*%
%ADD14R,1.600000X0.550000*%
%ADD15R,0.550000X1.600000*%
%ADD16R,1.500000X1.250000*%
%ADD17R,1.500000X1.300000*%
%ADD18C,1.600000*%
%ADD19R,1.600000X1.600000*%
%ADD20R,1.200000X2.524000*%
%ADD21R,1.600000X2.000000*%
%ADD22R,2.000000X1.600000*%
%ADD23R,0.600000X0.900000*%
%ADD24R,0.970000X1.270000*%
%ADD25C,0.600000*%
%ADD26C,0.400000*%
%ADD27C,0.250000*%
%ADD28C,0.600000*%
%ADD29C,0.254000*%
G04 APERTURE END LIST*
D10*
D11*
X166000000Y-128000000D02*
X166000000Y-30000000D01*
X131000000Y-30000000D02*
X131000000Y-128000000D01*
X131000000Y-30000000D02*
X166000000Y-30000000D01*
X134000000Y-128000000D02*
X131000000Y-128000000D01*
X166000000Y-128000000D02*
X163000000Y-128000000D01*
X134000000Y-130000000D02*
X134000000Y-128000000D01*
X163000000Y-130000000D02*
X134000000Y-130000000D01*
X163000000Y-128000000D02*
X163000000Y-130000000D01*
D12*
X164277040Y-49022000D03*
X164398960Y-46482000D03*
X164398960Y-51562000D03*
X164277040Y-43942000D03*
X164277040Y-54102000D03*
X164398960Y-41402000D03*
D13*
X164398960Y-56642000D03*
D12*
X164277040Y-38862000D03*
D14*
X144250000Y-108800000D03*
X144250000Y-108000000D03*
X144250000Y-107200000D03*
X144250000Y-106400000D03*
X144250000Y-105600000D03*
X144250000Y-104800000D03*
X144250000Y-104000000D03*
X144250000Y-103200000D03*
D15*
X145700000Y-101750000D03*
X146500000Y-101750000D03*
X147300000Y-101750000D03*
X148100000Y-101750000D03*
X148900000Y-101750000D03*
X149700000Y-101750000D03*
X150500000Y-101750000D03*
X151300000Y-101750000D03*
D14*
X152750000Y-103200000D03*
X152750000Y-104000000D03*
X152750000Y-104800000D03*
X152750000Y-105600000D03*
X152750000Y-106400000D03*
X152750000Y-107200000D03*
X152750000Y-108000000D03*
X152750000Y-108800000D03*
D15*
X151300000Y-110250000D03*
X150500000Y-110250000D03*
X149700000Y-110250000D03*
X148900000Y-110250000D03*
X148100000Y-110250000D03*
X147300000Y-110250000D03*
X146500000Y-110250000D03*
X145700000Y-110250000D03*
D16*
X140696000Y-105156000D03*
X138196000Y-105156000D03*
X155750000Y-56000000D03*
X153250000Y-56000000D03*
X155214000Y-104140000D03*
X157714000Y-104140000D03*
D17*
X147240000Y-116078000D03*
X149940000Y-116078000D03*
D18*
X138938000Y-32512000D03*
D19*
X150270000Y-127000000D03*
D18*
X147730000Y-127000000D03*
D20*
X155500000Y-52500000D03*
X153500000Y-52500000D03*
X151500000Y-52500000D03*
X149500000Y-52500000D03*
X147500000Y-52500000D03*
X145500000Y-52500000D03*
X143500000Y-52500000D03*
X141500000Y-52500000D03*
X147500000Y-33500000D03*
X149500000Y-33500000D03*
X145500000Y-33500000D03*
D21*
X155702000Y-119412000D03*
X155702000Y-123412000D03*
D22*
X139160000Y-118872000D03*
X135160000Y-118872000D03*
D16*
X139172000Y-116332000D03*
X136672000Y-116332000D03*
D23*
X141544000Y-119504000D03*
X142494000Y-122304000D03*
X143444000Y-119504000D03*
X141544000Y-122304000D03*
X143444000Y-122304000D03*
D24*
X140848000Y-125476000D03*
X139568000Y-125476000D03*
D25*
X153289000Y-58547000D03*
X145542000Y-35814000D03*
X140208000Y-113538000D03*
X140208000Y-106426000D03*
X150495000Y-55372000D03*
X150495000Y-62230000D03*
X140970000Y-107950000D03*
X157226000Y-107950000D03*
X134366000Y-57785000D03*
X148844000Y-62230000D03*
X149733000Y-111950500D03*
X148907500Y-111950500D03*
X156464000Y-108839000D03*
X147256500Y-97917000D03*
X148844000Y-83756500D03*
X146494500Y-98615500D03*
X151257000Y-107569000D03*
X150495000Y-108013500D03*
X147320000Y-111950500D03*
X146558000Y-108712000D03*
X157988000Y-107188000D03*
X151892000Y-118364000D03*
X151638000Y-119380000D03*
X146050000Y-119380000D03*
X148082000Y-103187500D03*
D26*
X138938000Y-32512000D02*
X139954000Y-31496000D01*
X139954000Y-31496000D02*
X147066000Y-31496000D01*
X147066000Y-31496000D02*
X147590000Y-32020000D01*
X147590000Y-32020000D02*
X147590000Y-33410000D01*
X147590000Y-33410000D02*
X147500000Y-33500000D01*
D27*
X147500000Y-33500000D02*
X147590000Y-32020000D01*
X147066000Y-31496000D02*
X139954000Y-31496000D01*
X147590000Y-32020000D02*
X147066000Y-31496000D01*
D26*
X153250000Y-56000000D02*
X153250000Y-58508000D01*
X153250000Y-58508000D02*
X153289000Y-58547000D01*
X151320500Y-106400000D02*
X147346000Y-106400000D01*
X147346000Y-106400000D02*
X146546000Y-107200000D01*
X152750000Y-106400000D02*
X151320500Y-106400000D01*
X146546000Y-107200000D02*
X144250000Y-107200000D01*
D28*
X145542000Y-35814000D02*
X149098000Y-35814000D01*
X149500000Y-35412000D02*
X149500000Y-33500000D01*
X149098000Y-35814000D02*
X149500000Y-35412000D01*
X145542000Y-35814000D02*
X145542000Y-33542000D01*
D27*
X145542000Y-33542000D02*
X145500000Y-33500000D01*
D26*
X136672000Y-116332000D02*
X135128000Y-116332000D01*
X135160000Y-116364000D02*
X135160000Y-118872000D01*
D27*
X135128000Y-116332000D02*
X135160000Y-116364000D01*
X145542000Y-35766000D02*
X145590000Y-35766000D01*
D28*
X132334000Y-41910000D02*
X132334000Y-50800000D01*
X138478000Y-35766000D02*
X132334000Y-41910000D01*
X145590000Y-35766000D02*
X138478000Y-35766000D01*
D27*
X145542000Y-35814000D02*
X145542000Y-35766000D01*
D26*
X144250000Y-107200000D02*
X138696000Y-107200000D01*
X138696000Y-107200000D02*
X138196000Y-106700000D01*
X138196000Y-106700000D02*
X138196000Y-105156000D01*
X144250000Y-105600000D02*
X142558000Y-105600000D01*
X142558000Y-105600000D02*
X142240000Y-105282000D01*
X142240000Y-105282000D02*
X142240000Y-104394000D01*
X142240000Y-104394000D02*
X141478000Y-103632000D01*
X141478000Y-103632000D02*
X138430000Y-103632000D01*
X138430000Y-103632000D02*
X138196000Y-103866000D01*
X138196000Y-103866000D02*
X138196000Y-105156000D01*
X152750000Y-106400000D02*
X156438000Y-106400000D01*
X157714000Y-105124000D02*
X157714000Y-104140000D01*
X156438000Y-106400000D02*
X157714000Y-105124000D01*
D27*
X158216000Y-104642000D02*
X157714000Y-104140000D01*
X155702000Y-123412000D02*
X154972000Y-123412000D01*
X145500000Y-33500000D02*
X145410000Y-33568000D01*
X145410000Y-33568000D02*
X145622000Y-33356000D01*
X138196000Y-105156000D02*
X138196000Y-105320000D01*
X157714000Y-104140000D02*
X157714000Y-103944000D01*
X149500000Y-33500000D02*
X149410000Y-33356000D01*
X157714000Y-104140000D02*
X157714000Y-104344000D01*
X153416000Y-52416000D02*
X153500000Y-52500000D01*
X153250000Y-56000000D02*
X153250000Y-52750000D01*
X153250000Y-52750000D02*
X153500000Y-52500000D01*
X140696000Y-106426000D02*
X140716000Y-106426000D01*
D26*
X140696000Y-105156000D02*
X140696000Y-106426000D01*
X140716000Y-106426000D02*
X141986000Y-106426000D01*
X140208000Y-106426000D02*
X140716000Y-106426000D01*
X139172000Y-114574000D02*
X140208000Y-113538000D01*
X139172000Y-116332000D02*
X139172000Y-114574000D01*
D27*
X141986000Y-106426000D02*
X141986000Y-106400000D01*
X140696000Y-105156000D02*
X140696000Y-105390000D01*
D26*
X141986000Y-106400000D02*
X144250000Y-106400000D01*
X152750000Y-104000000D02*
X155074000Y-104000000D01*
D27*
X155074000Y-104000000D02*
X155214000Y-104140000D01*
D26*
X155214000Y-104140000D02*
X155214000Y-56536000D01*
D27*
X155214000Y-56536000D02*
X155750000Y-56000000D01*
D26*
X155750000Y-56000000D02*
X158108000Y-56000000D01*
X158750000Y-56642000D02*
X164398960Y-56642000D01*
X158108000Y-56000000D02*
X158750000Y-56642000D01*
X141544000Y-119504000D02*
X139792000Y-119504000D01*
D27*
X139792000Y-119504000D02*
X139160000Y-118872000D01*
D26*
X139160000Y-118872000D02*
X139160000Y-125068000D01*
X139160000Y-125068000D02*
X139568000Y-125476000D01*
X139172000Y-116332000D02*
X139172000Y-118860000D01*
D27*
X139172000Y-118860000D02*
X139160000Y-118872000D01*
X147240000Y-116078000D02*
X147240000Y-116412000D01*
D26*
X147240000Y-116412000D02*
X146304000Y-116332000D01*
X146304000Y-116332000D02*
X139172000Y-116332000D01*
X152750000Y-104000000D02*
X151270000Y-104000000D01*
D27*
X151270000Y-104000000D02*
X151130000Y-104140000D01*
D26*
X151130000Y-104140000D02*
X151130000Y-105410000D01*
X151320000Y-105600000D02*
X152750000Y-105600000D01*
D27*
X151130000Y-105410000D02*
X151320000Y-105600000D01*
D26*
X152750000Y-105600000D02*
X151194000Y-105600000D01*
X151194000Y-105600000D02*
X151130000Y-105536000D01*
X151130000Y-105536000D02*
X151130000Y-104140000D01*
X152750000Y-104000000D02*
X146952000Y-104000000D01*
X146952000Y-104000000D02*
X146050000Y-104902000D01*
X144250000Y-106400000D02*
X146024000Y-106400000D01*
D27*
X146024000Y-106400000D02*
X146050000Y-106374000D01*
D26*
X146050000Y-106374000D02*
X146050000Y-104902000D01*
X145948000Y-104800000D02*
X144250000Y-104800000D01*
D27*
X146050000Y-104902000D02*
X145948000Y-104800000D01*
X140696000Y-105156000D02*
X140696000Y-104772000D01*
X154686000Y-104648000D02*
X155702000Y-104648000D01*
X154638000Y-104600000D02*
X154686000Y-104648000D01*
D26*
X155750000Y-56000000D02*
X155750000Y-52750000D01*
D27*
X155750000Y-52750000D02*
X155500000Y-52500000D01*
D26*
X149500000Y-52500000D02*
X149500000Y-58314000D01*
X149500000Y-58314000D02*
X152146000Y-60960000D01*
X152146000Y-60960000D02*
X152146000Y-100584000D01*
X152750000Y-101188000D02*
X152750000Y-103200000D01*
X152146000Y-100584000D02*
X152750000Y-101188000D01*
X149500000Y-52500000D02*
X149500000Y-45826000D01*
X151384000Y-43942000D02*
X164277040Y-43942000D01*
X149500000Y-45826000D02*
X151384000Y-43942000D01*
X150500000Y-101750000D02*
X150500000Y-62235000D01*
X150500000Y-62235000D02*
X150495000Y-62230000D01*
X150431500Y-101681500D02*
X150500000Y-101750000D01*
X164398960Y-46482000D02*
X153162000Y-46482000D01*
X151500000Y-48144000D02*
X151500000Y-52500000D01*
X153162000Y-46482000D02*
X151500000Y-48144000D01*
X151500000Y-52500000D02*
X151500000Y-54240000D01*
X151500000Y-54240000D02*
X150495000Y-55372000D01*
D27*
X151410000Y-52036000D02*
X151500000Y-52500000D01*
X150495000Y-55372000D02*
X150495000Y-55372000D01*
D26*
X147500000Y-52500000D02*
X147500000Y-43762000D01*
X149860000Y-41402000D02*
X164398960Y-41402000D01*
X147500000Y-43762000D02*
X149860000Y-41402000D01*
X151300000Y-101750000D02*
X151300000Y-61384000D01*
X147500000Y-57584000D02*
X147500000Y-52500000D01*
X151300000Y-61384000D02*
X147500000Y-57584000D01*
X133604000Y-107188000D02*
X133604000Y-107696000D01*
X144145000Y-109601000D02*
X144794000Y-110250000D01*
X135509000Y-109601000D02*
X144145000Y-109601000D01*
X133604000Y-107696000D02*
X135509000Y-109601000D01*
X143500000Y-52500000D02*
X143590000Y-49610000D01*
X134620000Y-48768000D02*
X133604000Y-49784000D01*
X142748000Y-48768000D02*
X134620000Y-48768000D01*
X143590000Y-49610000D02*
X142748000Y-48768000D01*
X144794000Y-110250000D02*
X145700000Y-110250000D01*
X133604000Y-49784000D02*
X133604000Y-107188000D01*
X149700000Y-101750000D02*
X149700000Y-61181000D01*
X149700000Y-61181000D02*
X149573000Y-61054000D01*
X149573000Y-61054000D02*
X143256000Y-54610000D01*
X143256000Y-54610000D02*
X142240000Y-54610000D01*
X142240000Y-54610000D02*
X141500000Y-53870000D01*
X141500000Y-53870000D02*
X141500000Y-52500000D01*
D27*
X140970000Y-107950000D02*
X141020000Y-108000000D01*
D26*
X141020000Y-108000000D02*
X144250000Y-108000000D01*
X157176000Y-108000000D02*
X152750000Y-108000000D01*
X157226000Y-107950000D02*
X157176000Y-108000000D01*
X144250000Y-108800000D02*
X135724000Y-108800000D01*
X134366000Y-107442000D02*
X134366000Y-57785000D01*
X135724000Y-108800000D02*
X134366000Y-107442000D01*
X146925596Y-97013418D02*
X146953582Y-97013418D01*
X148082000Y-95885000D02*
X148082000Y-83058000D01*
X146953582Y-97013418D02*
X148082000Y-95885000D01*
X148844000Y-76200000D02*
X148844000Y-82296000D01*
X148844000Y-82296000D02*
X148082000Y-83058000D01*
X148844000Y-62230000D02*
X148844000Y-76200000D01*
X145700000Y-98140000D02*
X145700000Y-101750000D01*
X146925596Y-97013418D02*
X145700000Y-98140000D01*
X149700000Y-111917500D02*
X149700000Y-110250000D01*
X149733000Y-111950500D02*
X149700000Y-111917500D01*
X148907500Y-111950500D02*
X148900000Y-111943000D01*
X148900000Y-111943000D02*
X148900000Y-110250000D01*
X156425000Y-108800000D02*
X152750000Y-108800000D01*
X156464000Y-108839000D02*
X156425000Y-108800000D01*
X147256500Y-97917000D02*
X147300000Y-97960500D01*
X147300000Y-97960500D02*
X147300000Y-101750000D01*
X148900000Y-83812500D02*
X148900000Y-101750000D01*
X148844000Y-83756500D02*
X148900000Y-83812500D01*
X146494500Y-98615500D02*
X146500000Y-98621000D01*
X146500000Y-98621000D02*
X146500000Y-101750000D01*
X151257000Y-107569000D02*
X151300000Y-107612000D01*
X151300000Y-107612000D02*
X151300000Y-110250000D01*
X151257000Y-110207000D02*
X151300000Y-110250000D01*
X150500000Y-108209000D02*
X150500000Y-110250000D01*
X150495000Y-108013500D02*
X150500000Y-108209000D01*
X147300000Y-111930500D02*
X147300000Y-110250000D01*
D27*
X147320000Y-111950500D02*
X147300000Y-111930500D01*
D26*
X146500000Y-108770000D02*
X146500000Y-110250000D01*
D27*
X146558000Y-108712000D02*
X146500000Y-108770000D01*
X149940000Y-113966000D02*
X149940000Y-114126000D01*
D26*
X153670000Y-110236000D02*
X149940000Y-113966000D01*
X156464000Y-110236000D02*
X153670000Y-110236000D01*
X157988000Y-108712000D02*
X156464000Y-110236000D01*
X157988000Y-107188000D02*
X157988000Y-108712000D01*
X149940000Y-116078000D02*
X151892000Y-116078000D01*
X151892000Y-116078000D02*
X151892000Y-118364000D01*
X149940000Y-116078000D02*
X149940000Y-114126000D01*
X148100000Y-112286000D02*
X148100000Y-110250000D01*
X149940000Y-114126000D02*
X148100000Y-112286000D01*
X141544000Y-122304000D02*
X141544000Y-123698000D01*
X141544000Y-123698000D02*
X141478000Y-123698000D01*
X143444000Y-122304000D02*
X143444000Y-123256000D01*
X140848000Y-124074000D02*
X140848000Y-125476000D01*
X141224000Y-123698000D02*
X140848000Y-124074000D01*
X143002000Y-123698000D02*
X141478000Y-123698000D01*
X141478000Y-123698000D02*
X141224000Y-123698000D01*
X143444000Y-123256000D02*
X143002000Y-123698000D01*
X150270000Y-127000000D02*
X150270000Y-123092000D01*
X150270000Y-123092000D02*
X149482000Y-122304000D01*
X149482000Y-122304000D02*
X143444000Y-122304000D01*
X155702000Y-119412000D02*
X151670000Y-119412000D01*
D27*
X151670000Y-119412000D02*
X151638000Y-119380000D01*
D26*
X143444000Y-119504000D02*
X145926000Y-119504000D01*
D27*
X145926000Y-119504000D02*
X146050000Y-119380000D01*
D26*
X148100000Y-101750000D02*
X148100000Y-103169500D01*
X148100000Y-103169500D02*
X148082000Y-103187500D01*
D29*
G36*
X132769000Y-107696000D02*
X132832561Y-108015541D01*
X132964792Y-108213439D01*
X133013566Y-108286434D01*
X134918566Y-110191434D01*
X135189459Y-110372439D01*
X135509000Y-110436000D01*
X143799132Y-110436000D01*
X144203566Y-110840434D01*
X144474460Y-111021440D01*
X144783763Y-111082964D01*
X144821838Y-111285317D01*
X144960910Y-111501441D01*
X145173110Y-111646431D01*
X145425000Y-111697440D01*
X145975000Y-111697440D01*
X146104589Y-111673056D01*
X146225000Y-111697440D01*
X146412676Y-111697440D01*
X146385162Y-111763701D01*
X146384838Y-112135667D01*
X146526883Y-112479443D01*
X146789673Y-112742692D01*
X147133201Y-112885338D01*
X147505167Y-112885662D01*
X147514810Y-112881678D01*
X149105000Y-114471868D01*
X149105000Y-114796554D01*
X148954683Y-114824838D01*
X148738559Y-114963910D01*
X148593569Y-115176110D01*
X148590919Y-115189197D01*
X148454090Y-114976559D01*
X148241890Y-114831569D01*
X147990000Y-114780560D01*
X146490000Y-114780560D01*
X146254683Y-114824838D01*
X146038559Y-114963910D01*
X145893569Y-115176110D01*
X145842560Y-115428000D01*
X145842560Y-115497000D01*
X140529926Y-115497000D01*
X140525162Y-115471683D01*
X140386090Y-115255559D01*
X140173890Y-115110569D01*
X140007000Y-115076773D01*
X140007000Y-114919868D01*
X140496333Y-114430535D01*
X140736943Y-114331117D01*
X141000192Y-114068327D01*
X141142838Y-113724799D01*
X141143162Y-113352833D01*
X141001117Y-113009057D01*
X140738327Y-112745808D01*
X140394799Y-112603162D01*
X140022833Y-112602838D01*
X139679057Y-112744883D01*
X139415808Y-113007673D01*
X139315222Y-113249910D01*
X138581566Y-113983566D01*
X138400561Y-114254459D01*
X138337000Y-114574000D01*
X138337000Y-115075554D01*
X138186683Y-115103838D01*
X137970559Y-115242910D01*
X137924031Y-115311006D01*
X137781698Y-115168673D01*
X137548309Y-115072000D01*
X136957750Y-115072000D01*
X136799000Y-115230750D01*
X136799000Y-116205000D01*
X136819000Y-116205000D01*
X136819000Y-116459000D01*
X136799000Y-116459000D01*
X136799000Y-117433250D01*
X136957750Y-117592000D01*
X137548309Y-117592000D01*
X137781698Y-117495327D01*
X137922936Y-117354090D01*
X137957910Y-117408441D01*
X138020043Y-117450895D01*
X137924683Y-117468838D01*
X137708559Y-117607910D01*
X137563569Y-117820110D01*
X137512560Y-118072000D01*
X137512560Y-119672000D01*
X137556838Y-119907317D01*
X137695910Y-120123441D01*
X137908110Y-120268431D01*
X138160000Y-120319440D01*
X138325000Y-120319440D01*
X138325000Y-125068000D01*
X138388561Y-125387541D01*
X138435560Y-125457880D01*
X138435560Y-126111000D01*
X138479838Y-126346317D01*
X138618910Y-126562441D01*
X138831110Y-126707431D01*
X139083000Y-126758440D01*
X140053000Y-126758440D01*
X140213690Y-126728204D01*
X140363000Y-126758440D01*
X141333000Y-126758440D01*
X141568317Y-126714162D01*
X141784441Y-126575090D01*
X141929431Y-126362890D01*
X141980440Y-126111000D01*
X141980440Y-125992255D01*
X146901861Y-125992255D01*
X147730000Y-126820395D01*
X148558139Y-125992255D01*
X148484005Y-125746136D01*
X147946777Y-125553035D01*
X147376546Y-125580222D01*
X146975995Y-125746136D01*
X146901861Y-125992255D01*
X141980440Y-125992255D01*
X141980440Y-124841000D01*
X141936162Y-124605683D01*
X141889392Y-124533000D01*
X143002000Y-124533000D01*
X143321541Y-124469439D01*
X143592434Y-124288434D01*
X144034434Y-123846434D01*
X144133614Y-123698000D01*
X144215439Y-123575541D01*
X144279000Y-123256000D01*
X144279000Y-123139000D01*
X149136132Y-123139000D01*
X149435000Y-123437868D01*
X149435000Y-125559146D01*
X149234683Y-125596838D01*
X149018559Y-125735910D01*
X148873569Y-125948110D01*
X148823055Y-126197557D01*
X148737745Y-126171861D01*
X147909605Y-127000000D01*
X148737745Y-127828139D01*
X148823022Y-127802453D01*
X148866838Y-128035317D01*
X149005910Y-128251441D01*
X149218110Y-128396431D01*
X149470000Y-128447440D01*
X151070000Y-128447440D01*
X151305317Y-128403162D01*
X151521441Y-128264090D01*
X151666431Y-128051890D01*
X151717440Y-127800000D01*
X151717440Y-126200000D01*
X151673162Y-125964683D01*
X151534090Y-125748559D01*
X151321890Y-125603569D01*
X151105000Y-125559648D01*
X151105000Y-123697750D01*
X154267000Y-123697750D01*
X154267000Y-124538309D01*
X154363673Y-124771698D01*
X154542301Y-124950327D01*
X154775690Y-125047000D01*
X155416250Y-125047000D01*
X155575000Y-124888250D01*
X155575000Y-123539000D01*
X155829000Y-123539000D01*
X155829000Y-124888250D01*
X155987750Y-125047000D01*
X156628310Y-125047000D01*
X156861699Y-124950327D01*
X157040327Y-124771698D01*
X157102808Y-124620854D01*
X158864457Y-124620854D01*
X159340727Y-125773515D01*
X160221847Y-126656174D01*
X161373674Y-127134454D01*
X162620854Y-127135543D01*
X163773515Y-126659273D01*
X164656174Y-125778153D01*
X165134454Y-124626326D01*
X165135543Y-123379146D01*
X164659273Y-122226485D01*
X163778153Y-121343826D01*
X162626326Y-120865546D01*
X161379146Y-120864457D01*
X160226485Y-121340727D01*
X159343826Y-122221847D01*
X158865546Y-123373674D01*
X158864457Y-124620854D01*
X157102808Y-124620854D01*
X157137000Y-124538309D01*
X157137000Y-123697750D01*
X156978250Y-123539000D01*
X155829000Y-123539000D01*
X155575000Y-123539000D01*
X154425750Y-123539000D01*
X154267000Y-123697750D01*
X151105000Y-123697750D01*
X151105000Y-123092000D01*
X151041439Y-122772459D01*
X150860434Y-122501566D01*
X150644559Y-122285691D01*
X154267000Y-122285691D01*
X154267000Y-123126250D01*
X154425750Y-123285000D01*
X155575000Y-123285000D01*
X155575000Y-121935750D01*
X155829000Y-121935750D01*
X155829000Y-123285000D01*
X156978250Y-123285000D01*
X157137000Y-123126250D01*
X157137000Y-122285691D01*
X157040327Y-122052302D01*
X156861699Y-121873673D01*
X156628310Y-121777000D01*
X155987750Y-121777000D01*
X155829000Y-121935750D01*
X155575000Y-121935750D01*
X155416250Y-121777000D01*
X154775690Y-121777000D01*
X154542301Y-121873673D01*
X154363673Y-122052302D01*
X154267000Y-122285691D01*
X150644559Y-122285691D01*
X150072434Y-121713566D01*
X149801541Y-121532561D01*
X149482000Y-121469000D01*
X144250844Y-121469000D01*
X144208090Y-121402559D01*
X143995890Y-121257569D01*
X143744000Y-121206560D01*
X143144000Y-121206560D01*
X142969531Y-121239389D01*
X142920309Y-121219000D01*
X142779750Y-121219000D01*
X142621000Y-121377750D01*
X142621000Y-121494640D01*
X142547569Y-121602110D01*
X142496560Y-121854000D01*
X142496560Y-122451000D01*
X142491440Y-122451000D01*
X142491440Y-121854000D01*
X142447162Y-121618683D01*
X142367000Y-121494108D01*
X142367000Y-121377750D01*
X142208250Y-121219000D01*
X142067691Y-121219000D01*
X142014411Y-121241069D01*
X141844000Y-121206560D01*
X141244000Y-121206560D01*
X141008683Y-121250838D01*
X140792559Y-121389910D01*
X140647569Y-121602110D01*
X140596560Y-121854000D01*
X140596560Y-122754000D01*
X140640838Y-122989317D01*
X140691863Y-123068613D01*
X140656862Y-123092000D01*
X140633566Y-123107566D01*
X140257566Y-123483566D01*
X140076561Y-123754459D01*
X140013000Y-124074000D01*
X140013000Y-124193560D01*
X139995000Y-124193560D01*
X139995000Y-120339000D01*
X140737156Y-120339000D01*
X140779910Y-120405441D01*
X140992110Y-120550431D01*
X141244000Y-120601440D01*
X141844000Y-120601440D01*
X142079317Y-120557162D01*
X142295441Y-120418090D01*
X142440431Y-120205890D01*
X142491440Y-119954000D01*
X142491440Y-119054000D01*
X142496560Y-119054000D01*
X142496560Y-119954000D01*
X142540838Y-120189317D01*
X142679910Y-120405441D01*
X142892110Y-120550431D01*
X143144000Y-120601440D01*
X143744000Y-120601440D01*
X143979317Y-120557162D01*
X144195441Y-120418090D01*
X144249481Y-120339000D01*
X145926000Y-120339000D01*
X146046667Y-120314998D01*
X146235167Y-120315162D01*
X146578943Y-120173117D01*
X146842192Y-119910327D01*
X146984838Y-119566799D01*
X146985162Y-119194833D01*
X146843117Y-118851057D01*
X146580327Y-118587808D01*
X146236799Y-118445162D01*
X145864833Y-118444838D01*
X145521057Y-118586883D01*
X145438797Y-118669000D01*
X144250844Y-118669000D01*
X144208090Y-118602559D01*
X143995890Y-118457569D01*
X143744000Y-118406560D01*
X143144000Y-118406560D01*
X142908683Y-118450838D01*
X142692559Y-118589910D01*
X142547569Y-118802110D01*
X142496560Y-119054000D01*
X142491440Y-119054000D01*
X142447162Y-118818683D01*
X142308090Y-118602559D01*
X142095890Y-118457569D01*
X141844000Y-118406560D01*
X141244000Y-118406560D01*
X141008683Y-118450838D01*
X140807440Y-118580334D01*
X140807440Y-118072000D01*
X140763162Y-117836683D01*
X140624090Y-117620559D01*
X140411890Y-117475569D01*
X140318248Y-117456606D01*
X140373441Y-117421090D01*
X140518431Y-117208890D01*
X140526914Y-117167000D01*
X146017904Y-117167000D01*
X146025910Y-117179441D01*
X146238110Y-117324431D01*
X146490000Y-117375440D01*
X147990000Y-117375440D01*
X148225317Y-117331162D01*
X148441441Y-117192090D01*
X148586431Y-116979890D01*
X148589081Y-116966803D01*
X148725910Y-117179441D01*
X148938110Y-117324431D01*
X149190000Y-117375440D01*
X150690000Y-117375440D01*
X150925317Y-117331162D01*
X151057000Y-117246426D01*
X151057000Y-117936766D01*
X150957162Y-118177201D01*
X150956838Y-118549167D01*
X151012322Y-118683449D01*
X150845808Y-118849673D01*
X150703162Y-119193201D01*
X150702838Y-119565167D01*
X150844883Y-119908943D01*
X151107673Y-120172192D01*
X151451201Y-120314838D01*
X151823167Y-120315162D01*
X151988132Y-120247000D01*
X154254560Y-120247000D01*
X154254560Y-120412000D01*
X154298838Y-120647317D01*
X154437910Y-120863441D01*
X154650110Y-121008431D01*
X154902000Y-121059440D01*
X156502000Y-121059440D01*
X156737317Y-121015162D01*
X156953441Y-120876090D01*
X157098431Y-120663890D01*
X157149440Y-120412000D01*
X157149440Y-118412000D01*
X157105162Y-118176683D01*
X156966090Y-117960559D01*
X156753890Y-117815569D01*
X156502000Y-117764560D01*
X154902000Y-117764560D01*
X154666683Y-117808838D01*
X154450559Y-117947910D01*
X154305569Y-118160110D01*
X154254560Y-118412000D01*
X154254560Y-118577000D01*
X152815958Y-118577000D01*
X152826838Y-118550799D01*
X152827162Y-118178833D01*
X152727000Y-117936422D01*
X152727000Y-116078000D01*
X152663439Y-115758459D01*
X152482434Y-115487566D01*
X152211541Y-115306561D01*
X151892000Y-115243000D01*
X151302630Y-115243000D01*
X151293162Y-115192683D01*
X151154090Y-114976559D01*
X150941890Y-114831569D01*
X150775000Y-114797773D01*
X150775000Y-114311868D01*
X154015868Y-111071000D01*
X156464000Y-111071000D01*
X156783541Y-111007439D01*
X157054434Y-110826434D01*
X158578434Y-109302434D01*
X158592449Y-109281459D01*
X158759439Y-109031541D01*
X158823000Y-108712000D01*
X158823000Y-107615234D01*
X158922838Y-107374799D01*
X158923162Y-107002833D01*
X158781117Y-106659057D01*
X158518327Y-106395808D01*
X158174799Y-106253162D01*
X157802833Y-106252838D01*
X157459057Y-106394883D01*
X157195808Y-106657673D01*
X157053162Y-107001201D01*
X157053150Y-107014849D01*
X157040833Y-107014838D01*
X156697057Y-107156883D01*
X156688926Y-107165000D01*
X154197440Y-107165000D01*
X154197440Y-106925000D01*
X154177550Y-106819295D01*
X154185000Y-106801310D01*
X154185000Y-106685750D01*
X154088599Y-106589349D01*
X154014090Y-106473559D01*
X153906603Y-106400116D01*
X154001441Y-106339090D01*
X154090495Y-106208755D01*
X154185000Y-106114250D01*
X154185000Y-105998690D01*
X154176532Y-105978247D01*
X154197440Y-105875000D01*
X154197440Y-105351407D01*
X154212110Y-105361431D01*
X154464000Y-105412440D01*
X155964000Y-105412440D01*
X156199317Y-105368162D01*
X156415441Y-105229090D01*
X156461969Y-105160994D01*
X156604302Y-105303327D01*
X156837691Y-105400000D01*
X157428250Y-105400000D01*
X157587000Y-105241250D01*
X157587000Y-104267000D01*
X157841000Y-104267000D01*
X157841000Y-105241250D01*
X157999750Y-105400000D01*
X158590309Y-105400000D01*
X158823698Y-105303327D01*
X159002327Y-105124699D01*
X159099000Y-104891310D01*
X159099000Y-104425750D01*
X158940250Y-104267000D01*
X157841000Y-104267000D01*
X157587000Y-104267000D01*
X157567000Y-104267000D01*
X157567000Y-104013000D01*
X157587000Y-104013000D01*
X157587000Y-103038750D01*
X157841000Y-103038750D01*
X157841000Y-104013000D01*
X158940250Y-104013000D01*
X159099000Y-103854250D01*
X159099000Y-103388690D01*
X159002327Y-103155301D01*
X158823698Y-102976673D01*
X158590309Y-102880000D01*
X157999750Y-102880000D01*
X157841000Y-103038750D01*
X157587000Y-103038750D01*
X157428250Y-102880000D01*
X156837691Y-102880000D01*
X156604302Y-102976673D01*
X156463064Y-103117910D01*
X156428090Y-103063559D01*
X156215890Y-102918569D01*
X156049000Y-102884773D01*
X156049000Y-57272440D01*
X156500000Y-57272440D01*
X156735317Y-57228162D01*
X156951441Y-57089090D01*
X157096431Y-56876890D01*
X157104914Y-56835000D01*
X157762132Y-56835000D01*
X158159566Y-57232434D01*
X158430459Y-57413439D01*
X158750000Y-57477000D01*
X163078704Y-57477000D01*
X163097298Y-57575817D01*
X163236370Y-57791941D01*
X163448570Y-57936931D01*
X163700460Y-57987940D01*
X165097460Y-57987940D01*
X165227000Y-57963565D01*
X165227000Y-127290000D01*
X163000000Y-127290000D01*
X162728295Y-127344046D01*
X162497954Y-127497954D01*
X162344046Y-127728295D01*
X162290000Y-128000000D01*
X162290000Y-129290000D01*
X134710000Y-129290000D01*
X134710000Y-128007745D01*
X146901861Y-128007745D01*
X146975995Y-128253864D01*
X147513223Y-128446965D01*
X148083454Y-128419778D01*
X148484005Y-128253864D01*
X148558139Y-128007745D01*
X147730000Y-127179605D01*
X146901861Y-128007745D01*
X134710000Y-128007745D01*
X134710000Y-128000000D01*
X134655954Y-127728295D01*
X134502046Y-127497954D01*
X134271705Y-127344046D01*
X134000000Y-127290000D01*
X131710000Y-127290000D01*
X131710000Y-124620854D01*
X131864457Y-124620854D01*
X132340727Y-125773515D01*
X133221847Y-126656174D01*
X134373674Y-127134454D01*
X135620854Y-127135543D01*
X136473533Y-126783223D01*
X146283035Y-126783223D01*
X146310222Y-127353454D01*
X146476136Y-127754005D01*
X146722255Y-127828139D01*
X147550395Y-127000000D01*
X146722255Y-126171861D01*
X146476136Y-126245995D01*
X146283035Y-126783223D01*
X136473533Y-126783223D01*
X136773515Y-126659273D01*
X137656174Y-125778153D01*
X138134454Y-124626326D01*
X138135543Y-123379146D01*
X137659273Y-122226485D01*
X136778153Y-121343826D01*
X135626326Y-120865546D01*
X134379146Y-120864457D01*
X133226485Y-121340727D01*
X132343826Y-122221847D01*
X131865546Y-123373674D01*
X131864457Y-124620854D01*
X131710000Y-124620854D01*
X131710000Y-119157750D01*
X133525000Y-119157750D01*
X133525000Y-119798310D01*
X133621673Y-120031699D01*
X133800302Y-120210327D01*
X134033691Y-120307000D01*
X134874250Y-120307000D01*
X135033000Y-120148250D01*
X135033000Y-118999000D01*
X135287000Y-118999000D01*
X135287000Y-120148250D01*
X135445750Y-120307000D01*
X136286309Y-120307000D01*
X136519698Y-120210327D01*
X136698327Y-120031699D01*
X136795000Y-119798310D01*
X136795000Y-119157750D01*
X136636250Y-118999000D01*
X135287000Y-118999000D01*
X135033000Y-118999000D01*
X133683750Y-118999000D01*
X133525000Y-119157750D01*
X131710000Y-119157750D01*
X131710000Y-117945690D01*
X133525000Y-117945690D01*
X133525000Y-118586250D01*
X133683750Y-118745000D01*
X135033000Y-118745000D01*
X135033000Y-117595750D01*
X134874250Y-117437000D01*
X134033691Y-117437000D01*
X133800302Y-117533673D01*
X133621673Y-117712301D01*
X133525000Y-117945690D01*
X131710000Y-117945690D01*
X131710000Y-116617750D01*
X135287000Y-116617750D01*
X135287000Y-117083310D01*
X135383673Y-117316699D01*
X135503975Y-117437000D01*
X135445750Y-117437000D01*
X135287000Y-117595750D01*
X135287000Y-118745000D01*
X136636250Y-118745000D01*
X136795000Y-118586250D01*
X136795000Y-117945690D01*
X136698327Y-117712301D01*
X136519698Y-117533673D01*
X136466579Y-117511671D01*
X136545000Y-117433250D01*
X136545000Y-116459000D01*
X135445750Y-116459000D01*
X135287000Y-116617750D01*
X131710000Y-116617750D01*
X131710000Y-115580690D01*
X135287000Y-115580690D01*
X135287000Y-116046250D01*
X135445750Y-116205000D01*
X136545000Y-116205000D01*
X136545000Y-115230750D01*
X136386250Y-115072000D01*
X135795691Y-115072000D01*
X135562302Y-115168673D01*
X135383673Y-115347301D01*
X135287000Y-115580690D01*
X131710000Y-115580690D01*
X131710000Y-49911000D01*
X132769000Y-49911000D01*
X132769000Y-107696000D01*
X132769000Y-107696000D01*
G37*
X132769000Y-107696000D02*
X132832561Y-108015541D01*
X132964792Y-108213439D01*
X133013566Y-108286434D01*
X134918566Y-110191434D01*
X135189459Y-110372439D01*
X135509000Y-110436000D01*
X143799132Y-110436000D01*
X144203566Y-110840434D01*
X144474460Y-111021440D01*
X144783763Y-111082964D01*
X144821838Y-111285317D01*
X144960910Y-111501441D01*
X145173110Y-111646431D01*
X145425000Y-111697440D01*
X145975000Y-111697440D01*
X146104589Y-111673056D01*
X146225000Y-111697440D01*
X146412676Y-111697440D01*
X146385162Y-111763701D01*
X146384838Y-112135667D01*
X146526883Y-112479443D01*
X146789673Y-112742692D01*
X147133201Y-112885338D01*
X147505167Y-112885662D01*
X147514810Y-112881678D01*
X149105000Y-114471868D01*
X149105000Y-114796554D01*
X148954683Y-114824838D01*
X148738559Y-114963910D01*
X148593569Y-115176110D01*
X148590919Y-115189197D01*
X148454090Y-114976559D01*
X148241890Y-114831569D01*
X147990000Y-114780560D01*
X146490000Y-114780560D01*
X146254683Y-114824838D01*
X146038559Y-114963910D01*
X145893569Y-115176110D01*
X145842560Y-115428000D01*
X145842560Y-115497000D01*
X140529926Y-115497000D01*
X140525162Y-115471683D01*
X140386090Y-115255559D01*
X140173890Y-115110569D01*
X140007000Y-115076773D01*
X140007000Y-114919868D01*
X140496333Y-114430535D01*
X140736943Y-114331117D01*
X141000192Y-114068327D01*
X141142838Y-113724799D01*
X141143162Y-113352833D01*
X141001117Y-113009057D01*
X140738327Y-112745808D01*
X140394799Y-112603162D01*
X140022833Y-112602838D01*
X139679057Y-112744883D01*
X139415808Y-113007673D01*
X139315222Y-113249910D01*
X138581566Y-113983566D01*
X138400561Y-114254459D01*
X138337000Y-114574000D01*
X138337000Y-115075554D01*
X138186683Y-115103838D01*
X137970559Y-115242910D01*
X137924031Y-115311006D01*
X137781698Y-115168673D01*
X137548309Y-115072000D01*
X136957750Y-115072000D01*
X136799000Y-115230750D01*
X136799000Y-116205000D01*
X136819000Y-116205000D01*
X136819000Y-116459000D01*
X136799000Y-116459000D01*
X136799000Y-117433250D01*
X136957750Y-117592000D01*
X137548309Y-117592000D01*
X137781698Y-117495327D01*
X137922936Y-117354090D01*
X137957910Y-117408441D01*
X138020043Y-117450895D01*
X137924683Y-117468838D01*
X137708559Y-117607910D01*
X137563569Y-117820110D01*
X137512560Y-118072000D01*
X137512560Y-119672000D01*
X137556838Y-119907317D01*
X137695910Y-120123441D01*
X137908110Y-120268431D01*
X138160000Y-120319440D01*
X138325000Y-120319440D01*
X138325000Y-125068000D01*
X138388561Y-125387541D01*
X138435560Y-125457880D01*
X138435560Y-126111000D01*
X138479838Y-126346317D01*
X138618910Y-126562441D01*
X138831110Y-126707431D01*
X139083000Y-126758440D01*
X140053000Y-126758440D01*
X140213690Y-126728204D01*
X140363000Y-126758440D01*
X141333000Y-126758440D01*
X141568317Y-126714162D01*
X141784441Y-126575090D01*
X141929431Y-126362890D01*
X141980440Y-126111000D01*
X141980440Y-125992255D01*
X146901861Y-125992255D01*
X147730000Y-126820395D01*
X148558139Y-125992255D01*
X148484005Y-125746136D01*
X147946777Y-125553035D01*
X147376546Y-125580222D01*
X146975995Y-125746136D01*
X146901861Y-125992255D01*
X141980440Y-125992255D01*
X141980440Y-124841000D01*
X141936162Y-124605683D01*
X141889392Y-124533000D01*
X143002000Y-124533000D01*
X143321541Y-124469439D01*
X143592434Y-124288434D01*
X144034434Y-123846434D01*
X144133614Y-123698000D01*
X144215439Y-123575541D01*
X144279000Y-123256000D01*
X144279000Y-123139000D01*
X149136132Y-123139000D01*
X149435000Y-123437868D01*
X149435000Y-125559146D01*
X149234683Y-125596838D01*
X149018559Y-125735910D01*
X148873569Y-125948110D01*
X148823055Y-126197557D01*
X148737745Y-126171861D01*
X147909605Y-127000000D01*
X148737745Y-127828139D01*
X148823022Y-127802453D01*
X148866838Y-128035317D01*
X149005910Y-128251441D01*
X149218110Y-128396431D01*
X149470000Y-128447440D01*
X151070000Y-128447440D01*
X151305317Y-128403162D01*
X151521441Y-128264090D01*
X151666431Y-128051890D01*
X151717440Y-127800000D01*
X151717440Y-126200000D01*
X151673162Y-125964683D01*
X151534090Y-125748559D01*
X151321890Y-125603569D01*
X151105000Y-125559648D01*
X151105000Y-123697750D01*
X154267000Y-123697750D01*
X154267000Y-124538309D01*
X154363673Y-124771698D01*
X154542301Y-124950327D01*
X154775690Y-125047000D01*
X155416250Y-125047000D01*
X155575000Y-124888250D01*
X155575000Y-123539000D01*
X155829000Y-123539000D01*
X155829000Y-124888250D01*
X155987750Y-125047000D01*
X156628310Y-125047000D01*
X156861699Y-124950327D01*
X157040327Y-124771698D01*
X157102808Y-124620854D01*
X158864457Y-124620854D01*
X159340727Y-125773515D01*
X160221847Y-126656174D01*
X161373674Y-127134454D01*
X162620854Y-127135543D01*
X163773515Y-126659273D01*
X164656174Y-125778153D01*
X165134454Y-124626326D01*
X165135543Y-123379146D01*
X164659273Y-122226485D01*
X163778153Y-121343826D01*
X162626326Y-120865546D01*
X161379146Y-120864457D01*
X160226485Y-121340727D01*
X159343826Y-122221847D01*
X158865546Y-123373674D01*
X158864457Y-124620854D01*
X157102808Y-124620854D01*
X157137000Y-124538309D01*
X157137000Y-123697750D01*
X156978250Y-123539000D01*
X155829000Y-123539000D01*
X155575000Y-123539000D01*
X154425750Y-123539000D01*
X154267000Y-123697750D01*
X151105000Y-123697750D01*
X151105000Y-123092000D01*
X151041439Y-122772459D01*
X150860434Y-122501566D01*
X150644559Y-122285691D01*
X154267000Y-122285691D01*
X154267000Y-123126250D01*
X154425750Y-123285000D01*
X155575000Y-123285000D01*
X155575000Y-121935750D01*
X155829000Y-121935750D01*
X155829000Y-123285000D01*
X156978250Y-123285000D01*
X157137000Y-123126250D01*
X157137000Y-122285691D01*
X157040327Y-122052302D01*
X156861699Y-121873673D01*
X156628310Y-121777000D01*
X155987750Y-121777000D01*
X155829000Y-121935750D01*
X155575000Y-121935750D01*
X155416250Y-121777000D01*
X154775690Y-121777000D01*
X154542301Y-121873673D01*
X154363673Y-122052302D01*
X154267000Y-122285691D01*
X150644559Y-122285691D01*
X150072434Y-121713566D01*
X149801541Y-121532561D01*
X149482000Y-121469000D01*
X144250844Y-121469000D01*
X144208090Y-121402559D01*
X143995890Y-121257569D01*
X143744000Y-121206560D01*
X143144000Y-121206560D01*
X142969531Y-121239389D01*
X142920309Y-121219000D01*
X142779750Y-121219000D01*
X142621000Y-121377750D01*
X142621000Y-121494640D01*
X142547569Y-121602110D01*
X142496560Y-121854000D01*
X142496560Y-122451000D01*
X142491440Y-122451000D01*
X142491440Y-121854000D01*
X142447162Y-121618683D01*
X142367000Y-121494108D01*
X142367000Y-121377750D01*
X142208250Y-121219000D01*
X142067691Y-121219000D01*
X142014411Y-121241069D01*
X141844000Y-121206560D01*
X141244000Y-121206560D01*
X141008683Y-121250838D01*
X140792559Y-121389910D01*
X140647569Y-121602110D01*
X140596560Y-121854000D01*
X140596560Y-122754000D01*
X140640838Y-122989317D01*
X140691863Y-123068613D01*
X140656862Y-123092000D01*
X140633566Y-123107566D01*
X140257566Y-123483566D01*
X140076561Y-123754459D01*
X140013000Y-124074000D01*
X140013000Y-124193560D01*
X139995000Y-124193560D01*
X139995000Y-120339000D01*
X140737156Y-120339000D01*
X140779910Y-120405441D01*
X140992110Y-120550431D01*
X141244000Y-120601440D01*
X141844000Y-120601440D01*
X142079317Y-120557162D01*
X142295441Y-120418090D01*
X142440431Y-120205890D01*
X142491440Y-119954000D01*
X142491440Y-119054000D01*
X142496560Y-119054000D01*
X142496560Y-119954000D01*
X142540838Y-120189317D01*
X142679910Y-120405441D01*
X142892110Y-120550431D01*
X143144000Y-120601440D01*
X143744000Y-120601440D01*
X143979317Y-120557162D01*
X144195441Y-120418090D01*
X144249481Y-120339000D01*
X145926000Y-120339000D01*
X146046667Y-120314998D01*
X146235167Y-120315162D01*
X146578943Y-120173117D01*
X146842192Y-119910327D01*
X146984838Y-119566799D01*
X146985162Y-119194833D01*
X146843117Y-118851057D01*
X146580327Y-118587808D01*
X146236799Y-118445162D01*
X145864833Y-118444838D01*
X145521057Y-118586883D01*
X145438797Y-118669000D01*
X144250844Y-118669000D01*
X144208090Y-118602559D01*
X143995890Y-118457569D01*
X143744000Y-118406560D01*
X143144000Y-118406560D01*
X142908683Y-118450838D01*
X142692559Y-118589910D01*
X142547569Y-118802110D01*
X142496560Y-119054000D01*
X142491440Y-119054000D01*
X142447162Y-118818683D01*
X142308090Y-118602559D01*
X142095890Y-118457569D01*
X141844000Y-118406560D01*
X141244000Y-118406560D01*
X141008683Y-118450838D01*
X140807440Y-118580334D01*
X140807440Y-118072000D01*
X140763162Y-117836683D01*
X140624090Y-117620559D01*
X140411890Y-117475569D01*
X140318248Y-117456606D01*
X140373441Y-117421090D01*
X140518431Y-117208890D01*
X140526914Y-117167000D01*
X146017904Y-117167000D01*
X146025910Y-117179441D01*
X146238110Y-117324431D01*
X146490000Y-117375440D01*
X147990000Y-117375440D01*
X148225317Y-117331162D01*
X148441441Y-117192090D01*
X148586431Y-116979890D01*
X148589081Y-116966803D01*
X148725910Y-117179441D01*
X148938110Y-117324431D01*
X149190000Y-117375440D01*
X150690000Y-117375440D01*
X150925317Y-117331162D01*
X151057000Y-117246426D01*
X151057000Y-117936766D01*
X150957162Y-118177201D01*
X150956838Y-118549167D01*
X151012322Y-118683449D01*
X150845808Y-118849673D01*
X150703162Y-119193201D01*
X150702838Y-119565167D01*
X150844883Y-119908943D01*
X151107673Y-120172192D01*
X151451201Y-120314838D01*
X151823167Y-120315162D01*
X151988132Y-120247000D01*
X154254560Y-120247000D01*
X154254560Y-120412000D01*
X154298838Y-120647317D01*
X154437910Y-120863441D01*
X154650110Y-121008431D01*
X154902000Y-121059440D01*
X156502000Y-121059440D01*
X156737317Y-121015162D01*
X156953441Y-120876090D01*
X157098431Y-120663890D01*
X157149440Y-120412000D01*
X157149440Y-118412000D01*
X157105162Y-118176683D01*
X156966090Y-117960559D01*
X156753890Y-117815569D01*
X156502000Y-117764560D01*
X154902000Y-117764560D01*
X154666683Y-117808838D01*
X154450559Y-117947910D01*
X154305569Y-118160110D01*
X154254560Y-118412000D01*
X154254560Y-118577000D01*
X152815958Y-118577000D01*
X152826838Y-118550799D01*
X152827162Y-118178833D01*
X152727000Y-117936422D01*
X152727000Y-116078000D01*
X152663439Y-115758459D01*
X152482434Y-115487566D01*
X152211541Y-115306561D01*
X151892000Y-115243000D01*
X151302630Y-115243000D01*
X151293162Y-115192683D01*
X151154090Y-114976559D01*
X150941890Y-114831569D01*
X150775000Y-114797773D01*
X150775000Y-114311868D01*
X154015868Y-111071000D01*
X156464000Y-111071000D01*
X156783541Y-111007439D01*
X157054434Y-110826434D01*
X158578434Y-109302434D01*
X158592449Y-109281459D01*
X158759439Y-109031541D01*
X158823000Y-108712000D01*
X158823000Y-107615234D01*
X158922838Y-107374799D01*
X158923162Y-107002833D01*
X158781117Y-106659057D01*
X158518327Y-106395808D01*
X158174799Y-106253162D01*
X157802833Y-106252838D01*
X157459057Y-106394883D01*
X157195808Y-106657673D01*
X157053162Y-107001201D01*
X157053150Y-107014849D01*
X157040833Y-107014838D01*
X156697057Y-107156883D01*
X156688926Y-107165000D01*
X154197440Y-107165000D01*
X154197440Y-106925000D01*
X154177550Y-106819295D01*
X154185000Y-106801310D01*
X154185000Y-106685750D01*
X154088599Y-106589349D01*
X154014090Y-106473559D01*
X153906603Y-106400116D01*
X154001441Y-106339090D01*
X154090495Y-106208755D01*
X154185000Y-106114250D01*
X154185000Y-105998690D01*
X154176532Y-105978247D01*
X154197440Y-105875000D01*
X154197440Y-105351407D01*
X154212110Y-105361431D01*
X154464000Y-105412440D01*
X155964000Y-105412440D01*
X156199317Y-105368162D01*
X156415441Y-105229090D01*
X156461969Y-105160994D01*
X156604302Y-105303327D01*
X156837691Y-105400000D01*
X157428250Y-105400000D01*
X157587000Y-105241250D01*
X157587000Y-104267000D01*
X157841000Y-104267000D01*
X157841000Y-105241250D01*
X157999750Y-105400000D01*
X158590309Y-105400000D01*
X158823698Y-105303327D01*
X159002327Y-105124699D01*
X159099000Y-104891310D01*
X159099000Y-104425750D01*
X158940250Y-104267000D01*
X157841000Y-104267000D01*
X157587000Y-104267000D01*
X157567000Y-104267000D01*
X157567000Y-104013000D01*
X157587000Y-104013000D01*
X157587000Y-103038750D01*
X157841000Y-103038750D01*
X157841000Y-104013000D01*
X158940250Y-104013000D01*
X159099000Y-103854250D01*
X159099000Y-103388690D01*
X159002327Y-103155301D01*
X158823698Y-102976673D01*
X158590309Y-102880000D01*
X157999750Y-102880000D01*
X157841000Y-103038750D01*
X157587000Y-103038750D01*
X157428250Y-102880000D01*
X156837691Y-102880000D01*
X156604302Y-102976673D01*
X156463064Y-103117910D01*
X156428090Y-103063559D01*
X156215890Y-102918569D01*
X156049000Y-102884773D01*
X156049000Y-57272440D01*
X156500000Y-57272440D01*
X156735317Y-57228162D01*
X156951441Y-57089090D01*
X157096431Y-56876890D01*
X157104914Y-56835000D01*
X157762132Y-56835000D01*
X158159566Y-57232434D01*
X158430459Y-57413439D01*
X158750000Y-57477000D01*
X163078704Y-57477000D01*
X163097298Y-57575817D01*
X163236370Y-57791941D01*
X163448570Y-57936931D01*
X163700460Y-57987940D01*
X165097460Y-57987940D01*
X165227000Y-57963565D01*
X165227000Y-127290000D01*
X163000000Y-127290000D01*
X162728295Y-127344046D01*
X162497954Y-127497954D01*
X162344046Y-127728295D01*
X162290000Y-128000000D01*
X162290000Y-129290000D01*
X134710000Y-129290000D01*
X134710000Y-128007745D01*
X146901861Y-128007745D01*
X146975995Y-128253864D01*
X147513223Y-128446965D01*
X148083454Y-128419778D01*
X148484005Y-128253864D01*
X148558139Y-128007745D01*
X147730000Y-127179605D01*
X146901861Y-128007745D01*
X134710000Y-128007745D01*
X134710000Y-128000000D01*
X134655954Y-127728295D01*
X134502046Y-127497954D01*
X134271705Y-127344046D01*
X134000000Y-127290000D01*
X131710000Y-127290000D01*
X131710000Y-124620854D01*
X131864457Y-124620854D01*
X132340727Y-125773515D01*
X133221847Y-126656174D01*
X134373674Y-127134454D01*
X135620854Y-127135543D01*
X136473533Y-126783223D01*
X146283035Y-126783223D01*
X146310222Y-127353454D01*
X146476136Y-127754005D01*
X146722255Y-127828139D01*
X147550395Y-127000000D01*
X146722255Y-126171861D01*
X146476136Y-126245995D01*
X146283035Y-126783223D01*
X136473533Y-126783223D01*
X136773515Y-126659273D01*
X137656174Y-125778153D01*
X138134454Y-124626326D01*
X138135543Y-123379146D01*
X137659273Y-122226485D01*
X136778153Y-121343826D01*
X135626326Y-120865546D01*
X134379146Y-120864457D01*
X133226485Y-121340727D01*
X132343826Y-122221847D01*
X131865546Y-123373674D01*
X131864457Y-124620854D01*
X131710000Y-124620854D01*
X131710000Y-119157750D01*
X133525000Y-119157750D01*
X133525000Y-119798310D01*
X133621673Y-120031699D01*
X133800302Y-120210327D01*
X134033691Y-120307000D01*
X134874250Y-120307000D01*
X135033000Y-120148250D01*
X135033000Y-118999000D01*
X135287000Y-118999000D01*
X135287000Y-120148250D01*
X135445750Y-120307000D01*
X136286309Y-120307000D01*
X136519698Y-120210327D01*
X136698327Y-120031699D01*
X136795000Y-119798310D01*
X136795000Y-119157750D01*
X136636250Y-118999000D01*
X135287000Y-118999000D01*
X135033000Y-118999000D01*
X133683750Y-118999000D01*
X133525000Y-119157750D01*
X131710000Y-119157750D01*
X131710000Y-117945690D01*
X133525000Y-117945690D01*
X133525000Y-118586250D01*
X133683750Y-118745000D01*
X135033000Y-118745000D01*
X135033000Y-117595750D01*
X134874250Y-117437000D01*
X134033691Y-117437000D01*
X133800302Y-117533673D01*
X133621673Y-117712301D01*
X133525000Y-117945690D01*
X131710000Y-117945690D01*
X131710000Y-116617750D01*
X135287000Y-116617750D01*
X135287000Y-117083310D01*
X135383673Y-117316699D01*
X135503975Y-117437000D01*
X135445750Y-117437000D01*
X135287000Y-117595750D01*
X135287000Y-118745000D01*
X136636250Y-118745000D01*
X136795000Y-118586250D01*
X136795000Y-117945690D01*
X136698327Y-117712301D01*
X136519698Y-117533673D01*
X136466579Y-117511671D01*
X136545000Y-117433250D01*
X136545000Y-116459000D01*
X135445750Y-116459000D01*
X135287000Y-116617750D01*
X131710000Y-116617750D01*
X131710000Y-115580690D01*
X135287000Y-115580690D01*
X135287000Y-116046250D01*
X135445750Y-116205000D01*
X136545000Y-116205000D01*
X136545000Y-115230750D01*
X136386250Y-115072000D01*
X135795691Y-115072000D01*
X135562302Y-115168673D01*
X135383673Y-115347301D01*
X135287000Y-115580690D01*
X131710000Y-115580690D01*
X131710000Y-49911000D01*
X132769000Y-49911000D01*
X132769000Y-107696000D01*
G36*
X150295000Y-105536000D02*
X150358561Y-105855541D01*
X150510651Y-106083160D01*
X150539566Y-106126434D01*
X150603566Y-106190434D01*
X150874460Y-106371440D01*
X151194000Y-106435000D01*
X151315000Y-106435000D01*
X151315000Y-106527002D01*
X151453400Y-106527002D01*
X151409505Y-106591245D01*
X151366655Y-106634095D01*
X151071833Y-106633838D01*
X150728057Y-106775883D01*
X150464808Y-107038673D01*
X150448287Y-107078459D01*
X150309833Y-107078338D01*
X149966057Y-107220383D01*
X149702808Y-107483173D01*
X149560162Y-107826701D01*
X149559838Y-108198667D01*
X149665000Y-108453179D01*
X149665000Y-108802560D01*
X149425000Y-108802560D01*
X149295411Y-108826944D01*
X149175000Y-108802560D01*
X148625000Y-108802560D01*
X148495411Y-108826944D01*
X148375000Y-108802560D01*
X147825000Y-108802560D01*
X147695411Y-108826944D01*
X147575000Y-108802560D01*
X147492922Y-108802560D01*
X147493162Y-108526833D01*
X147351117Y-108183057D01*
X147088327Y-107919808D01*
X146744799Y-107777162D01*
X146372833Y-107776838D01*
X146029057Y-107918883D01*
X145765808Y-108181673D01*
X145674303Y-108402040D01*
X145673056Y-108395411D01*
X145697440Y-108275000D01*
X145697440Y-107725000D01*
X145677550Y-107619295D01*
X145685000Y-107601310D01*
X145685000Y-107485750D01*
X145588599Y-107389349D01*
X145548480Y-107327002D01*
X145685000Y-107327002D01*
X145685000Y-107235000D01*
X146024000Y-107235000D01*
X146343541Y-107171439D01*
X146614434Y-106990434D01*
X146624848Y-106974848D01*
X146640434Y-106964434D01*
X146821439Y-106693541D01*
X146885000Y-106374000D01*
X146885000Y-105247868D01*
X147297868Y-104835000D01*
X150295000Y-104835000D01*
X150295000Y-105536000D01*
X150295000Y-105536000D01*
G37*
X150295000Y-105536000D02*
X150358561Y-105855541D01*
X150510651Y-106083160D01*
X150539566Y-106126434D01*
X150603566Y-106190434D01*
X150874460Y-106371440D01*
X151194000Y-106435000D01*
X151315000Y-106435000D01*
X151315000Y-106527002D01*
X151453400Y-106527002D01*
X151409505Y-106591245D01*
X151366655Y-106634095D01*
X151071833Y-106633838D01*
X150728057Y-106775883D01*
X150464808Y-107038673D01*
X150448287Y-107078459D01*
X150309833Y-107078338D01*
X149966057Y-107220383D01*
X149702808Y-107483173D01*
X149560162Y-107826701D01*
X149559838Y-108198667D01*
X149665000Y-108453179D01*
X149665000Y-108802560D01*
X149425000Y-108802560D01*
X149295411Y-108826944D01*
X149175000Y-108802560D01*
X148625000Y-108802560D01*
X148495411Y-108826944D01*
X148375000Y-108802560D01*
X147825000Y-108802560D01*
X147695411Y-108826944D01*
X147575000Y-108802560D01*
X147492922Y-108802560D01*
X147493162Y-108526833D01*
X147351117Y-108183057D01*
X147088327Y-107919808D01*
X146744799Y-107777162D01*
X146372833Y-107776838D01*
X146029057Y-107918883D01*
X145765808Y-108181673D01*
X145674303Y-108402040D01*
X145673056Y-108395411D01*
X145697440Y-108275000D01*
X145697440Y-107725000D01*
X145677550Y-107619295D01*
X145685000Y-107601310D01*
X145685000Y-107485750D01*
X145588599Y-107389349D01*
X145548480Y-107327002D01*
X145685000Y-107327002D01*
X145685000Y-107235000D01*
X146024000Y-107235000D01*
X146343541Y-107171439D01*
X146614434Y-106990434D01*
X146624848Y-106974848D01*
X146640434Y-106964434D01*
X146821439Y-106693541D01*
X146885000Y-106374000D01*
X146885000Y-105247868D01*
X147297868Y-104835000D01*
X150295000Y-104835000D01*
X150295000Y-105536000D01*
G36*
X142744162Y-49945030D02*
X142723022Y-50623861D01*
X142664683Y-50634838D01*
X142498523Y-50741759D01*
X142351890Y-50641569D01*
X142100000Y-50590560D01*
X140900000Y-50590560D01*
X140664683Y-50634838D01*
X140448559Y-50773910D01*
X140303569Y-50986110D01*
X140252560Y-51238000D01*
X140252560Y-53762000D01*
X140296838Y-53997317D01*
X140435910Y-54213441D01*
X140648110Y-54358431D01*
X140871658Y-54403701D01*
X140909566Y-54460434D01*
X141649566Y-55200434D01*
X141920459Y-55381439D01*
X142240000Y-55445000D01*
X142905254Y-55445000D01*
X148645288Y-61300435D01*
X148315057Y-61436883D01*
X148051808Y-61699673D01*
X147909162Y-62043201D01*
X147908838Y-62415167D01*
X148009000Y-62657578D01*
X148009000Y-81950132D01*
X147491566Y-82467566D01*
X147310561Y-82738459D01*
X147247000Y-83058000D01*
X147247000Y-95539132D01*
X146429413Y-96356719D01*
X146360516Y-96398674D01*
X145134920Y-97525256D01*
X145124395Y-97539658D01*
X145109566Y-97549566D01*
X145028639Y-97670682D01*
X144942682Y-97788298D01*
X144938470Y-97805630D01*
X144928561Y-97820459D01*
X144900142Y-97963329D01*
X144865739Y-98104882D01*
X144868480Y-98122506D01*
X144865000Y-98140000D01*
X144865000Y-100644791D01*
X144828569Y-100698110D01*
X144777560Y-100950000D01*
X144777560Y-102277560D01*
X143450000Y-102277560D01*
X143214683Y-102321838D01*
X142998559Y-102460910D01*
X142853569Y-102673110D01*
X142802560Y-102925000D01*
X142802560Y-103475000D01*
X142826944Y-103604589D01*
X142802560Y-103725000D01*
X142802560Y-104275000D01*
X142826944Y-104404589D01*
X142802560Y-104525000D01*
X142802560Y-105075000D01*
X142822450Y-105180705D01*
X142815000Y-105198690D01*
X142815000Y-105314250D01*
X142911401Y-105410651D01*
X142951520Y-105472998D01*
X142815000Y-105472998D01*
X142815000Y-105565000D01*
X142093440Y-105565000D01*
X142093440Y-104531000D01*
X142049162Y-104295683D01*
X141910090Y-104079559D01*
X141697890Y-103934569D01*
X141446000Y-103883560D01*
X139946000Y-103883560D01*
X139710683Y-103927838D01*
X139494559Y-104066910D01*
X139448031Y-104135006D01*
X139305698Y-103992673D01*
X139072309Y-103896000D01*
X138481750Y-103896000D01*
X138323000Y-104054750D01*
X138323000Y-105029000D01*
X138343000Y-105029000D01*
X138343000Y-105283000D01*
X138323000Y-105283000D01*
X138323000Y-106257250D01*
X138481750Y-106416000D01*
X139072309Y-106416000D01*
X139273080Y-106332838D01*
X139272838Y-106611167D01*
X139414883Y-106954943D01*
X139677673Y-107218192D01*
X140021201Y-107360838D01*
X140236558Y-107361026D01*
X140177808Y-107419673D01*
X140035162Y-107763201D01*
X140034986Y-107965000D01*
X136069868Y-107965000D01*
X135201000Y-107096132D01*
X135201000Y-105441750D01*
X136811000Y-105441750D01*
X136811000Y-105907310D01*
X136907673Y-106140699D01*
X137086302Y-106319327D01*
X137319691Y-106416000D01*
X137910250Y-106416000D01*
X138069000Y-106257250D01*
X138069000Y-105283000D01*
X136969750Y-105283000D01*
X136811000Y-105441750D01*
X135201000Y-105441750D01*
X135201000Y-104404690D01*
X136811000Y-104404690D01*
X136811000Y-104870250D01*
X136969750Y-105029000D01*
X138069000Y-105029000D01*
X138069000Y-104054750D01*
X137910250Y-103896000D01*
X137319691Y-103896000D01*
X137086302Y-103992673D01*
X136907673Y-104171301D01*
X136811000Y-104404690D01*
X135201000Y-104404690D01*
X135201000Y-58212234D01*
X135300838Y-57971799D01*
X135301162Y-57599833D01*
X135159117Y-57256057D01*
X134896327Y-56992808D01*
X134552799Y-56850162D01*
X134439000Y-56850063D01*
X134439000Y-50129868D01*
X134657868Y-49911000D01*
X142710132Y-49911000D01*
X142744162Y-49945030D01*
X142744162Y-49945030D01*
G37*
X142744162Y-49945030D02*
X142723022Y-50623861D01*
X142664683Y-50634838D01*
X142498523Y-50741759D01*
X142351890Y-50641569D01*
X142100000Y-50590560D01*
X140900000Y-50590560D01*
X140664683Y-50634838D01*
X140448559Y-50773910D01*
X140303569Y-50986110D01*
X140252560Y-51238000D01*
X140252560Y-53762000D01*
X140296838Y-53997317D01*
X140435910Y-54213441D01*
X140648110Y-54358431D01*
X140871658Y-54403701D01*
X140909566Y-54460434D01*
X141649566Y-55200434D01*
X141920459Y-55381439D01*
X142240000Y-55445000D01*
X142905254Y-55445000D01*
X148645288Y-61300435D01*
X148315057Y-61436883D01*
X148051808Y-61699673D01*
X147909162Y-62043201D01*
X147908838Y-62415167D01*
X148009000Y-62657578D01*
X148009000Y-81950132D01*
X147491566Y-82467566D01*
X147310561Y-82738459D01*
X147247000Y-83058000D01*
X147247000Y-95539132D01*
X146429413Y-96356719D01*
X146360516Y-96398674D01*
X145134920Y-97525256D01*
X145124395Y-97539658D01*
X145109566Y-97549566D01*
X145028639Y-97670682D01*
X144942682Y-97788298D01*
X144938470Y-97805630D01*
X144928561Y-97820459D01*
X144900142Y-97963329D01*
X144865739Y-98104882D01*
X144868480Y-98122506D01*
X144865000Y-98140000D01*
X144865000Y-100644791D01*
X144828569Y-100698110D01*
X144777560Y-100950000D01*
X144777560Y-102277560D01*
X143450000Y-102277560D01*
X143214683Y-102321838D01*
X142998559Y-102460910D01*
X142853569Y-102673110D01*
X142802560Y-102925000D01*
X142802560Y-103475000D01*
X142826944Y-103604589D01*
X142802560Y-103725000D01*
X142802560Y-104275000D01*
X142826944Y-104404589D01*
X142802560Y-104525000D01*
X142802560Y-105075000D01*
X142822450Y-105180705D01*
X142815000Y-105198690D01*
X142815000Y-105314250D01*
X142911401Y-105410651D01*
X142951520Y-105472998D01*
X142815000Y-105472998D01*
X142815000Y-105565000D01*
X142093440Y-105565000D01*
X142093440Y-104531000D01*
X142049162Y-104295683D01*
X141910090Y-104079559D01*
X141697890Y-103934569D01*
X141446000Y-103883560D01*
X139946000Y-103883560D01*
X139710683Y-103927838D01*
X139494559Y-104066910D01*
X139448031Y-104135006D01*
X139305698Y-103992673D01*
X139072309Y-103896000D01*
X138481750Y-103896000D01*
X138323000Y-104054750D01*
X138323000Y-105029000D01*
X138343000Y-105029000D01*
X138343000Y-105283000D01*
X138323000Y-105283000D01*
X138323000Y-106257250D01*
X138481750Y-106416000D01*
X139072309Y-106416000D01*
X139273080Y-106332838D01*
X139272838Y-106611167D01*
X139414883Y-106954943D01*
X139677673Y-107218192D01*
X140021201Y-107360838D01*
X140236558Y-107361026D01*
X140177808Y-107419673D01*
X140035162Y-107763201D01*
X140034986Y-107965000D01*
X136069868Y-107965000D01*
X135201000Y-107096132D01*
X135201000Y-105441750D01*
X136811000Y-105441750D01*
X136811000Y-105907310D01*
X136907673Y-106140699D01*
X137086302Y-106319327D01*
X137319691Y-106416000D01*
X137910250Y-106416000D01*
X138069000Y-106257250D01*
X138069000Y-105283000D01*
X136969750Y-105283000D01*
X136811000Y-105441750D01*
X135201000Y-105441750D01*
X135201000Y-104404690D01*
X136811000Y-104404690D01*
X136811000Y-104870250D01*
X136969750Y-105029000D01*
X138069000Y-105029000D01*
X138069000Y-104054750D01*
X137910250Y-103896000D01*
X137319691Y-103896000D01*
X137086302Y-103992673D01*
X136907673Y-104171301D01*
X136811000Y-104404690D01*
X135201000Y-104404690D01*
X135201000Y-58212234D01*
X135300838Y-57971799D01*
X135301162Y-57599833D01*
X135159117Y-57256057D01*
X134896327Y-56992808D01*
X134552799Y-56850162D01*
X134439000Y-56850063D01*
X134439000Y-50129868D01*
X134657868Y-49911000D01*
X142710132Y-49911000D01*
X142744162Y-49945030D01*
G36*
X163520687Y-50151827D02*
X163919296Y-50317344D01*
X163644580Y-50430854D01*
X163269133Y-50805647D01*
X163065692Y-51295587D01*
X163065229Y-51826086D01*
X163267814Y-52316380D01*
X163642607Y-52691827D01*
X163903193Y-52800032D01*
X163584111Y-52932200D01*
X163522457Y-53167812D01*
X164277040Y-53922395D01*
X164291183Y-53908253D01*
X164470788Y-54087858D01*
X164456645Y-54102000D01*
X164470788Y-54116143D01*
X164291183Y-54295748D01*
X164277040Y-54281605D01*
X163522457Y-55036188D01*
X163584111Y-55271800D01*
X163669558Y-55301875D01*
X163465143Y-55340338D01*
X163249019Y-55479410D01*
X163104029Y-55691610D01*
X163080662Y-55807000D01*
X159095868Y-55807000D01*
X158698434Y-55409566D01*
X158646702Y-55375000D01*
X158427541Y-55228561D01*
X158108000Y-55165000D01*
X157107926Y-55165000D01*
X157103162Y-55139683D01*
X156964090Y-54923559D01*
X156751890Y-54778569D01*
X156585000Y-54744773D01*
X156585000Y-54176975D01*
X156696431Y-54013890D01*
X156717574Y-53909480D01*
X162931113Y-53909480D01*
X162959892Y-54439199D01*
X163107240Y-54794929D01*
X163342852Y-54856583D01*
X164097435Y-54102000D01*
X163342852Y-53347417D01*
X163107240Y-53409071D01*
X162931113Y-53909480D01*
X156717574Y-53909480D01*
X156747440Y-53762000D01*
X156747440Y-51238000D01*
X156703162Y-51002683D01*
X156564090Y-50786559D01*
X156351890Y-50641569D01*
X156100000Y-50590560D01*
X154900000Y-50590560D01*
X154664683Y-50634838D01*
X154500507Y-50740482D01*
X154459698Y-50699673D01*
X154226309Y-50603000D01*
X153785750Y-50603000D01*
X153627000Y-50761750D01*
X153627000Y-52373000D01*
X153647000Y-52373000D01*
X153647000Y-52627000D01*
X153627000Y-52627000D01*
X153627000Y-54238250D01*
X153785750Y-54397000D01*
X154226309Y-54397000D01*
X154459698Y-54300327D01*
X154501660Y-54258366D01*
X154648110Y-54358431D01*
X154900000Y-54409440D01*
X154915000Y-54409440D01*
X154915000Y-54743554D01*
X154764683Y-54771838D01*
X154548559Y-54910910D01*
X154502031Y-54979006D01*
X154359698Y-54836673D01*
X154126309Y-54740000D01*
X153535750Y-54740000D01*
X153377000Y-54898750D01*
X153377000Y-55873000D01*
X153397000Y-55873000D01*
X153397000Y-56127000D01*
X153377000Y-56127000D01*
X153377000Y-57101250D01*
X153535750Y-57260000D01*
X154126309Y-57260000D01*
X154359698Y-57163327D01*
X154379000Y-57144025D01*
X154379000Y-102883554D01*
X154228683Y-102911838D01*
X154197440Y-102931942D01*
X154197440Y-102925000D01*
X154153162Y-102689683D01*
X154014090Y-102473559D01*
X153801890Y-102328569D01*
X153585000Y-102284648D01*
X153585000Y-101188000D01*
X153521439Y-100868459D01*
X153340434Y-100597566D01*
X152981000Y-100238132D01*
X152981000Y-60960000D01*
X152917439Y-60640459D01*
X152736434Y-60369566D01*
X150335000Y-57968132D01*
X150335000Y-56306861D01*
X150680167Y-56307162D01*
X150731988Y-56285750D01*
X151865000Y-56285750D01*
X151865000Y-56751310D01*
X151961673Y-56984699D01*
X152140302Y-57163327D01*
X152373691Y-57260000D01*
X152964250Y-57260000D01*
X153123000Y-57101250D01*
X153123000Y-56127000D01*
X152023750Y-56127000D01*
X151865000Y-56285750D01*
X150731988Y-56285750D01*
X151023943Y-56165117D01*
X151287192Y-55902327D01*
X151415855Y-55592473D01*
X151721068Y-55248690D01*
X151865000Y-55248690D01*
X151865000Y-55714250D01*
X152023750Y-55873000D01*
X153123000Y-55873000D01*
X153123000Y-54898750D01*
X152964250Y-54740000D01*
X152373691Y-54740000D01*
X152140302Y-54836673D01*
X151961673Y-55015301D01*
X151865000Y-55248690D01*
X151721068Y-55248690D01*
X152124421Y-54794367D01*
X152194442Y-54674776D01*
X152271439Y-54559541D01*
X152276341Y-54534896D01*
X152289037Y-54513212D01*
X152307962Y-54375928D01*
X152309123Y-54370091D01*
X152335317Y-54365162D01*
X152499493Y-54259518D01*
X152540302Y-54300327D01*
X152773691Y-54397000D01*
X153214250Y-54397000D01*
X153373000Y-54238250D01*
X153373000Y-52627000D01*
X153353000Y-52627000D01*
X153353000Y-52373000D01*
X153373000Y-52373000D01*
X153373000Y-50761750D01*
X153214250Y-50603000D01*
X152773691Y-50603000D01*
X152540302Y-50699673D01*
X152498340Y-50741634D01*
X152351890Y-50641569D01*
X152335000Y-50638149D01*
X152335000Y-49911000D01*
X163280280Y-49911000D01*
X163520687Y-50151827D01*
X163520687Y-50151827D01*
G37*
X163520687Y-50151827D02*
X163919296Y-50317344D01*
X163644580Y-50430854D01*
X163269133Y-50805647D01*
X163065692Y-51295587D01*
X163065229Y-51826086D01*
X163267814Y-52316380D01*
X163642607Y-52691827D01*
X163903193Y-52800032D01*
X163584111Y-52932200D01*
X163522457Y-53167812D01*
X164277040Y-53922395D01*
X164291183Y-53908253D01*
X164470788Y-54087858D01*
X164456645Y-54102000D01*
X164470788Y-54116143D01*
X164291183Y-54295748D01*
X164277040Y-54281605D01*
X163522457Y-55036188D01*
X163584111Y-55271800D01*
X163669558Y-55301875D01*
X163465143Y-55340338D01*
X163249019Y-55479410D01*
X163104029Y-55691610D01*
X163080662Y-55807000D01*
X159095868Y-55807000D01*
X158698434Y-55409566D01*
X158646702Y-55375000D01*
X158427541Y-55228561D01*
X158108000Y-55165000D01*
X157107926Y-55165000D01*
X157103162Y-55139683D01*
X156964090Y-54923559D01*
X156751890Y-54778569D01*
X156585000Y-54744773D01*
X156585000Y-54176975D01*
X156696431Y-54013890D01*
X156717574Y-53909480D01*
X162931113Y-53909480D01*
X162959892Y-54439199D01*
X163107240Y-54794929D01*
X163342852Y-54856583D01*
X164097435Y-54102000D01*
X163342852Y-53347417D01*
X163107240Y-53409071D01*
X162931113Y-53909480D01*
X156717574Y-53909480D01*
X156747440Y-53762000D01*
X156747440Y-51238000D01*
X156703162Y-51002683D01*
X156564090Y-50786559D01*
X156351890Y-50641569D01*
X156100000Y-50590560D01*
X154900000Y-50590560D01*
X154664683Y-50634838D01*
X154500507Y-50740482D01*
X154459698Y-50699673D01*
X154226309Y-50603000D01*
X153785750Y-50603000D01*
X153627000Y-50761750D01*
X153627000Y-52373000D01*
X153647000Y-52373000D01*
X153647000Y-52627000D01*
X153627000Y-52627000D01*
X153627000Y-54238250D01*
X153785750Y-54397000D01*
X154226309Y-54397000D01*
X154459698Y-54300327D01*
X154501660Y-54258366D01*
X154648110Y-54358431D01*
X154900000Y-54409440D01*
X154915000Y-54409440D01*
X154915000Y-54743554D01*
X154764683Y-54771838D01*
X154548559Y-54910910D01*
X154502031Y-54979006D01*
X154359698Y-54836673D01*
X154126309Y-54740000D01*
X153535750Y-54740000D01*
X153377000Y-54898750D01*
X153377000Y-55873000D01*
X153397000Y-55873000D01*
X153397000Y-56127000D01*
X153377000Y-56127000D01*
X153377000Y-57101250D01*
X153535750Y-57260000D01*
X154126309Y-57260000D01*
X154359698Y-57163327D01*
X154379000Y-57144025D01*
X154379000Y-102883554D01*
X154228683Y-102911838D01*
X154197440Y-102931942D01*
X154197440Y-102925000D01*
X154153162Y-102689683D01*
X154014090Y-102473559D01*
X153801890Y-102328569D01*
X153585000Y-102284648D01*
X153585000Y-101188000D01*
X153521439Y-100868459D01*
X153340434Y-100597566D01*
X152981000Y-100238132D01*
X152981000Y-60960000D01*
X152917439Y-60640459D01*
X152736434Y-60369566D01*
X150335000Y-57968132D01*
X150335000Y-56306861D01*
X150680167Y-56307162D01*
X150731988Y-56285750D01*
X151865000Y-56285750D01*
X151865000Y-56751310D01*
X151961673Y-56984699D01*
X152140302Y-57163327D01*
X152373691Y-57260000D01*
X152964250Y-57260000D01*
X153123000Y-57101250D01*
X153123000Y-56127000D01*
X152023750Y-56127000D01*
X151865000Y-56285750D01*
X150731988Y-56285750D01*
X151023943Y-56165117D01*
X151287192Y-55902327D01*
X151415855Y-55592473D01*
X151721068Y-55248690D01*
X151865000Y-55248690D01*
X151865000Y-55714250D01*
X152023750Y-55873000D01*
X153123000Y-55873000D01*
X153123000Y-54898750D01*
X152964250Y-54740000D01*
X152373691Y-54740000D01*
X152140302Y-54836673D01*
X151961673Y-55015301D01*
X151865000Y-55248690D01*
X151721068Y-55248690D01*
X152124421Y-54794367D01*
X152194442Y-54674776D01*
X152271439Y-54559541D01*
X152276341Y-54534896D01*
X152289037Y-54513212D01*
X152307962Y-54375928D01*
X152309123Y-54370091D01*
X152335317Y-54365162D01*
X152499493Y-54259518D01*
X152540302Y-54300327D01*
X152773691Y-54397000D01*
X153214250Y-54397000D01*
X153373000Y-54238250D01*
X153373000Y-52627000D01*
X153353000Y-52627000D01*
X153353000Y-52373000D01*
X153373000Y-52373000D01*
X153373000Y-50761750D01*
X153214250Y-50603000D01*
X152773691Y-50603000D01*
X152540302Y-50699673D01*
X152498340Y-50741634D01*
X152351890Y-50641569D01*
X152335000Y-50638149D01*
X152335000Y-49911000D01*
X163280280Y-49911000D01*
X163520687Y-50151827D01*
M02*
