G04 #@! TF.FileFunction,Legend,Top*
%FSLAX46Y46*%
G04 Gerber Fmt 4.6, Leading zero omitted, Abs format (unit mm)*
G04 Created by KiCad (PCBNEW 4.0.2-stable) date 15.03.2017 10:40:45*
%MOMM*%
G01*
G04 APERTURE LIST*
%ADD10C,0.100000*%
%ADD11C,0.200000*%
%ADD12C,0.150000*%
%ADD13C,0.120000*%
%ADD14C,0.254000*%
G04 APERTURE END LIST*
D10*
D11*
X133573881Y-48875286D02*
X132573881Y-48875286D01*
X133050071Y-48875286D02*
X133050071Y-48189571D01*
X133573881Y-48189571D02*
X132573881Y-48189571D01*
X133573881Y-47618143D02*
X132573881Y-47618143D01*
X133288167Y-47218143D01*
X132573881Y-46818143D01*
X133573881Y-46818143D01*
X133192929Y-46246714D02*
X133192929Y-45332428D01*
X133573881Y-44075285D02*
X133097690Y-44475285D01*
X133573881Y-44761000D02*
X132573881Y-44761000D01*
X132573881Y-44303857D01*
X132621500Y-44189571D01*
X132669119Y-44132428D01*
X132764357Y-44075285D01*
X132907214Y-44075285D01*
X133002452Y-44132428D01*
X133050071Y-44189571D01*
X133097690Y-44303857D01*
X133097690Y-44761000D01*
X133478643Y-42875285D02*
X133526262Y-42932428D01*
X133573881Y-43103857D01*
X133573881Y-43218143D01*
X133526262Y-43389571D01*
X133431024Y-43503857D01*
X133335786Y-43561000D01*
X133145310Y-43618143D01*
X133002452Y-43618143D01*
X132811976Y-43561000D01*
X132716738Y-43503857D01*
X132621500Y-43389571D01*
X132573881Y-43218143D01*
X132573881Y-43103857D01*
X132621500Y-42932428D01*
X132669119Y-42875285D01*
X133192929Y-42361000D02*
X133192929Y-41446714D01*
X133573881Y-40246714D02*
X133573881Y-40932429D01*
X133573881Y-40589571D02*
X132573881Y-40589571D01*
X132716738Y-40703857D01*
X132811976Y-40818143D01*
X132859595Y-40932429D01*
X132573881Y-39503857D02*
X132573881Y-39389572D01*
X132621500Y-39275286D01*
X132669119Y-39218143D01*
X132764357Y-39161000D01*
X132954833Y-39103857D01*
X133192929Y-39103857D01*
X133383405Y-39161000D01*
X133478643Y-39218143D01*
X133526262Y-39275286D01*
X133573881Y-39389572D01*
X133573881Y-39503857D01*
X133526262Y-39618143D01*
X133478643Y-39675286D01*
X133383405Y-39732429D01*
X133192929Y-39789572D01*
X132954833Y-39789572D01*
X132764357Y-39732429D01*
X132669119Y-39675286D01*
X132621500Y-39618143D01*
X132573881Y-39503857D01*
X134507214Y-45275285D02*
X135173881Y-44989571D01*
X134507214Y-44703857D01*
X135173881Y-43618142D02*
X135173881Y-44303857D01*
X135173881Y-43960999D02*
X134173881Y-43960999D01*
X134316738Y-44075285D01*
X134411976Y-44189571D01*
X134459595Y-44303857D01*
X135078643Y-43103857D02*
X135126262Y-43046714D01*
X135173881Y-43103857D01*
X135126262Y-43161000D01*
X135078643Y-43103857D01*
X135173881Y-43103857D01*
X134173881Y-42303856D02*
X134173881Y-42189571D01*
X134221500Y-42075285D01*
X134269119Y-42018142D01*
X134364357Y-41960999D01*
X134554833Y-41903856D01*
X134792929Y-41903856D01*
X134983405Y-41960999D01*
X135078643Y-42018142D01*
X135126262Y-42075285D01*
X135173881Y-42189571D01*
X135173881Y-42303856D01*
X135126262Y-42418142D01*
X135078643Y-42475285D01*
X134983405Y-42532428D01*
X134792929Y-42589571D01*
X134554833Y-42589571D01*
X134364357Y-42532428D01*
X134269119Y-42475285D01*
X134221500Y-42418142D01*
X134173881Y-42303856D01*
D12*
X166000000Y-128000000D02*
X166000000Y-30000000D01*
X131000000Y-30000000D02*
X131000000Y-128000000D01*
X131000000Y-30000000D02*
X166000000Y-30000000D01*
X134000000Y-128000000D02*
X131000000Y-128000000D01*
X166000000Y-128000000D02*
X163000000Y-128000000D01*
X134000000Y-130000000D02*
X134000000Y-128000000D01*
X163000000Y-130000000D02*
X134000000Y-130000000D01*
X163000000Y-128000000D02*
X163000000Y-130000000D01*
X146304096Y-128532000D02*
X146208858Y-128484381D01*
X146066001Y-128484381D01*
X145923143Y-128532000D01*
X145827905Y-128627238D01*
X145780286Y-128722476D01*
X145732667Y-128912952D01*
X145732667Y-129055810D01*
X145780286Y-129246286D01*
X145827905Y-129341524D01*
X145923143Y-129436762D01*
X146066001Y-129484381D01*
X146161239Y-129484381D01*
X146304096Y-129436762D01*
X146351715Y-129389143D01*
X146351715Y-129055810D01*
X146161239Y-129055810D01*
X146780286Y-129484381D02*
X146780286Y-128484381D01*
X147351715Y-129484381D01*
X147351715Y-128484381D01*
X147827905Y-129484381D02*
X147827905Y-128484381D01*
X148066000Y-128484381D01*
X148208858Y-128532000D01*
X148304096Y-128627238D01*
X148351715Y-128722476D01*
X148399334Y-128912952D01*
X148399334Y-129055810D01*
X148351715Y-129246286D01*
X148304096Y-129341524D01*
X148208858Y-129436762D01*
X148066000Y-129484381D01*
X147827905Y-129484381D01*
X149542667Y-128484381D02*
X149876000Y-129484381D01*
X150209334Y-128484381D01*
X151114096Y-129389143D02*
X151066477Y-129436762D01*
X150923620Y-129484381D01*
X150828382Y-129484381D01*
X150685524Y-129436762D01*
X150590286Y-129341524D01*
X150542667Y-129246286D01*
X150495048Y-129055810D01*
X150495048Y-128912952D01*
X150542667Y-128722476D01*
X150590286Y-128627238D01*
X150685524Y-128532000D01*
X150828382Y-128484381D01*
X150923620Y-128484381D01*
X151066477Y-128532000D01*
X151114096Y-128579619D01*
X152114096Y-129389143D02*
X152066477Y-129436762D01*
X151923620Y-129484381D01*
X151828382Y-129484381D01*
X151685524Y-129436762D01*
X151590286Y-129341524D01*
X151542667Y-129246286D01*
X151495048Y-129055810D01*
X151495048Y-128912952D01*
X151542667Y-128722476D01*
X151590286Y-128627238D01*
X151685524Y-128532000D01*
X151828382Y-128484381D01*
X151923620Y-128484381D01*
X152066477Y-128532000D01*
X152114096Y-128579619D01*
X156506220Y-122204110D02*
X156506220Y-124704110D01*
X156506220Y-124704110D02*
X155406220Y-124704110D01*
X155406220Y-124704110D02*
X155406220Y-122204110D01*
X155406220Y-122204110D02*
X156506220Y-122204110D01*
X155156220Y-121954110D02*
X155156220Y-124954110D01*
X156756220Y-121954110D02*
X156756220Y-124954110D01*
X156756220Y-124954110D02*
X155156220Y-124954110D01*
X156756220Y-121954110D02*
X155156220Y-121954110D01*
X154206220Y-120454110D02*
X154206220Y-126454110D01*
X157706220Y-120454110D02*
X157706220Y-126454110D01*
X157706220Y-120454110D02*
X154206220Y-120454110D01*
X157706220Y-126454110D02*
X154206220Y-126454110D01*
X141520220Y-122204110D02*
X141520220Y-124704110D01*
X141520220Y-124704110D02*
X140420220Y-124704110D01*
X140420220Y-124704110D02*
X140420220Y-122204110D01*
X140420220Y-122204110D02*
X141520220Y-122204110D01*
X140170220Y-121954110D02*
X140170220Y-124954110D01*
X141770220Y-121954110D02*
X141770220Y-124954110D01*
X141770220Y-124954110D02*
X140170220Y-124954110D01*
X141770220Y-121954110D02*
X140170220Y-121954110D01*
X139220220Y-120454110D02*
X139220220Y-126454110D01*
X142720220Y-120454110D02*
X142720220Y-126454110D01*
X142720220Y-120454110D02*
X139220220Y-120454110D01*
X142720220Y-126454110D02*
X139220220Y-126454110D01*
D13*
X146650000Y-36500000D02*
X148350000Y-36500000D01*
X148350000Y-36450000D02*
X148350000Y-32400000D01*
X146650000Y-36450000D02*
X146650000Y-32400000D01*
X148650000Y-36500000D02*
X150350000Y-36500000D01*
X150350000Y-36450000D02*
X150350000Y-32400000D01*
X148650000Y-36450000D02*
X148650000Y-32400000D01*
D12*
X152625000Y-34600000D02*
X152625000Y-33400000D01*
X154375000Y-33400000D02*
X154375000Y-34600000D01*
X142625000Y-34600000D02*
X142625000Y-33400000D01*
X144375000Y-33400000D02*
X144375000Y-34600000D01*
D14*
X149000000Y-128200000D02*
X149000000Y-125800000D01*
X146400000Y-125800000D02*
X151600000Y-125800000D01*
X151600000Y-125800000D02*
X151600000Y-128200000D01*
X151600000Y-128200000D02*
X146400000Y-128200000D01*
X146400000Y-128200000D02*
X146400000Y-125800000D01*
D13*
X164286000Y-34000000D02*
G75*
G03X164286000Y-34000000I-2286000J0D01*
G01*
X137286000Y-34000000D02*
G75*
G03X137286000Y-34000000I-2286000J0D01*
G01*
X164286000Y-124000000D02*
G75*
G03X164286000Y-124000000I-2286000J0D01*
G01*
X137286000Y-124000000D02*
G75*
G03X137286000Y-124000000I-2286000J0D01*
G01*
X160202000Y-50745000D02*
X160202000Y-50775000D01*
X160202000Y-57205000D02*
X160202000Y-57175000D01*
X153742000Y-57205000D02*
X153742000Y-57175000D01*
X153742000Y-50775000D02*
X153742000Y-50745000D01*
X160202000Y-52675000D02*
X160202000Y-55275000D01*
X153742000Y-50745000D02*
X160202000Y-50745000D01*
X153742000Y-52675000D02*
X153742000Y-55275000D01*
X153742000Y-57205000D02*
X160202000Y-57205000D01*
X136724000Y-57205000D02*
X136724000Y-57175000D01*
X136724000Y-50745000D02*
X136724000Y-50775000D01*
X143184000Y-50745000D02*
X143184000Y-50775000D01*
X143184000Y-57175000D02*
X143184000Y-57205000D01*
X136724000Y-55275000D02*
X136724000Y-52675000D01*
X143184000Y-57205000D02*
X136724000Y-57205000D01*
X143184000Y-55275000D02*
X143184000Y-52675000D01*
X143184000Y-50745000D02*
X136724000Y-50745000D01*
X160202000Y-65731000D02*
X160202000Y-65761000D01*
X160202000Y-72191000D02*
X160202000Y-72161000D01*
X153742000Y-72191000D02*
X153742000Y-72161000D01*
X153742000Y-65761000D02*
X153742000Y-65731000D01*
X160202000Y-67661000D02*
X160202000Y-70261000D01*
X153742000Y-65731000D02*
X160202000Y-65731000D01*
X153742000Y-67661000D02*
X153742000Y-70261000D01*
X153742000Y-72191000D02*
X160202000Y-72191000D01*
X136724000Y-72191000D02*
X136724000Y-72161000D01*
X136724000Y-65731000D02*
X136724000Y-65761000D01*
X143184000Y-65731000D02*
X143184000Y-65761000D01*
X143184000Y-72161000D02*
X143184000Y-72191000D01*
X136724000Y-70261000D02*
X136724000Y-67661000D01*
X143184000Y-72191000D02*
X136724000Y-72191000D01*
X143184000Y-70261000D02*
X143184000Y-67661000D01*
X143184000Y-65731000D02*
X136724000Y-65731000D01*
X160202000Y-80717000D02*
X160202000Y-80747000D01*
X160202000Y-87177000D02*
X160202000Y-87147000D01*
X153742000Y-87177000D02*
X153742000Y-87147000D01*
X153742000Y-80747000D02*
X153742000Y-80717000D01*
X160202000Y-82647000D02*
X160202000Y-85247000D01*
X153742000Y-80717000D02*
X160202000Y-80717000D01*
X153742000Y-82647000D02*
X153742000Y-85247000D01*
X153742000Y-87177000D02*
X160202000Y-87177000D01*
X136724000Y-87177000D02*
X136724000Y-87147000D01*
X136724000Y-80717000D02*
X136724000Y-80747000D01*
X143184000Y-80717000D02*
X143184000Y-80747000D01*
X143184000Y-87147000D02*
X143184000Y-87177000D01*
X136724000Y-85247000D02*
X136724000Y-82647000D01*
X143184000Y-87177000D02*
X136724000Y-87177000D01*
X143184000Y-85247000D02*
X143184000Y-82647000D01*
X143184000Y-80717000D02*
X136724000Y-80717000D01*
X160202000Y-95703000D02*
X160202000Y-95733000D01*
X160202000Y-102163000D02*
X160202000Y-102133000D01*
X153742000Y-102163000D02*
X153742000Y-102133000D01*
X153742000Y-95733000D02*
X153742000Y-95703000D01*
X160202000Y-97633000D02*
X160202000Y-100233000D01*
X153742000Y-95703000D02*
X160202000Y-95703000D01*
X153742000Y-97633000D02*
X153742000Y-100233000D01*
X153742000Y-102163000D02*
X160202000Y-102163000D01*
X136724000Y-102163000D02*
X136724000Y-102133000D01*
X136724000Y-95703000D02*
X136724000Y-95733000D01*
X143184000Y-95703000D02*
X143184000Y-95733000D01*
X143184000Y-102133000D02*
X143184000Y-102163000D01*
X136724000Y-100233000D02*
X136724000Y-97633000D01*
X143184000Y-102163000D02*
X136724000Y-102163000D01*
X143184000Y-100233000D02*
X143184000Y-97633000D01*
X143184000Y-95703000D02*
X136724000Y-95703000D01*
X160202000Y-110816000D02*
X160202000Y-110846000D01*
X160202000Y-117276000D02*
X160202000Y-117246000D01*
X153742000Y-117276000D02*
X153742000Y-117246000D01*
X153742000Y-110846000D02*
X153742000Y-110816000D01*
X160202000Y-112746000D02*
X160202000Y-115346000D01*
X153742000Y-110816000D02*
X160202000Y-110816000D01*
X153742000Y-112746000D02*
X153742000Y-115346000D01*
X153742000Y-117276000D02*
X160202000Y-117276000D01*
X136724000Y-117276000D02*
X136724000Y-117246000D01*
X136724000Y-110816000D02*
X136724000Y-110846000D01*
X143184000Y-110816000D02*
X143184000Y-110846000D01*
X143184000Y-117246000D02*
X143184000Y-117276000D01*
X136724000Y-115346000D02*
X136724000Y-112746000D01*
X143184000Y-117276000D02*
X136724000Y-117276000D01*
X143184000Y-115346000D02*
X143184000Y-112746000D01*
X143184000Y-110816000D02*
X136724000Y-110816000D01*
D12*
X150749000Y-119253000D02*
G75*
G03X146939000Y-119253000I-1905000J-1905000D01*
G01*
X146939000Y-123063000D02*
G75*
G03X150749000Y-123063000I1905000J1905000D01*
G01*
X151994000Y-124308000D02*
X151994000Y-122658000D01*
X151994000Y-118008000D02*
X151994000Y-119658000D01*
X145694000Y-124308000D02*
X145694000Y-122658000D01*
X145694000Y-118008000D02*
X145694000Y-119658000D01*
X145694000Y-118008000D02*
X151994000Y-118008000D01*
X145694000Y-124308000D02*
X151994000Y-124308000D01*
D13*
X159520000Y-39712000D02*
X160520000Y-39712000D01*
X160520000Y-38012000D02*
X159520000Y-38012000D01*
D12*
X153868381Y-124896381D02*
X153392190Y-125229715D01*
X153868381Y-125467810D02*
X152868381Y-125467810D01*
X152868381Y-125086857D01*
X152916000Y-124991619D01*
X152963619Y-124944000D01*
X153058857Y-124896381D01*
X153201714Y-124896381D01*
X153296952Y-124944000D01*
X153344571Y-124991619D01*
X153392190Y-125086857D01*
X153392190Y-125467810D01*
X153344571Y-124467810D02*
X153344571Y-124134476D01*
X153868381Y-123991619D02*
X153868381Y-124467810D01*
X152868381Y-124467810D01*
X152868381Y-123991619D01*
X153820762Y-123610667D02*
X153868381Y-123467810D01*
X153868381Y-123229714D01*
X153820762Y-123134476D01*
X153773143Y-123086857D01*
X153677905Y-123039238D01*
X153582667Y-123039238D01*
X153487429Y-123086857D01*
X153439810Y-123134476D01*
X153392190Y-123229714D01*
X153344571Y-123420191D01*
X153296952Y-123515429D01*
X153249333Y-123563048D01*
X153154095Y-123610667D01*
X153058857Y-123610667D01*
X152963619Y-123563048D01*
X152916000Y-123515429D01*
X152868381Y-123420191D01*
X152868381Y-123182095D01*
X152916000Y-123039238D01*
X153344571Y-122610667D02*
X153344571Y-122277333D01*
X153868381Y-122134476D02*
X153868381Y-122610667D01*
X152868381Y-122610667D01*
X152868381Y-122134476D01*
X152868381Y-121848762D02*
X152868381Y-121277333D01*
X153868381Y-121563048D02*
X152868381Y-121563048D01*
X144121143Y-125348761D02*
X144168762Y-125396380D01*
X144216381Y-125539237D01*
X144216381Y-125634475D01*
X144168762Y-125777333D01*
X144073524Y-125872571D01*
X143978286Y-125920190D01*
X143787810Y-125967809D01*
X143644952Y-125967809D01*
X143454476Y-125920190D01*
X143359238Y-125872571D01*
X143264000Y-125777333D01*
X143216381Y-125634475D01*
X143216381Y-125539237D01*
X143264000Y-125396380D01*
X143311619Y-125348761D01*
X143216381Y-124729714D02*
X143216381Y-124539237D01*
X143264000Y-124443999D01*
X143359238Y-124348761D01*
X143549714Y-124301142D01*
X143883048Y-124301142D01*
X144073524Y-124348761D01*
X144168762Y-124443999D01*
X144216381Y-124539237D01*
X144216381Y-124729714D01*
X144168762Y-124824952D01*
X144073524Y-124920190D01*
X143883048Y-124967809D01*
X143549714Y-124967809D01*
X143359238Y-124920190D01*
X143264000Y-124824952D01*
X143216381Y-124729714D01*
X144216381Y-123872571D02*
X143216381Y-123872571D01*
X144216381Y-123301142D01*
X143216381Y-123301142D01*
X143692571Y-122491618D02*
X143692571Y-122824952D01*
X144216381Y-122824952D02*
X143216381Y-122824952D01*
X143216381Y-122348761D01*
X144216381Y-121967809D02*
X143216381Y-121967809D01*
X143264000Y-120967809D02*
X143216381Y-121063047D01*
X143216381Y-121205904D01*
X143264000Y-121348762D01*
X143359238Y-121444000D01*
X143454476Y-121491619D01*
X143644952Y-121539238D01*
X143787810Y-121539238D01*
X143978286Y-121491619D01*
X144073524Y-121444000D01*
X144168762Y-121348762D01*
X144216381Y-121205904D01*
X144216381Y-121110666D01*
X144168762Y-120967809D01*
X144121143Y-120920190D01*
X143787810Y-120920190D01*
X143787810Y-121110666D01*
X146581905Y-38044381D02*
X146581905Y-37044381D01*
X146820000Y-37044381D01*
X146962858Y-37092000D01*
X147058096Y-37187238D01*
X147105715Y-37282476D01*
X147153334Y-37472952D01*
X147153334Y-37615810D01*
X147105715Y-37806286D01*
X147058096Y-37901524D01*
X146962858Y-37996762D01*
X146820000Y-38044381D01*
X146581905Y-38044381D01*
X148105715Y-38044381D02*
X147534286Y-38044381D01*
X147820000Y-38044381D02*
X147820000Y-37044381D01*
X147724762Y-37187238D01*
X147629524Y-37282476D01*
X147534286Y-37330095D01*
X148867905Y-38044381D02*
X148867905Y-37044381D01*
X149106000Y-37044381D01*
X149248858Y-37092000D01*
X149344096Y-37187238D01*
X149391715Y-37282476D01*
X149439334Y-37472952D01*
X149439334Y-37615810D01*
X149391715Y-37806286D01*
X149344096Y-37901524D01*
X149248858Y-37996762D01*
X149106000Y-38044381D01*
X148867905Y-38044381D01*
X149820286Y-37139619D02*
X149867905Y-37092000D01*
X149963143Y-37044381D01*
X150201239Y-37044381D01*
X150296477Y-37092000D01*
X150344096Y-37139619D01*
X150391715Y-37234857D01*
X150391715Y-37330095D01*
X150344096Y-37472952D01*
X149772667Y-38044381D01*
X150391715Y-38044381D01*
X153249334Y-37536381D02*
X152916000Y-37060190D01*
X152677905Y-37536381D02*
X152677905Y-36536381D01*
X153058858Y-36536381D01*
X153154096Y-36584000D01*
X153201715Y-36631619D01*
X153249334Y-36726857D01*
X153249334Y-36869714D01*
X153201715Y-36964952D01*
X153154096Y-37012571D01*
X153058858Y-37060190D01*
X152677905Y-37060190D01*
X153630286Y-36631619D02*
X153677905Y-36584000D01*
X153773143Y-36536381D01*
X154011239Y-36536381D01*
X154106477Y-36584000D01*
X154154096Y-36631619D01*
X154201715Y-36726857D01*
X154201715Y-36822095D01*
X154154096Y-36964952D01*
X153582667Y-37536381D01*
X154201715Y-37536381D01*
X143089334Y-37536381D02*
X142756000Y-37060190D01*
X142517905Y-37536381D02*
X142517905Y-36536381D01*
X142898858Y-36536381D01*
X142994096Y-36584000D01*
X143041715Y-36631619D01*
X143089334Y-36726857D01*
X143089334Y-36869714D01*
X143041715Y-36964952D01*
X142994096Y-37012571D01*
X142898858Y-37060190D01*
X142517905Y-37060190D01*
X143422667Y-36536381D02*
X144041715Y-36536381D01*
X143708381Y-36917333D01*
X143851239Y-36917333D01*
X143946477Y-36964952D01*
X143994096Y-37012571D01*
X144041715Y-37107810D01*
X144041715Y-37345905D01*
X143994096Y-37441143D01*
X143946477Y-37488762D01*
X143851239Y-37536381D01*
X143565524Y-37536381D01*
X143470286Y-37488762D01*
X143422667Y-37441143D01*
D11*
X138303143Y-34710667D02*
X138779334Y-34710667D01*
X138207905Y-34996381D02*
X138541238Y-33996381D01*
X138874572Y-34996381D01*
X139207905Y-34996381D02*
X139207905Y-33996381D01*
X139779334Y-34996381D01*
X139779334Y-33996381D01*
X140112667Y-33996381D02*
X140684096Y-33996381D01*
X140398381Y-34996381D02*
X140398381Y-33996381D01*
D12*
X155638667Y-50315762D02*
X155781524Y-50363381D01*
X156019620Y-50363381D01*
X156114858Y-50315762D01*
X156162477Y-50268143D01*
X156210096Y-50172905D01*
X156210096Y-50077667D01*
X156162477Y-49982429D01*
X156114858Y-49934810D01*
X156019620Y-49887190D01*
X155829143Y-49839571D01*
X155733905Y-49791952D01*
X155686286Y-49744333D01*
X155638667Y-49649095D01*
X155638667Y-49553857D01*
X155686286Y-49458619D01*
X155733905Y-49411000D01*
X155829143Y-49363381D01*
X156067239Y-49363381D01*
X156210096Y-49411000D01*
X156543429Y-49363381D02*
X156781524Y-50363381D01*
X156972001Y-49649095D01*
X157162477Y-50363381D01*
X157400572Y-49363381D01*
X158305334Y-50363381D02*
X157733905Y-50363381D01*
X158019619Y-50363381D02*
X158019619Y-49363381D01*
X157924381Y-49506238D01*
X157829143Y-49601476D01*
X157733905Y-49649095D01*
X138620667Y-50315762D02*
X138763524Y-50363381D01*
X139001620Y-50363381D01*
X139096858Y-50315762D01*
X139144477Y-50268143D01*
X139192096Y-50172905D01*
X139192096Y-50077667D01*
X139144477Y-49982429D01*
X139096858Y-49934810D01*
X139001620Y-49887190D01*
X138811143Y-49839571D01*
X138715905Y-49791952D01*
X138668286Y-49744333D01*
X138620667Y-49649095D01*
X138620667Y-49553857D01*
X138668286Y-49458619D01*
X138715905Y-49411000D01*
X138811143Y-49363381D01*
X139049239Y-49363381D01*
X139192096Y-49411000D01*
X139525429Y-49363381D02*
X139763524Y-50363381D01*
X139954001Y-49649095D01*
X140144477Y-50363381D01*
X140382572Y-49363381D01*
X140715905Y-49458619D02*
X140763524Y-49411000D01*
X140858762Y-49363381D01*
X141096858Y-49363381D01*
X141192096Y-49411000D01*
X141239715Y-49458619D01*
X141287334Y-49553857D01*
X141287334Y-49649095D01*
X141239715Y-49791952D01*
X140668286Y-50363381D01*
X141287334Y-50363381D01*
X155638667Y-65301762D02*
X155781524Y-65349381D01*
X156019620Y-65349381D01*
X156114858Y-65301762D01*
X156162477Y-65254143D01*
X156210096Y-65158905D01*
X156210096Y-65063667D01*
X156162477Y-64968429D01*
X156114858Y-64920810D01*
X156019620Y-64873190D01*
X155829143Y-64825571D01*
X155733905Y-64777952D01*
X155686286Y-64730333D01*
X155638667Y-64635095D01*
X155638667Y-64539857D01*
X155686286Y-64444619D01*
X155733905Y-64397000D01*
X155829143Y-64349381D01*
X156067239Y-64349381D01*
X156210096Y-64397000D01*
X156543429Y-64349381D02*
X156781524Y-65349381D01*
X156972001Y-64635095D01*
X157162477Y-65349381D01*
X157400572Y-64349381D01*
X157686286Y-64349381D02*
X158305334Y-64349381D01*
X157972000Y-64730333D01*
X158114858Y-64730333D01*
X158210096Y-64777952D01*
X158257715Y-64825571D01*
X158305334Y-64920810D01*
X158305334Y-65158905D01*
X158257715Y-65254143D01*
X158210096Y-65301762D01*
X158114858Y-65349381D01*
X157829143Y-65349381D01*
X157733905Y-65301762D01*
X157686286Y-65254143D01*
X138493667Y-65301762D02*
X138636524Y-65349381D01*
X138874620Y-65349381D01*
X138969858Y-65301762D01*
X139017477Y-65254143D01*
X139065096Y-65158905D01*
X139065096Y-65063667D01*
X139017477Y-64968429D01*
X138969858Y-64920810D01*
X138874620Y-64873190D01*
X138684143Y-64825571D01*
X138588905Y-64777952D01*
X138541286Y-64730333D01*
X138493667Y-64635095D01*
X138493667Y-64539857D01*
X138541286Y-64444619D01*
X138588905Y-64397000D01*
X138684143Y-64349381D01*
X138922239Y-64349381D01*
X139065096Y-64397000D01*
X139398429Y-64349381D02*
X139636524Y-65349381D01*
X139827001Y-64635095D01*
X140017477Y-65349381D01*
X140255572Y-64349381D01*
X141065096Y-64682714D02*
X141065096Y-65349381D01*
X140827000Y-64301762D02*
X140588905Y-65016048D01*
X141207953Y-65016048D01*
X155638667Y-80287762D02*
X155781524Y-80335381D01*
X156019620Y-80335381D01*
X156114858Y-80287762D01*
X156162477Y-80240143D01*
X156210096Y-80144905D01*
X156210096Y-80049667D01*
X156162477Y-79954429D01*
X156114858Y-79906810D01*
X156019620Y-79859190D01*
X155829143Y-79811571D01*
X155733905Y-79763952D01*
X155686286Y-79716333D01*
X155638667Y-79621095D01*
X155638667Y-79525857D01*
X155686286Y-79430619D01*
X155733905Y-79383000D01*
X155829143Y-79335381D01*
X156067239Y-79335381D01*
X156210096Y-79383000D01*
X156543429Y-79335381D02*
X156781524Y-80335381D01*
X156972001Y-79621095D01*
X157162477Y-80335381D01*
X157400572Y-79335381D01*
X158257715Y-79335381D02*
X157781524Y-79335381D01*
X157733905Y-79811571D01*
X157781524Y-79763952D01*
X157876762Y-79716333D01*
X158114858Y-79716333D01*
X158210096Y-79763952D01*
X158257715Y-79811571D01*
X158305334Y-79906810D01*
X158305334Y-80144905D01*
X158257715Y-80240143D01*
X158210096Y-80287762D01*
X158114858Y-80335381D01*
X157876762Y-80335381D01*
X157781524Y-80287762D01*
X157733905Y-80240143D01*
X138747667Y-80287762D02*
X138890524Y-80335381D01*
X139128620Y-80335381D01*
X139223858Y-80287762D01*
X139271477Y-80240143D01*
X139319096Y-80144905D01*
X139319096Y-80049667D01*
X139271477Y-79954429D01*
X139223858Y-79906810D01*
X139128620Y-79859190D01*
X138938143Y-79811571D01*
X138842905Y-79763952D01*
X138795286Y-79716333D01*
X138747667Y-79621095D01*
X138747667Y-79525857D01*
X138795286Y-79430619D01*
X138842905Y-79383000D01*
X138938143Y-79335381D01*
X139176239Y-79335381D01*
X139319096Y-79383000D01*
X139652429Y-79335381D02*
X139890524Y-80335381D01*
X140081001Y-79621095D01*
X140271477Y-80335381D01*
X140509572Y-79335381D01*
X141319096Y-79335381D02*
X141128619Y-79335381D01*
X141033381Y-79383000D01*
X140985762Y-79430619D01*
X140890524Y-79573476D01*
X140842905Y-79763952D01*
X140842905Y-80144905D01*
X140890524Y-80240143D01*
X140938143Y-80287762D01*
X141033381Y-80335381D01*
X141223858Y-80335381D01*
X141319096Y-80287762D01*
X141366715Y-80240143D01*
X141414334Y-80144905D01*
X141414334Y-79906810D01*
X141366715Y-79811571D01*
X141319096Y-79763952D01*
X141223858Y-79716333D01*
X141033381Y-79716333D01*
X140938143Y-79763952D01*
X140890524Y-79811571D01*
X140842905Y-79906810D01*
X155638667Y-95273762D02*
X155781524Y-95321381D01*
X156019620Y-95321381D01*
X156114858Y-95273762D01*
X156162477Y-95226143D01*
X156210096Y-95130905D01*
X156210096Y-95035667D01*
X156162477Y-94940429D01*
X156114858Y-94892810D01*
X156019620Y-94845190D01*
X155829143Y-94797571D01*
X155733905Y-94749952D01*
X155686286Y-94702333D01*
X155638667Y-94607095D01*
X155638667Y-94511857D01*
X155686286Y-94416619D01*
X155733905Y-94369000D01*
X155829143Y-94321381D01*
X156067239Y-94321381D01*
X156210096Y-94369000D01*
X156543429Y-94321381D02*
X156781524Y-95321381D01*
X156972001Y-94607095D01*
X157162477Y-95321381D01*
X157400572Y-94321381D01*
X157686286Y-94321381D02*
X158352953Y-94321381D01*
X157924381Y-95321381D01*
X138493667Y-95273762D02*
X138636524Y-95321381D01*
X138874620Y-95321381D01*
X138969858Y-95273762D01*
X139017477Y-95226143D01*
X139065096Y-95130905D01*
X139065096Y-95035667D01*
X139017477Y-94940429D01*
X138969858Y-94892810D01*
X138874620Y-94845190D01*
X138684143Y-94797571D01*
X138588905Y-94749952D01*
X138541286Y-94702333D01*
X138493667Y-94607095D01*
X138493667Y-94511857D01*
X138541286Y-94416619D01*
X138588905Y-94369000D01*
X138684143Y-94321381D01*
X138922239Y-94321381D01*
X139065096Y-94369000D01*
X139398429Y-94321381D02*
X139636524Y-95321381D01*
X139827001Y-94607095D01*
X140017477Y-95321381D01*
X140255572Y-94321381D01*
X140779381Y-94749952D02*
X140684143Y-94702333D01*
X140636524Y-94654714D01*
X140588905Y-94559476D01*
X140588905Y-94511857D01*
X140636524Y-94416619D01*
X140684143Y-94369000D01*
X140779381Y-94321381D01*
X140969858Y-94321381D01*
X141065096Y-94369000D01*
X141112715Y-94416619D01*
X141160334Y-94511857D01*
X141160334Y-94559476D01*
X141112715Y-94654714D01*
X141065096Y-94702333D01*
X140969858Y-94749952D01*
X140779381Y-94749952D01*
X140684143Y-94797571D01*
X140636524Y-94845190D01*
X140588905Y-94940429D01*
X140588905Y-95130905D01*
X140636524Y-95226143D01*
X140684143Y-95273762D01*
X140779381Y-95321381D01*
X140969858Y-95321381D01*
X141065096Y-95273762D01*
X141112715Y-95226143D01*
X141160334Y-95130905D01*
X141160334Y-94940429D01*
X141112715Y-94845190D01*
X141065096Y-94797571D01*
X140969858Y-94749952D01*
X155638667Y-110386762D02*
X155781524Y-110434381D01*
X156019620Y-110434381D01*
X156114858Y-110386762D01*
X156162477Y-110339143D01*
X156210096Y-110243905D01*
X156210096Y-110148667D01*
X156162477Y-110053429D01*
X156114858Y-110005810D01*
X156019620Y-109958190D01*
X155829143Y-109910571D01*
X155733905Y-109862952D01*
X155686286Y-109815333D01*
X155638667Y-109720095D01*
X155638667Y-109624857D01*
X155686286Y-109529619D01*
X155733905Y-109482000D01*
X155829143Y-109434381D01*
X156067239Y-109434381D01*
X156210096Y-109482000D01*
X156543429Y-109434381D02*
X156781524Y-110434381D01*
X156972001Y-109720095D01*
X157162477Y-110434381D01*
X157400572Y-109434381D01*
X157829143Y-110434381D02*
X158019619Y-110434381D01*
X158114858Y-110386762D01*
X158162477Y-110339143D01*
X158257715Y-110196286D01*
X158305334Y-110005810D01*
X158305334Y-109624857D01*
X158257715Y-109529619D01*
X158210096Y-109482000D01*
X158114858Y-109434381D01*
X157924381Y-109434381D01*
X157829143Y-109482000D01*
X157781524Y-109529619D01*
X157733905Y-109624857D01*
X157733905Y-109862952D01*
X157781524Y-109958190D01*
X157829143Y-110005810D01*
X157924381Y-110053429D01*
X158114858Y-110053429D01*
X158210096Y-110005810D01*
X158257715Y-109958190D01*
X158305334Y-109862952D01*
X138144476Y-110386762D02*
X138287333Y-110434381D01*
X138525429Y-110434381D01*
X138620667Y-110386762D01*
X138668286Y-110339143D01*
X138715905Y-110243905D01*
X138715905Y-110148667D01*
X138668286Y-110053429D01*
X138620667Y-110005810D01*
X138525429Y-109958190D01*
X138334952Y-109910571D01*
X138239714Y-109862952D01*
X138192095Y-109815333D01*
X138144476Y-109720095D01*
X138144476Y-109624857D01*
X138192095Y-109529619D01*
X138239714Y-109482000D01*
X138334952Y-109434381D01*
X138573048Y-109434381D01*
X138715905Y-109482000D01*
X139049238Y-109434381D02*
X139287333Y-110434381D01*
X139477810Y-109720095D01*
X139668286Y-110434381D01*
X139906381Y-109434381D01*
X140811143Y-110434381D02*
X140239714Y-110434381D01*
X140525428Y-110434381D02*
X140525428Y-109434381D01*
X140430190Y-109577238D01*
X140334952Y-109672476D01*
X140239714Y-109720095D01*
X141430190Y-109434381D02*
X141525429Y-109434381D01*
X141620667Y-109482000D01*
X141668286Y-109529619D01*
X141715905Y-109624857D01*
X141763524Y-109815333D01*
X141763524Y-110053429D01*
X141715905Y-110243905D01*
X141668286Y-110339143D01*
X141620667Y-110386762D01*
X141525429Y-110434381D01*
X141430190Y-110434381D01*
X141334952Y-110386762D01*
X141287333Y-110339143D01*
X141239714Y-110243905D01*
X141192095Y-110053429D01*
X141192095Y-109815333D01*
X141239714Y-109624857D01*
X141287333Y-109529619D01*
X141334952Y-109482000D01*
X141430190Y-109434381D01*
X148677334Y-117165381D02*
X148201143Y-117165381D01*
X148201143Y-116165381D01*
X149534477Y-117165381D02*
X148963048Y-117165381D01*
X149248762Y-117165381D02*
X149248762Y-116165381D01*
X149153524Y-116308238D01*
X149058286Y-116403476D01*
X148963048Y-116451095D01*
X159853334Y-40969143D02*
X159805715Y-41016762D01*
X159662858Y-41064381D01*
X159567620Y-41064381D01*
X159424762Y-41016762D01*
X159329524Y-40921524D01*
X159281905Y-40826286D01*
X159234286Y-40635810D01*
X159234286Y-40492952D01*
X159281905Y-40302476D01*
X159329524Y-40207238D01*
X159424762Y-40112000D01*
X159567620Y-40064381D01*
X159662858Y-40064381D01*
X159805715Y-40112000D01*
X159853334Y-40159619D01*
X160186667Y-40064381D02*
X160853334Y-40064381D01*
X160424762Y-41064381D01*
M02*
