G04 #@! TF.FileFunction,Copper,L1,Top,Signal*
%FSLAX46Y46*%
G04 Gerber Fmt 4.6, Leading zero omitted, Abs format (unit mm)*
G04 Created by KiCad (PCBNEW 4.0.2-stable) date 15.03.2017 10:40:45*
%MOMM*%
G01*
G04 APERTURE LIST*
%ADD10C,0.100000*%
%ADD11C,0.150000*%
%ADD12C,1.397000*%
%ADD13R,1.397000X1.397000*%
%ADD14R,1.600000X2.180000*%
%ADD15R,1.500000X2.000000*%
%ADD16R,1.300000X1.500000*%
%ADD17C,1.600000*%
%ADD18R,1.600000X1.600000*%
%ADD19R,1.550000X1.300000*%
%ADD20R,1.500000X2.400000*%
%ADD21R,1.500000X1.250000*%
%ADD22C,0.600000*%
%ADD23C,0.400000*%
%ADD24C,0.250000*%
%ADD25C,0.600000*%
%ADD26C,0.254000*%
G04 APERTURE END LIST*
D10*
D11*
X166000000Y-128000000D02*
X166000000Y-30000000D01*
X131000000Y-30000000D02*
X131000000Y-128000000D01*
X131000000Y-30000000D02*
X166000000Y-30000000D01*
X134000000Y-128000000D02*
X131000000Y-128000000D01*
X166000000Y-128000000D02*
X163000000Y-128000000D01*
X134000000Y-130000000D02*
X134000000Y-128000000D01*
X163000000Y-130000000D02*
X134000000Y-130000000D01*
X163000000Y-128000000D02*
X163000000Y-130000000D01*
D12*
X164277040Y-49022000D03*
X164398960Y-46482000D03*
X164398960Y-51562000D03*
X164277040Y-43942000D03*
X164277040Y-54102000D03*
X164398960Y-41402000D03*
D13*
X164398960Y-56642000D03*
D12*
X164277040Y-38862000D03*
D14*
X155958320Y-118841570D03*
X155953680Y-128046430D03*
X140972320Y-118841570D03*
X140967680Y-128046430D03*
D15*
X147500000Y-32600000D03*
X147500000Y-35400000D03*
X149500000Y-32600000D03*
X149500000Y-35400000D03*
D16*
X153500000Y-32650000D03*
X153500000Y-35350000D03*
X143500000Y-32650000D03*
X143500000Y-35350000D03*
D17*
X138938000Y-32512000D03*
D18*
X150270000Y-127000000D03*
D17*
X147730000Y-127000000D03*
D19*
X152992000Y-56225000D03*
X152992000Y-51725000D03*
X160952000Y-51725000D03*
X160952000Y-56225000D03*
X143934000Y-51725000D03*
X143934000Y-56225000D03*
X135974000Y-56225000D03*
X135974000Y-51725000D03*
X152992000Y-71211000D03*
X152992000Y-66711000D03*
X160952000Y-66711000D03*
X160952000Y-71211000D03*
X143934000Y-66711000D03*
X143934000Y-71211000D03*
X135974000Y-71211000D03*
X135974000Y-66711000D03*
X152992000Y-86197000D03*
X152992000Y-81697000D03*
X160952000Y-81697000D03*
X160952000Y-86197000D03*
X143934000Y-81697000D03*
X143934000Y-86197000D03*
X135974000Y-86197000D03*
X135974000Y-81697000D03*
X152992000Y-101183000D03*
X152992000Y-96683000D03*
X160952000Y-96683000D03*
X160952000Y-101183000D03*
X143934000Y-96683000D03*
X143934000Y-101183000D03*
X135974000Y-101183000D03*
X135974000Y-96683000D03*
X152992000Y-116296000D03*
X152992000Y-111796000D03*
X160952000Y-111796000D03*
X160952000Y-116296000D03*
X143934000Y-111796000D03*
X143934000Y-116296000D03*
X135974000Y-116296000D03*
X135974000Y-111796000D03*
D20*
X146094000Y-121158000D03*
X151594000Y-121158000D03*
D21*
X161270000Y-38862000D03*
X158770000Y-38862000D03*
D22*
X153289000Y-58547000D03*
X145542000Y-35814000D03*
X140208000Y-113538000D03*
X140208000Y-106426000D03*
X150495000Y-55372000D03*
X150495000Y-62230000D03*
X140970000Y-107950000D03*
X157226000Y-107950000D03*
X134366000Y-57785000D03*
X148844000Y-62230000D03*
X149733000Y-111950500D03*
X148907500Y-111950500D03*
X156464000Y-108839000D03*
X147256500Y-97917000D03*
X148844000Y-83756500D03*
X146494500Y-98615500D03*
X151257000Y-107569000D03*
X150495000Y-108013500D03*
X147320000Y-111950500D03*
X146558000Y-108712000D03*
X157988000Y-107188000D03*
X151892000Y-118364000D03*
X151638000Y-119380000D03*
X146050000Y-119380000D03*
X148082000Y-103187500D03*
D23*
X143500000Y-32650000D02*
X147200000Y-32650000D01*
D24*
X147200000Y-32650000D02*
X147500000Y-32350000D01*
D23*
X153500000Y-32650000D02*
X149800000Y-32650000D01*
D24*
X149800000Y-32650000D02*
X149500000Y-32350000D01*
D23*
X152992000Y-58250000D02*
X152992000Y-56225000D01*
X153289000Y-58547000D02*
X152992000Y-58250000D01*
D25*
X147500000Y-35650000D02*
X145706000Y-35650000D01*
X145706000Y-35650000D02*
X145542000Y-35814000D01*
X147500000Y-35650000D02*
X149500000Y-35650000D01*
D23*
X140208000Y-113538000D02*
X140208000Y-106426000D01*
X150495000Y-62230000D02*
X150495000Y-55372000D01*
D24*
X143500000Y-35350000D02*
X143500000Y-35570000D01*
D23*
X143500000Y-35570000D02*
X140970000Y-38100000D01*
X140970000Y-38100000D02*
X140970000Y-107950000D01*
X152992000Y-51725000D02*
X155865000Y-51725000D01*
X157226000Y-53086000D02*
X157226000Y-107950000D01*
X155865000Y-51725000D02*
X157226000Y-53086000D01*
X134366000Y-57785000D02*
X135926000Y-56225000D01*
X135926000Y-56225000D02*
X135974000Y-56225000D01*
X148844000Y-62230000D02*
X148844000Y-42164000D01*
X148844000Y-42164000D02*
X149098000Y-41910000D01*
X153500000Y-35350000D02*
X153500000Y-37508000D01*
X153500000Y-37508000D02*
X149098000Y-41910000D01*
X149733000Y-111950500D02*
X152837500Y-111950500D01*
X152837500Y-111950500D02*
X152992000Y-111796000D01*
D24*
X153020000Y-111750000D02*
X152918000Y-111750000D01*
D23*
X143934000Y-116296000D02*
X144498500Y-116296000D01*
X144498500Y-116296000D02*
X148907500Y-111950500D01*
D24*
X143980000Y-116250000D02*
X144608000Y-116250000D01*
D23*
X152992000Y-66711000D02*
X155103000Y-66711000D01*
X156464000Y-68072000D02*
X156464000Y-108839000D01*
X155103000Y-66711000D02*
X156464000Y-68072000D01*
X143934000Y-71211000D02*
X143982000Y-71211000D01*
X143982000Y-71211000D02*
X147256500Y-74485500D01*
X147256500Y-74485500D02*
X147256500Y-97917000D01*
X152992000Y-81697000D02*
X150903500Y-81697000D01*
X150903500Y-81697000D02*
X148844000Y-83756500D01*
X143934000Y-86197000D02*
X144045500Y-86197000D01*
X144045500Y-86197000D02*
X146494500Y-88646000D01*
X146494500Y-88646000D02*
X146494500Y-98615500D01*
X152992000Y-96683000D02*
X152935500Y-96683000D01*
X152935500Y-96683000D02*
X151257000Y-98361500D01*
X151257000Y-98361500D02*
X151257000Y-107569000D01*
D24*
X153020000Y-96750000D02*
X153392000Y-96750000D01*
D23*
X149352000Y-102108000D02*
X150495000Y-103251000D01*
X150495000Y-103251000D02*
X150495000Y-108013500D01*
X143934000Y-101183000D02*
X148427000Y-101183000D01*
X148427000Y-101183000D02*
X149352000Y-102108000D01*
D24*
X143980000Y-101250000D02*
X144430000Y-101250000D01*
D23*
X159512000Y-109728000D02*
X158750000Y-110490000D01*
X164398960Y-51562000D02*
X163322000Y-51562000D01*
X148844000Y-110490000D02*
X147320000Y-111950500D01*
X158750000Y-110490000D02*
X148844000Y-110490000D01*
X159512000Y-54356000D02*
X159512000Y-109728000D01*
X161036000Y-53086000D02*
X159512000Y-54356000D01*
X161798000Y-53086000D02*
X161036000Y-53086000D01*
X163322000Y-51562000D02*
X161798000Y-53086000D01*
X156718000Y-109728000D02*
X157988000Y-109728000D01*
X157988000Y-109728000D02*
X158750000Y-108966000D01*
D24*
X158750000Y-108966000D02*
X157988000Y-109728000D01*
D23*
X164277040Y-49022000D02*
X160020000Y-49022000D01*
X147574000Y-109728000D02*
X146558000Y-108712000D01*
X156718000Y-109728000D02*
X147574000Y-109728000D01*
X160020000Y-49022000D02*
X158750000Y-50038000D01*
X158750000Y-50038000D02*
X158750000Y-108966000D01*
D24*
X158770000Y-38862000D02*
X157988000Y-38862000D01*
D23*
X157988000Y-38862000D02*
X157988000Y-107188000D01*
X151892000Y-118364000D02*
X155480750Y-118364000D01*
D24*
X155480750Y-118364000D02*
X155958320Y-118841570D01*
X150270000Y-127000000D02*
X150270000Y-126590000D01*
D23*
X150270000Y-126590000D02*
X151594000Y-125266000D01*
X151594000Y-125266000D02*
X151594000Y-121158000D01*
X151638000Y-119380000D02*
X151594000Y-121158000D01*
X146050000Y-119380000D02*
X146094000Y-121158000D01*
X164277040Y-38862000D02*
X161270000Y-38862000D01*
X141033500Y-110236000D02*
X141033500Y-118780390D01*
X148082000Y-103187500D02*
X141033500Y-110236000D01*
X141033500Y-118780390D02*
X140972320Y-118841570D01*
D26*
G36*
X140135000Y-105490936D02*
X140022833Y-105490838D01*
X139679057Y-105632883D01*
X139415808Y-105895673D01*
X139273162Y-106239201D01*
X139272838Y-106611167D01*
X139373000Y-106853578D01*
X139373000Y-113110766D01*
X139273162Y-113351201D01*
X139272838Y-113723167D01*
X139414883Y-114066943D01*
X139677673Y-114330192D01*
X140021201Y-114472838D01*
X140198500Y-114472992D01*
X140198500Y-117104130D01*
X140172320Y-117104130D01*
X139937003Y-117148408D01*
X139720879Y-117287480D01*
X139575889Y-117499680D01*
X139524880Y-117751570D01*
X139524880Y-119931570D01*
X139569158Y-120166887D01*
X139708230Y-120383011D01*
X139920430Y-120528001D01*
X140172320Y-120579010D01*
X141772320Y-120579010D01*
X142007637Y-120534732D01*
X142223761Y-120395660D01*
X142368751Y-120183460D01*
X142414407Y-119958000D01*
X144696560Y-119958000D01*
X144696560Y-122358000D01*
X144740838Y-122593317D01*
X144879910Y-122809441D01*
X145092110Y-122954431D01*
X145344000Y-123005440D01*
X146844000Y-123005440D01*
X147079317Y-122961162D01*
X147295441Y-122822090D01*
X147440431Y-122609890D01*
X147491440Y-122358000D01*
X147491440Y-119958000D01*
X147447162Y-119722683D01*
X147308090Y-119506559D01*
X147095890Y-119361569D01*
X146985036Y-119339121D01*
X146985162Y-119194833D01*
X146843117Y-118851057D01*
X146580327Y-118587808D01*
X146236799Y-118445162D01*
X145864833Y-118444838D01*
X145521057Y-118586883D01*
X145257808Y-118849673D01*
X145115162Y-119193201D01*
X145115022Y-119353645D01*
X145108683Y-119354838D01*
X144892559Y-119493910D01*
X144747569Y-119706110D01*
X144696560Y-119958000D01*
X142414407Y-119958000D01*
X142419760Y-119931570D01*
X142419760Y-117751570D01*
X142375482Y-117516253D01*
X142236410Y-117300129D01*
X142024210Y-117155139D01*
X141868500Y-117123607D01*
X141868500Y-112081750D01*
X142524000Y-112081750D01*
X142524000Y-112572310D01*
X142620673Y-112805699D01*
X142799302Y-112984327D01*
X143032691Y-113081000D01*
X143648250Y-113081000D01*
X143807000Y-112922250D01*
X143807000Y-111923000D01*
X144061000Y-111923000D01*
X144061000Y-112922250D01*
X144219750Y-113081000D01*
X144835309Y-113081000D01*
X145068698Y-112984327D01*
X145247327Y-112805699D01*
X145344000Y-112572310D01*
X145344000Y-112081750D01*
X145185250Y-111923000D01*
X144061000Y-111923000D01*
X143807000Y-111923000D01*
X142682750Y-111923000D01*
X142524000Y-112081750D01*
X141868500Y-112081750D01*
X141868500Y-111019690D01*
X142524000Y-111019690D01*
X142524000Y-111510250D01*
X142682750Y-111669000D01*
X143807000Y-111669000D01*
X143807000Y-110669750D01*
X144061000Y-110669750D01*
X144061000Y-111669000D01*
X145185250Y-111669000D01*
X145344000Y-111510250D01*
X145344000Y-111019690D01*
X145247327Y-110786301D01*
X145068698Y-110607673D01*
X144835309Y-110511000D01*
X144219750Y-110511000D01*
X144061000Y-110669750D01*
X143807000Y-110669750D01*
X143648250Y-110511000D01*
X143032691Y-110511000D01*
X142799302Y-110607673D01*
X142620673Y-110786301D01*
X142524000Y-111019690D01*
X141868500Y-111019690D01*
X141868500Y-110581868D01*
X148370333Y-104080035D01*
X148610943Y-103980617D01*
X148874192Y-103717827D01*
X149016838Y-103374299D01*
X149017162Y-103002333D01*
X148983150Y-102920018D01*
X149660000Y-103596868D01*
X149660000Y-107586266D01*
X149560162Y-107826701D01*
X149559838Y-108198667D01*
X149701883Y-108542443D01*
X149964673Y-108805692D01*
X150174933Y-108893000D01*
X147919868Y-108893000D01*
X147450535Y-108423667D01*
X147351117Y-108183057D01*
X147088327Y-107919808D01*
X146744799Y-107777162D01*
X146372833Y-107776838D01*
X146029057Y-107918883D01*
X145765808Y-108181673D01*
X145623162Y-108525201D01*
X145622838Y-108897167D01*
X145764883Y-109240943D01*
X146027673Y-109504192D01*
X146269910Y-109604778D01*
X146983566Y-110318434D01*
X147254459Y-110499439D01*
X147563246Y-110560861D01*
X147054277Y-111048623D01*
X146791057Y-111157383D01*
X146527808Y-111420173D01*
X146385162Y-111763701D01*
X146384838Y-112135667D01*
X146526883Y-112479443D01*
X146789673Y-112742692D01*
X146877291Y-112779074D01*
X144625372Y-114998560D01*
X143159000Y-114998560D01*
X142923683Y-115042838D01*
X142707559Y-115181910D01*
X142562569Y-115394110D01*
X142511560Y-115646000D01*
X142511560Y-116946000D01*
X142555838Y-117181317D01*
X142694910Y-117397441D01*
X142907110Y-117542431D01*
X143159000Y-117593440D01*
X144709000Y-117593440D01*
X144944317Y-117549162D01*
X145160441Y-117410090D01*
X145305431Y-117197890D01*
X145356440Y-116946000D01*
X145356440Y-116622812D01*
X146475681Y-115519690D01*
X151582000Y-115519690D01*
X151582000Y-116010250D01*
X151740750Y-116169000D01*
X152865000Y-116169000D01*
X152865000Y-115169750D01*
X153119000Y-115169750D01*
X153119000Y-116169000D01*
X154243250Y-116169000D01*
X154402000Y-116010250D01*
X154402000Y-115519690D01*
X159542000Y-115519690D01*
X159542000Y-116010250D01*
X159700750Y-116169000D01*
X160825000Y-116169000D01*
X160825000Y-115169750D01*
X161079000Y-115169750D01*
X161079000Y-116169000D01*
X162203250Y-116169000D01*
X162362000Y-116010250D01*
X162362000Y-115519690D01*
X162265327Y-115286301D01*
X162086698Y-115107673D01*
X161853309Y-115011000D01*
X161237750Y-115011000D01*
X161079000Y-115169750D01*
X160825000Y-115169750D01*
X160666250Y-115011000D01*
X160050691Y-115011000D01*
X159817302Y-115107673D01*
X159638673Y-115286301D01*
X159542000Y-115519690D01*
X154402000Y-115519690D01*
X154305327Y-115286301D01*
X154126698Y-115107673D01*
X153893309Y-115011000D01*
X153277750Y-115011000D01*
X153119000Y-115169750D01*
X152865000Y-115169750D01*
X152706250Y-115011000D01*
X152090691Y-115011000D01*
X151857302Y-115107673D01*
X151678673Y-115286301D01*
X151582000Y-115519690D01*
X146475681Y-115519690D01*
X149188286Y-112846153D01*
X149320386Y-112791571D01*
X149546201Y-112885338D01*
X149918167Y-112885662D01*
X150160578Y-112785500D01*
X151680878Y-112785500D01*
X151752910Y-112897441D01*
X151965110Y-113042431D01*
X152217000Y-113093440D01*
X153767000Y-113093440D01*
X154002317Y-113049162D01*
X154218441Y-112910090D01*
X154363431Y-112697890D01*
X154414440Y-112446000D01*
X154414440Y-111325000D01*
X158750000Y-111325000D01*
X159069541Y-111261439D01*
X159340434Y-111080434D01*
X159696654Y-110724214D01*
X159580569Y-110894110D01*
X159529560Y-111146000D01*
X159529560Y-112446000D01*
X159573838Y-112681317D01*
X159712910Y-112897441D01*
X159925110Y-113042431D01*
X160177000Y-113093440D01*
X161727000Y-113093440D01*
X161962317Y-113049162D01*
X162178441Y-112910090D01*
X162323431Y-112697890D01*
X162374440Y-112446000D01*
X162374440Y-111146000D01*
X162330162Y-110910683D01*
X162191090Y-110694559D01*
X161978890Y-110549569D01*
X161727000Y-110498560D01*
X160177000Y-110498560D01*
X159941683Y-110542838D01*
X159763142Y-110657726D01*
X160102434Y-110318434D01*
X160283440Y-110047540D01*
X160347000Y-109728000D01*
X160347000Y-102468000D01*
X160666250Y-102468000D01*
X160825000Y-102309250D01*
X160825000Y-101310000D01*
X161079000Y-101310000D01*
X161079000Y-102309250D01*
X161237750Y-102468000D01*
X161853309Y-102468000D01*
X162086698Y-102371327D01*
X162265327Y-102192699D01*
X162362000Y-101959310D01*
X162362000Y-101468750D01*
X162203250Y-101310000D01*
X161079000Y-101310000D01*
X160825000Y-101310000D01*
X160805000Y-101310000D01*
X160805000Y-101056000D01*
X160825000Y-101056000D01*
X160825000Y-100056750D01*
X161079000Y-100056750D01*
X161079000Y-101056000D01*
X162203250Y-101056000D01*
X162362000Y-100897250D01*
X162362000Y-100406690D01*
X162265327Y-100173301D01*
X162086698Y-99994673D01*
X161853309Y-99898000D01*
X161237750Y-99898000D01*
X161079000Y-100056750D01*
X160825000Y-100056750D01*
X160666250Y-99898000D01*
X160347000Y-99898000D01*
X160347000Y-97980440D01*
X161727000Y-97980440D01*
X161962317Y-97936162D01*
X162178441Y-97797090D01*
X162323431Y-97584890D01*
X162374440Y-97333000D01*
X162374440Y-96033000D01*
X162330162Y-95797683D01*
X162191090Y-95581559D01*
X161978890Y-95436569D01*
X161727000Y-95385560D01*
X160347000Y-95385560D01*
X160347000Y-87482000D01*
X160666250Y-87482000D01*
X160825000Y-87323250D01*
X160825000Y-86324000D01*
X161079000Y-86324000D01*
X161079000Y-87323250D01*
X161237750Y-87482000D01*
X161853309Y-87482000D01*
X162086698Y-87385327D01*
X162265327Y-87206699D01*
X162362000Y-86973310D01*
X162362000Y-86482750D01*
X162203250Y-86324000D01*
X161079000Y-86324000D01*
X160825000Y-86324000D01*
X160805000Y-86324000D01*
X160805000Y-86070000D01*
X160825000Y-86070000D01*
X160825000Y-85070750D01*
X161079000Y-85070750D01*
X161079000Y-86070000D01*
X162203250Y-86070000D01*
X162362000Y-85911250D01*
X162362000Y-85420690D01*
X162265327Y-85187301D01*
X162086698Y-85008673D01*
X161853309Y-84912000D01*
X161237750Y-84912000D01*
X161079000Y-85070750D01*
X160825000Y-85070750D01*
X160666250Y-84912000D01*
X160347000Y-84912000D01*
X160347000Y-82994440D01*
X161727000Y-82994440D01*
X161962317Y-82950162D01*
X162178441Y-82811090D01*
X162323431Y-82598890D01*
X162374440Y-82347000D01*
X162374440Y-81047000D01*
X162330162Y-80811683D01*
X162191090Y-80595559D01*
X161978890Y-80450569D01*
X161727000Y-80399560D01*
X160347000Y-80399560D01*
X160347000Y-72496000D01*
X160666250Y-72496000D01*
X160825000Y-72337250D01*
X160825000Y-71338000D01*
X161079000Y-71338000D01*
X161079000Y-72337250D01*
X161237750Y-72496000D01*
X161853309Y-72496000D01*
X162086698Y-72399327D01*
X162265327Y-72220699D01*
X162362000Y-71987310D01*
X162362000Y-71496750D01*
X162203250Y-71338000D01*
X161079000Y-71338000D01*
X160825000Y-71338000D01*
X160805000Y-71338000D01*
X160805000Y-71084000D01*
X160825000Y-71084000D01*
X160825000Y-70084750D01*
X161079000Y-70084750D01*
X161079000Y-71084000D01*
X162203250Y-71084000D01*
X162362000Y-70925250D01*
X162362000Y-70434690D01*
X162265327Y-70201301D01*
X162086698Y-70022673D01*
X161853309Y-69926000D01*
X161237750Y-69926000D01*
X161079000Y-70084750D01*
X160825000Y-70084750D01*
X160666250Y-69926000D01*
X160347000Y-69926000D01*
X160347000Y-68008440D01*
X161727000Y-68008440D01*
X161962317Y-67964162D01*
X162178441Y-67825090D01*
X162323431Y-67612890D01*
X162374440Y-67361000D01*
X162374440Y-66061000D01*
X162330162Y-65825683D01*
X162191090Y-65609559D01*
X161978890Y-65464569D01*
X161727000Y-65413560D01*
X160347000Y-65413560D01*
X160347000Y-57510000D01*
X160666250Y-57510000D01*
X160825000Y-57351250D01*
X160825000Y-56352000D01*
X161079000Y-56352000D01*
X161079000Y-57351250D01*
X161237750Y-57510000D01*
X161853309Y-57510000D01*
X162086698Y-57413327D01*
X162265327Y-57234699D01*
X162362000Y-57001310D01*
X162362000Y-56510750D01*
X162203250Y-56352000D01*
X161079000Y-56352000D01*
X160825000Y-56352000D01*
X160805000Y-56352000D01*
X160805000Y-56098000D01*
X160825000Y-56098000D01*
X160825000Y-55098750D01*
X161079000Y-55098750D01*
X161079000Y-56098000D01*
X162203250Y-56098000D01*
X162362000Y-55939250D01*
X162362000Y-55448690D01*
X162265327Y-55215301D01*
X162086698Y-55036673D01*
X161853309Y-54940000D01*
X161237750Y-54940000D01*
X161079000Y-55098750D01*
X160825000Y-55098750D01*
X160666250Y-54940000D01*
X160347000Y-54940000D01*
X160347000Y-54747093D01*
X161338312Y-53921000D01*
X161798000Y-53921000D01*
X161855914Y-53909480D01*
X162931113Y-53909480D01*
X162959892Y-54439199D01*
X163107240Y-54794929D01*
X163342852Y-54856583D01*
X164097435Y-54102000D01*
X163342852Y-53347417D01*
X163107240Y-53409071D01*
X162931113Y-53909480D01*
X161855914Y-53909480D01*
X162117541Y-53857439D01*
X162388434Y-53676434D01*
X163507941Y-52556927D01*
X163642607Y-52691827D01*
X163903193Y-52800032D01*
X163584111Y-52932200D01*
X163522457Y-53167812D01*
X164277040Y-53922395D01*
X164291183Y-53908253D01*
X164470788Y-54087858D01*
X164456645Y-54102000D01*
X164470788Y-54116143D01*
X164291183Y-54295748D01*
X164277040Y-54281605D01*
X163522457Y-55036188D01*
X163584111Y-55271800D01*
X163669558Y-55301875D01*
X163465143Y-55340338D01*
X163249019Y-55479410D01*
X163104029Y-55691610D01*
X163053020Y-55943500D01*
X163053020Y-57340500D01*
X163097298Y-57575817D01*
X163236370Y-57791941D01*
X163448570Y-57936931D01*
X163700460Y-57987940D01*
X165097460Y-57987940D01*
X165227000Y-57963565D01*
X165227000Y-127290000D01*
X163000000Y-127290000D01*
X162728295Y-127344046D01*
X162497954Y-127497954D01*
X162344046Y-127728295D01*
X162290000Y-128000000D01*
X162290000Y-129290000D01*
X157377388Y-129290000D01*
X157388680Y-129262739D01*
X157388680Y-128332180D01*
X157229930Y-128173430D01*
X156080680Y-128173430D01*
X156080680Y-128193430D01*
X155826680Y-128193430D01*
X155826680Y-128173430D01*
X154677430Y-128173430D01*
X154518680Y-128332180D01*
X154518680Y-129262739D01*
X154529972Y-129290000D01*
X142391388Y-129290000D01*
X142402680Y-129262739D01*
X142402680Y-128332180D01*
X142243930Y-128173430D01*
X141094680Y-128173430D01*
X141094680Y-128193430D01*
X140840680Y-128193430D01*
X140840680Y-128173430D01*
X139691430Y-128173430D01*
X139532680Y-128332180D01*
X139532680Y-129262739D01*
X139543972Y-129290000D01*
X134710000Y-129290000D01*
X134710000Y-128007745D01*
X146901861Y-128007745D01*
X146975995Y-128253864D01*
X147513223Y-128446965D01*
X148083454Y-128419778D01*
X148484005Y-128253864D01*
X148558139Y-128007745D01*
X147730000Y-127179605D01*
X146901861Y-128007745D01*
X134710000Y-128007745D01*
X134710000Y-128000000D01*
X134655954Y-127728295D01*
X134502046Y-127497954D01*
X134271705Y-127344046D01*
X134000000Y-127290000D01*
X131710000Y-127290000D01*
X131710000Y-124620854D01*
X131864457Y-124620854D01*
X132340727Y-125773515D01*
X133221847Y-126656174D01*
X134373674Y-127134454D01*
X135620854Y-127135543D01*
X136360031Y-126830121D01*
X139532680Y-126830121D01*
X139532680Y-127760680D01*
X139691430Y-127919430D01*
X140840680Y-127919430D01*
X140840680Y-126480180D01*
X141094680Y-126480180D01*
X141094680Y-127919430D01*
X142243930Y-127919430D01*
X142402680Y-127760680D01*
X142402680Y-126830121D01*
X142383255Y-126783223D01*
X146283035Y-126783223D01*
X146310222Y-127353454D01*
X146476136Y-127754005D01*
X146722255Y-127828139D01*
X147550395Y-127000000D01*
X147909605Y-127000000D01*
X148737745Y-127828139D01*
X148823022Y-127802453D01*
X148866838Y-128035317D01*
X149005910Y-128251441D01*
X149218110Y-128396431D01*
X149470000Y-128447440D01*
X151070000Y-128447440D01*
X151305317Y-128403162D01*
X151521441Y-128264090D01*
X151666431Y-128051890D01*
X151717440Y-127800000D01*
X151717440Y-126830121D01*
X154518680Y-126830121D01*
X154518680Y-127760680D01*
X154677430Y-127919430D01*
X155826680Y-127919430D01*
X155826680Y-126480180D01*
X156080680Y-126480180D01*
X156080680Y-127919430D01*
X157229930Y-127919430D01*
X157388680Y-127760680D01*
X157388680Y-126830121D01*
X157292007Y-126596732D01*
X157113379Y-126418103D01*
X156879990Y-126321430D01*
X156239430Y-126321430D01*
X156080680Y-126480180D01*
X155826680Y-126480180D01*
X155667930Y-126321430D01*
X155027370Y-126321430D01*
X154793981Y-126418103D01*
X154615353Y-126596732D01*
X154518680Y-126830121D01*
X151717440Y-126830121D01*
X151717440Y-126323428D01*
X152184434Y-125856434D01*
X152365440Y-125585540D01*
X152429000Y-125266000D01*
X152429000Y-124620854D01*
X158864457Y-124620854D01*
X159340727Y-125773515D01*
X160221847Y-126656174D01*
X161373674Y-127134454D01*
X162620854Y-127135543D01*
X163773515Y-126659273D01*
X164656174Y-125778153D01*
X165134454Y-124626326D01*
X165135543Y-123379146D01*
X164659273Y-122226485D01*
X163778153Y-121343826D01*
X162626326Y-120865546D01*
X161379146Y-120864457D01*
X160226485Y-121340727D01*
X159343826Y-122221847D01*
X158865546Y-123373674D01*
X158864457Y-124620854D01*
X152429000Y-124620854D01*
X152429000Y-122989446D01*
X152579317Y-122961162D01*
X152795441Y-122822090D01*
X152940431Y-122609890D01*
X152991440Y-122358000D01*
X152991440Y-119958000D01*
X152947162Y-119722683D01*
X152808090Y-119506559D01*
X152595890Y-119361569D01*
X152573021Y-119356938D01*
X152573158Y-119199000D01*
X154510880Y-119199000D01*
X154510880Y-119931570D01*
X154555158Y-120166887D01*
X154694230Y-120383011D01*
X154906430Y-120528001D01*
X155158320Y-120579010D01*
X156758320Y-120579010D01*
X156993637Y-120534732D01*
X157209761Y-120395660D01*
X157354751Y-120183460D01*
X157405760Y-119931570D01*
X157405760Y-117751570D01*
X157361482Y-117516253D01*
X157222410Y-117300129D01*
X157010210Y-117155139D01*
X156758320Y-117104130D01*
X155158320Y-117104130D01*
X154923003Y-117148408D01*
X154706879Y-117287480D01*
X154561889Y-117499680D01*
X154555952Y-117529000D01*
X154018848Y-117529000D01*
X154126698Y-117484327D01*
X154305327Y-117305699D01*
X154402000Y-117072310D01*
X154402000Y-116581750D01*
X159542000Y-116581750D01*
X159542000Y-117072310D01*
X159638673Y-117305699D01*
X159817302Y-117484327D01*
X160050691Y-117581000D01*
X160666250Y-117581000D01*
X160825000Y-117422250D01*
X160825000Y-116423000D01*
X161079000Y-116423000D01*
X161079000Y-117422250D01*
X161237750Y-117581000D01*
X161853309Y-117581000D01*
X162086698Y-117484327D01*
X162265327Y-117305699D01*
X162362000Y-117072310D01*
X162362000Y-116581750D01*
X162203250Y-116423000D01*
X161079000Y-116423000D01*
X160825000Y-116423000D01*
X159700750Y-116423000D01*
X159542000Y-116581750D01*
X154402000Y-116581750D01*
X154243250Y-116423000D01*
X153119000Y-116423000D01*
X153119000Y-116443000D01*
X152865000Y-116443000D01*
X152865000Y-116423000D01*
X151740750Y-116423000D01*
X151582000Y-116581750D01*
X151582000Y-117072310D01*
X151678673Y-117305699D01*
X151801895Y-117428921D01*
X151706833Y-117428838D01*
X151363057Y-117570883D01*
X151099808Y-117833673D01*
X150957162Y-118177201D01*
X150956838Y-118549167D01*
X151012322Y-118683449D01*
X150845808Y-118849673D01*
X150703162Y-119193201D01*
X150703037Y-119337084D01*
X150608683Y-119354838D01*
X150392559Y-119493910D01*
X150247569Y-119706110D01*
X150196560Y-119958000D01*
X150196560Y-122358000D01*
X150240838Y-122593317D01*
X150379910Y-122809441D01*
X150592110Y-122954431D01*
X150759000Y-122988227D01*
X150759000Y-124920132D01*
X150126572Y-125552560D01*
X149470000Y-125552560D01*
X149234683Y-125596838D01*
X149018559Y-125735910D01*
X148873569Y-125948110D01*
X148823055Y-126197557D01*
X148737745Y-126171861D01*
X147909605Y-127000000D01*
X147550395Y-127000000D01*
X146722255Y-126171861D01*
X146476136Y-126245995D01*
X146283035Y-126783223D01*
X142383255Y-126783223D01*
X142306007Y-126596732D01*
X142127379Y-126418103D01*
X141893990Y-126321430D01*
X141253430Y-126321430D01*
X141094680Y-126480180D01*
X140840680Y-126480180D01*
X140681930Y-126321430D01*
X140041370Y-126321430D01*
X139807981Y-126418103D01*
X139629353Y-126596732D01*
X139532680Y-126830121D01*
X136360031Y-126830121D01*
X136773515Y-126659273D01*
X137441698Y-125992255D01*
X146901861Y-125992255D01*
X147730000Y-126820395D01*
X148558139Y-125992255D01*
X148484005Y-125746136D01*
X147946777Y-125553035D01*
X147376546Y-125580222D01*
X146975995Y-125746136D01*
X146901861Y-125992255D01*
X137441698Y-125992255D01*
X137656174Y-125778153D01*
X138134454Y-124626326D01*
X138135543Y-123379146D01*
X137659273Y-122226485D01*
X136778153Y-121343826D01*
X135626326Y-120865546D01*
X134379146Y-120864457D01*
X133226485Y-121340727D01*
X132343826Y-122221847D01*
X131865546Y-123373674D01*
X131864457Y-124620854D01*
X131710000Y-124620854D01*
X131710000Y-115646000D01*
X134551560Y-115646000D01*
X134551560Y-116946000D01*
X134595838Y-117181317D01*
X134734910Y-117397441D01*
X134947110Y-117542431D01*
X135199000Y-117593440D01*
X136749000Y-117593440D01*
X136984317Y-117549162D01*
X137200441Y-117410090D01*
X137345431Y-117197890D01*
X137396440Y-116946000D01*
X137396440Y-115646000D01*
X137352162Y-115410683D01*
X137213090Y-115194559D01*
X137000890Y-115049569D01*
X136749000Y-114998560D01*
X135199000Y-114998560D01*
X134963683Y-115042838D01*
X134747559Y-115181910D01*
X134602569Y-115394110D01*
X134551560Y-115646000D01*
X131710000Y-115646000D01*
X131710000Y-112081750D01*
X134564000Y-112081750D01*
X134564000Y-112572310D01*
X134660673Y-112805699D01*
X134839302Y-112984327D01*
X135072691Y-113081000D01*
X135688250Y-113081000D01*
X135847000Y-112922250D01*
X135847000Y-111923000D01*
X136101000Y-111923000D01*
X136101000Y-112922250D01*
X136259750Y-113081000D01*
X136875309Y-113081000D01*
X137108698Y-112984327D01*
X137287327Y-112805699D01*
X137384000Y-112572310D01*
X137384000Y-112081750D01*
X137225250Y-111923000D01*
X136101000Y-111923000D01*
X135847000Y-111923000D01*
X134722750Y-111923000D01*
X134564000Y-112081750D01*
X131710000Y-112081750D01*
X131710000Y-111019690D01*
X134564000Y-111019690D01*
X134564000Y-111510250D01*
X134722750Y-111669000D01*
X135847000Y-111669000D01*
X135847000Y-110669750D01*
X136101000Y-110669750D01*
X136101000Y-111669000D01*
X137225250Y-111669000D01*
X137384000Y-111510250D01*
X137384000Y-111019690D01*
X137287327Y-110786301D01*
X137108698Y-110607673D01*
X136875309Y-110511000D01*
X136259750Y-110511000D01*
X136101000Y-110669750D01*
X135847000Y-110669750D01*
X135688250Y-110511000D01*
X135072691Y-110511000D01*
X134839302Y-110607673D01*
X134660673Y-110786301D01*
X134564000Y-111019690D01*
X131710000Y-111019690D01*
X131710000Y-100533000D01*
X134551560Y-100533000D01*
X134551560Y-101833000D01*
X134595838Y-102068317D01*
X134734910Y-102284441D01*
X134947110Y-102429431D01*
X135199000Y-102480440D01*
X136749000Y-102480440D01*
X136984317Y-102436162D01*
X137200441Y-102297090D01*
X137345431Y-102084890D01*
X137396440Y-101833000D01*
X137396440Y-100533000D01*
X137352162Y-100297683D01*
X137213090Y-100081559D01*
X137000890Y-99936569D01*
X136749000Y-99885560D01*
X135199000Y-99885560D01*
X134963683Y-99929838D01*
X134747559Y-100068910D01*
X134602569Y-100281110D01*
X134551560Y-100533000D01*
X131710000Y-100533000D01*
X131710000Y-96968750D01*
X134564000Y-96968750D01*
X134564000Y-97459310D01*
X134660673Y-97692699D01*
X134839302Y-97871327D01*
X135072691Y-97968000D01*
X135688250Y-97968000D01*
X135847000Y-97809250D01*
X135847000Y-96810000D01*
X136101000Y-96810000D01*
X136101000Y-97809250D01*
X136259750Y-97968000D01*
X136875309Y-97968000D01*
X137108698Y-97871327D01*
X137287327Y-97692699D01*
X137384000Y-97459310D01*
X137384000Y-96968750D01*
X137225250Y-96810000D01*
X136101000Y-96810000D01*
X135847000Y-96810000D01*
X134722750Y-96810000D01*
X134564000Y-96968750D01*
X131710000Y-96968750D01*
X131710000Y-95906690D01*
X134564000Y-95906690D01*
X134564000Y-96397250D01*
X134722750Y-96556000D01*
X135847000Y-96556000D01*
X135847000Y-95556750D01*
X136101000Y-95556750D01*
X136101000Y-96556000D01*
X137225250Y-96556000D01*
X137384000Y-96397250D01*
X137384000Y-95906690D01*
X137287327Y-95673301D01*
X137108698Y-95494673D01*
X136875309Y-95398000D01*
X136259750Y-95398000D01*
X136101000Y-95556750D01*
X135847000Y-95556750D01*
X135688250Y-95398000D01*
X135072691Y-95398000D01*
X134839302Y-95494673D01*
X134660673Y-95673301D01*
X134564000Y-95906690D01*
X131710000Y-95906690D01*
X131710000Y-85547000D01*
X134551560Y-85547000D01*
X134551560Y-86847000D01*
X134595838Y-87082317D01*
X134734910Y-87298441D01*
X134947110Y-87443431D01*
X135199000Y-87494440D01*
X136749000Y-87494440D01*
X136984317Y-87450162D01*
X137200441Y-87311090D01*
X137345431Y-87098890D01*
X137396440Y-86847000D01*
X137396440Y-85547000D01*
X137352162Y-85311683D01*
X137213090Y-85095559D01*
X137000890Y-84950569D01*
X136749000Y-84899560D01*
X135199000Y-84899560D01*
X134963683Y-84943838D01*
X134747559Y-85082910D01*
X134602569Y-85295110D01*
X134551560Y-85547000D01*
X131710000Y-85547000D01*
X131710000Y-81982750D01*
X134564000Y-81982750D01*
X134564000Y-82473310D01*
X134660673Y-82706699D01*
X134839302Y-82885327D01*
X135072691Y-82982000D01*
X135688250Y-82982000D01*
X135847000Y-82823250D01*
X135847000Y-81824000D01*
X136101000Y-81824000D01*
X136101000Y-82823250D01*
X136259750Y-82982000D01*
X136875309Y-82982000D01*
X137108698Y-82885327D01*
X137287327Y-82706699D01*
X137384000Y-82473310D01*
X137384000Y-81982750D01*
X137225250Y-81824000D01*
X136101000Y-81824000D01*
X135847000Y-81824000D01*
X134722750Y-81824000D01*
X134564000Y-81982750D01*
X131710000Y-81982750D01*
X131710000Y-80920690D01*
X134564000Y-80920690D01*
X134564000Y-81411250D01*
X134722750Y-81570000D01*
X135847000Y-81570000D01*
X135847000Y-80570750D01*
X136101000Y-80570750D01*
X136101000Y-81570000D01*
X137225250Y-81570000D01*
X137384000Y-81411250D01*
X137384000Y-80920690D01*
X137287327Y-80687301D01*
X137108698Y-80508673D01*
X136875309Y-80412000D01*
X136259750Y-80412000D01*
X136101000Y-80570750D01*
X135847000Y-80570750D01*
X135688250Y-80412000D01*
X135072691Y-80412000D01*
X134839302Y-80508673D01*
X134660673Y-80687301D01*
X134564000Y-80920690D01*
X131710000Y-80920690D01*
X131710000Y-70561000D01*
X134551560Y-70561000D01*
X134551560Y-71861000D01*
X134595838Y-72096317D01*
X134734910Y-72312441D01*
X134947110Y-72457431D01*
X135199000Y-72508440D01*
X136749000Y-72508440D01*
X136984317Y-72464162D01*
X137200441Y-72325090D01*
X137345431Y-72112890D01*
X137396440Y-71861000D01*
X137396440Y-70561000D01*
X137352162Y-70325683D01*
X137213090Y-70109559D01*
X137000890Y-69964569D01*
X136749000Y-69913560D01*
X135199000Y-69913560D01*
X134963683Y-69957838D01*
X134747559Y-70096910D01*
X134602569Y-70309110D01*
X134551560Y-70561000D01*
X131710000Y-70561000D01*
X131710000Y-66996750D01*
X134564000Y-66996750D01*
X134564000Y-67487310D01*
X134660673Y-67720699D01*
X134839302Y-67899327D01*
X135072691Y-67996000D01*
X135688250Y-67996000D01*
X135847000Y-67837250D01*
X135847000Y-66838000D01*
X136101000Y-66838000D01*
X136101000Y-67837250D01*
X136259750Y-67996000D01*
X136875309Y-67996000D01*
X137108698Y-67899327D01*
X137287327Y-67720699D01*
X137384000Y-67487310D01*
X137384000Y-66996750D01*
X137225250Y-66838000D01*
X136101000Y-66838000D01*
X135847000Y-66838000D01*
X134722750Y-66838000D01*
X134564000Y-66996750D01*
X131710000Y-66996750D01*
X131710000Y-65934690D01*
X134564000Y-65934690D01*
X134564000Y-66425250D01*
X134722750Y-66584000D01*
X135847000Y-66584000D01*
X135847000Y-65584750D01*
X136101000Y-65584750D01*
X136101000Y-66584000D01*
X137225250Y-66584000D01*
X137384000Y-66425250D01*
X137384000Y-65934690D01*
X137287327Y-65701301D01*
X137108698Y-65522673D01*
X136875309Y-65426000D01*
X136259750Y-65426000D01*
X136101000Y-65584750D01*
X135847000Y-65584750D01*
X135688250Y-65426000D01*
X135072691Y-65426000D01*
X134839302Y-65522673D01*
X134660673Y-65701301D01*
X134564000Y-65934690D01*
X131710000Y-65934690D01*
X131710000Y-57970167D01*
X133430838Y-57970167D01*
X133572883Y-58313943D01*
X133835673Y-58577192D01*
X134179201Y-58719838D01*
X134551167Y-58720162D01*
X134894943Y-58578117D01*
X135158192Y-58315327D01*
X135258778Y-58073090D01*
X135809428Y-57522440D01*
X136749000Y-57522440D01*
X136984317Y-57478162D01*
X137200441Y-57339090D01*
X137345431Y-57126890D01*
X137396440Y-56875000D01*
X137396440Y-55575000D01*
X137352162Y-55339683D01*
X137213090Y-55123559D01*
X137000890Y-54978569D01*
X136749000Y-54927560D01*
X135199000Y-54927560D01*
X134963683Y-54971838D01*
X134747559Y-55110910D01*
X134602569Y-55323110D01*
X134551560Y-55575000D01*
X134551560Y-56418572D01*
X134077667Y-56892465D01*
X133837057Y-56991883D01*
X133573808Y-57254673D01*
X133431162Y-57598201D01*
X133430838Y-57970167D01*
X131710000Y-57970167D01*
X131710000Y-52010750D01*
X134564000Y-52010750D01*
X134564000Y-52501310D01*
X134660673Y-52734699D01*
X134839302Y-52913327D01*
X135072691Y-53010000D01*
X135688250Y-53010000D01*
X135847000Y-52851250D01*
X135847000Y-51852000D01*
X136101000Y-51852000D01*
X136101000Y-52851250D01*
X136259750Y-53010000D01*
X136875309Y-53010000D01*
X137108698Y-52913327D01*
X137287327Y-52734699D01*
X137384000Y-52501310D01*
X137384000Y-52010750D01*
X137225250Y-51852000D01*
X136101000Y-51852000D01*
X135847000Y-51852000D01*
X134722750Y-51852000D01*
X134564000Y-52010750D01*
X131710000Y-52010750D01*
X131710000Y-50948690D01*
X134564000Y-50948690D01*
X134564000Y-51439250D01*
X134722750Y-51598000D01*
X135847000Y-51598000D01*
X135847000Y-50598750D01*
X136101000Y-50598750D01*
X136101000Y-51598000D01*
X137225250Y-51598000D01*
X137384000Y-51439250D01*
X137384000Y-50948690D01*
X137287327Y-50715301D01*
X137108698Y-50536673D01*
X136875309Y-50440000D01*
X136259750Y-50440000D01*
X136101000Y-50598750D01*
X135847000Y-50598750D01*
X135688250Y-50440000D01*
X135072691Y-50440000D01*
X134839302Y-50536673D01*
X134660673Y-50715301D01*
X134564000Y-50948690D01*
X131710000Y-50948690D01*
X131710000Y-49911000D01*
X140135000Y-49911000D01*
X140135000Y-105490936D01*
X140135000Y-105490936D01*
G37*
X140135000Y-105490936D02*
X140022833Y-105490838D01*
X139679057Y-105632883D01*
X139415808Y-105895673D01*
X139273162Y-106239201D01*
X139272838Y-106611167D01*
X139373000Y-106853578D01*
X139373000Y-113110766D01*
X139273162Y-113351201D01*
X139272838Y-113723167D01*
X139414883Y-114066943D01*
X139677673Y-114330192D01*
X140021201Y-114472838D01*
X140198500Y-114472992D01*
X140198500Y-117104130D01*
X140172320Y-117104130D01*
X139937003Y-117148408D01*
X139720879Y-117287480D01*
X139575889Y-117499680D01*
X139524880Y-117751570D01*
X139524880Y-119931570D01*
X139569158Y-120166887D01*
X139708230Y-120383011D01*
X139920430Y-120528001D01*
X140172320Y-120579010D01*
X141772320Y-120579010D01*
X142007637Y-120534732D01*
X142223761Y-120395660D01*
X142368751Y-120183460D01*
X142414407Y-119958000D01*
X144696560Y-119958000D01*
X144696560Y-122358000D01*
X144740838Y-122593317D01*
X144879910Y-122809441D01*
X145092110Y-122954431D01*
X145344000Y-123005440D01*
X146844000Y-123005440D01*
X147079317Y-122961162D01*
X147295441Y-122822090D01*
X147440431Y-122609890D01*
X147491440Y-122358000D01*
X147491440Y-119958000D01*
X147447162Y-119722683D01*
X147308090Y-119506559D01*
X147095890Y-119361569D01*
X146985036Y-119339121D01*
X146985162Y-119194833D01*
X146843117Y-118851057D01*
X146580327Y-118587808D01*
X146236799Y-118445162D01*
X145864833Y-118444838D01*
X145521057Y-118586883D01*
X145257808Y-118849673D01*
X145115162Y-119193201D01*
X145115022Y-119353645D01*
X145108683Y-119354838D01*
X144892559Y-119493910D01*
X144747569Y-119706110D01*
X144696560Y-119958000D01*
X142414407Y-119958000D01*
X142419760Y-119931570D01*
X142419760Y-117751570D01*
X142375482Y-117516253D01*
X142236410Y-117300129D01*
X142024210Y-117155139D01*
X141868500Y-117123607D01*
X141868500Y-112081750D01*
X142524000Y-112081750D01*
X142524000Y-112572310D01*
X142620673Y-112805699D01*
X142799302Y-112984327D01*
X143032691Y-113081000D01*
X143648250Y-113081000D01*
X143807000Y-112922250D01*
X143807000Y-111923000D01*
X144061000Y-111923000D01*
X144061000Y-112922250D01*
X144219750Y-113081000D01*
X144835309Y-113081000D01*
X145068698Y-112984327D01*
X145247327Y-112805699D01*
X145344000Y-112572310D01*
X145344000Y-112081750D01*
X145185250Y-111923000D01*
X144061000Y-111923000D01*
X143807000Y-111923000D01*
X142682750Y-111923000D01*
X142524000Y-112081750D01*
X141868500Y-112081750D01*
X141868500Y-111019690D01*
X142524000Y-111019690D01*
X142524000Y-111510250D01*
X142682750Y-111669000D01*
X143807000Y-111669000D01*
X143807000Y-110669750D01*
X144061000Y-110669750D01*
X144061000Y-111669000D01*
X145185250Y-111669000D01*
X145344000Y-111510250D01*
X145344000Y-111019690D01*
X145247327Y-110786301D01*
X145068698Y-110607673D01*
X144835309Y-110511000D01*
X144219750Y-110511000D01*
X144061000Y-110669750D01*
X143807000Y-110669750D01*
X143648250Y-110511000D01*
X143032691Y-110511000D01*
X142799302Y-110607673D01*
X142620673Y-110786301D01*
X142524000Y-111019690D01*
X141868500Y-111019690D01*
X141868500Y-110581868D01*
X148370333Y-104080035D01*
X148610943Y-103980617D01*
X148874192Y-103717827D01*
X149016838Y-103374299D01*
X149017162Y-103002333D01*
X148983150Y-102920018D01*
X149660000Y-103596868D01*
X149660000Y-107586266D01*
X149560162Y-107826701D01*
X149559838Y-108198667D01*
X149701883Y-108542443D01*
X149964673Y-108805692D01*
X150174933Y-108893000D01*
X147919868Y-108893000D01*
X147450535Y-108423667D01*
X147351117Y-108183057D01*
X147088327Y-107919808D01*
X146744799Y-107777162D01*
X146372833Y-107776838D01*
X146029057Y-107918883D01*
X145765808Y-108181673D01*
X145623162Y-108525201D01*
X145622838Y-108897167D01*
X145764883Y-109240943D01*
X146027673Y-109504192D01*
X146269910Y-109604778D01*
X146983566Y-110318434D01*
X147254459Y-110499439D01*
X147563246Y-110560861D01*
X147054277Y-111048623D01*
X146791057Y-111157383D01*
X146527808Y-111420173D01*
X146385162Y-111763701D01*
X146384838Y-112135667D01*
X146526883Y-112479443D01*
X146789673Y-112742692D01*
X146877291Y-112779074D01*
X144625372Y-114998560D01*
X143159000Y-114998560D01*
X142923683Y-115042838D01*
X142707559Y-115181910D01*
X142562569Y-115394110D01*
X142511560Y-115646000D01*
X142511560Y-116946000D01*
X142555838Y-117181317D01*
X142694910Y-117397441D01*
X142907110Y-117542431D01*
X143159000Y-117593440D01*
X144709000Y-117593440D01*
X144944317Y-117549162D01*
X145160441Y-117410090D01*
X145305431Y-117197890D01*
X145356440Y-116946000D01*
X145356440Y-116622812D01*
X146475681Y-115519690D01*
X151582000Y-115519690D01*
X151582000Y-116010250D01*
X151740750Y-116169000D01*
X152865000Y-116169000D01*
X152865000Y-115169750D01*
X153119000Y-115169750D01*
X153119000Y-116169000D01*
X154243250Y-116169000D01*
X154402000Y-116010250D01*
X154402000Y-115519690D01*
X159542000Y-115519690D01*
X159542000Y-116010250D01*
X159700750Y-116169000D01*
X160825000Y-116169000D01*
X160825000Y-115169750D01*
X161079000Y-115169750D01*
X161079000Y-116169000D01*
X162203250Y-116169000D01*
X162362000Y-116010250D01*
X162362000Y-115519690D01*
X162265327Y-115286301D01*
X162086698Y-115107673D01*
X161853309Y-115011000D01*
X161237750Y-115011000D01*
X161079000Y-115169750D01*
X160825000Y-115169750D01*
X160666250Y-115011000D01*
X160050691Y-115011000D01*
X159817302Y-115107673D01*
X159638673Y-115286301D01*
X159542000Y-115519690D01*
X154402000Y-115519690D01*
X154305327Y-115286301D01*
X154126698Y-115107673D01*
X153893309Y-115011000D01*
X153277750Y-115011000D01*
X153119000Y-115169750D01*
X152865000Y-115169750D01*
X152706250Y-115011000D01*
X152090691Y-115011000D01*
X151857302Y-115107673D01*
X151678673Y-115286301D01*
X151582000Y-115519690D01*
X146475681Y-115519690D01*
X149188286Y-112846153D01*
X149320386Y-112791571D01*
X149546201Y-112885338D01*
X149918167Y-112885662D01*
X150160578Y-112785500D01*
X151680878Y-112785500D01*
X151752910Y-112897441D01*
X151965110Y-113042431D01*
X152217000Y-113093440D01*
X153767000Y-113093440D01*
X154002317Y-113049162D01*
X154218441Y-112910090D01*
X154363431Y-112697890D01*
X154414440Y-112446000D01*
X154414440Y-111325000D01*
X158750000Y-111325000D01*
X159069541Y-111261439D01*
X159340434Y-111080434D01*
X159696654Y-110724214D01*
X159580569Y-110894110D01*
X159529560Y-111146000D01*
X159529560Y-112446000D01*
X159573838Y-112681317D01*
X159712910Y-112897441D01*
X159925110Y-113042431D01*
X160177000Y-113093440D01*
X161727000Y-113093440D01*
X161962317Y-113049162D01*
X162178441Y-112910090D01*
X162323431Y-112697890D01*
X162374440Y-112446000D01*
X162374440Y-111146000D01*
X162330162Y-110910683D01*
X162191090Y-110694559D01*
X161978890Y-110549569D01*
X161727000Y-110498560D01*
X160177000Y-110498560D01*
X159941683Y-110542838D01*
X159763142Y-110657726D01*
X160102434Y-110318434D01*
X160283440Y-110047540D01*
X160347000Y-109728000D01*
X160347000Y-102468000D01*
X160666250Y-102468000D01*
X160825000Y-102309250D01*
X160825000Y-101310000D01*
X161079000Y-101310000D01*
X161079000Y-102309250D01*
X161237750Y-102468000D01*
X161853309Y-102468000D01*
X162086698Y-102371327D01*
X162265327Y-102192699D01*
X162362000Y-101959310D01*
X162362000Y-101468750D01*
X162203250Y-101310000D01*
X161079000Y-101310000D01*
X160825000Y-101310000D01*
X160805000Y-101310000D01*
X160805000Y-101056000D01*
X160825000Y-101056000D01*
X160825000Y-100056750D01*
X161079000Y-100056750D01*
X161079000Y-101056000D01*
X162203250Y-101056000D01*
X162362000Y-100897250D01*
X162362000Y-100406690D01*
X162265327Y-100173301D01*
X162086698Y-99994673D01*
X161853309Y-99898000D01*
X161237750Y-99898000D01*
X161079000Y-100056750D01*
X160825000Y-100056750D01*
X160666250Y-99898000D01*
X160347000Y-99898000D01*
X160347000Y-97980440D01*
X161727000Y-97980440D01*
X161962317Y-97936162D01*
X162178441Y-97797090D01*
X162323431Y-97584890D01*
X162374440Y-97333000D01*
X162374440Y-96033000D01*
X162330162Y-95797683D01*
X162191090Y-95581559D01*
X161978890Y-95436569D01*
X161727000Y-95385560D01*
X160347000Y-95385560D01*
X160347000Y-87482000D01*
X160666250Y-87482000D01*
X160825000Y-87323250D01*
X160825000Y-86324000D01*
X161079000Y-86324000D01*
X161079000Y-87323250D01*
X161237750Y-87482000D01*
X161853309Y-87482000D01*
X162086698Y-87385327D01*
X162265327Y-87206699D01*
X162362000Y-86973310D01*
X162362000Y-86482750D01*
X162203250Y-86324000D01*
X161079000Y-86324000D01*
X160825000Y-86324000D01*
X160805000Y-86324000D01*
X160805000Y-86070000D01*
X160825000Y-86070000D01*
X160825000Y-85070750D01*
X161079000Y-85070750D01*
X161079000Y-86070000D01*
X162203250Y-86070000D01*
X162362000Y-85911250D01*
X162362000Y-85420690D01*
X162265327Y-85187301D01*
X162086698Y-85008673D01*
X161853309Y-84912000D01*
X161237750Y-84912000D01*
X161079000Y-85070750D01*
X160825000Y-85070750D01*
X160666250Y-84912000D01*
X160347000Y-84912000D01*
X160347000Y-82994440D01*
X161727000Y-82994440D01*
X161962317Y-82950162D01*
X162178441Y-82811090D01*
X162323431Y-82598890D01*
X162374440Y-82347000D01*
X162374440Y-81047000D01*
X162330162Y-80811683D01*
X162191090Y-80595559D01*
X161978890Y-80450569D01*
X161727000Y-80399560D01*
X160347000Y-80399560D01*
X160347000Y-72496000D01*
X160666250Y-72496000D01*
X160825000Y-72337250D01*
X160825000Y-71338000D01*
X161079000Y-71338000D01*
X161079000Y-72337250D01*
X161237750Y-72496000D01*
X161853309Y-72496000D01*
X162086698Y-72399327D01*
X162265327Y-72220699D01*
X162362000Y-71987310D01*
X162362000Y-71496750D01*
X162203250Y-71338000D01*
X161079000Y-71338000D01*
X160825000Y-71338000D01*
X160805000Y-71338000D01*
X160805000Y-71084000D01*
X160825000Y-71084000D01*
X160825000Y-70084750D01*
X161079000Y-70084750D01*
X161079000Y-71084000D01*
X162203250Y-71084000D01*
X162362000Y-70925250D01*
X162362000Y-70434690D01*
X162265327Y-70201301D01*
X162086698Y-70022673D01*
X161853309Y-69926000D01*
X161237750Y-69926000D01*
X161079000Y-70084750D01*
X160825000Y-70084750D01*
X160666250Y-69926000D01*
X160347000Y-69926000D01*
X160347000Y-68008440D01*
X161727000Y-68008440D01*
X161962317Y-67964162D01*
X162178441Y-67825090D01*
X162323431Y-67612890D01*
X162374440Y-67361000D01*
X162374440Y-66061000D01*
X162330162Y-65825683D01*
X162191090Y-65609559D01*
X161978890Y-65464569D01*
X161727000Y-65413560D01*
X160347000Y-65413560D01*
X160347000Y-57510000D01*
X160666250Y-57510000D01*
X160825000Y-57351250D01*
X160825000Y-56352000D01*
X161079000Y-56352000D01*
X161079000Y-57351250D01*
X161237750Y-57510000D01*
X161853309Y-57510000D01*
X162086698Y-57413327D01*
X162265327Y-57234699D01*
X162362000Y-57001310D01*
X162362000Y-56510750D01*
X162203250Y-56352000D01*
X161079000Y-56352000D01*
X160825000Y-56352000D01*
X160805000Y-56352000D01*
X160805000Y-56098000D01*
X160825000Y-56098000D01*
X160825000Y-55098750D01*
X161079000Y-55098750D01*
X161079000Y-56098000D01*
X162203250Y-56098000D01*
X162362000Y-55939250D01*
X162362000Y-55448690D01*
X162265327Y-55215301D01*
X162086698Y-55036673D01*
X161853309Y-54940000D01*
X161237750Y-54940000D01*
X161079000Y-55098750D01*
X160825000Y-55098750D01*
X160666250Y-54940000D01*
X160347000Y-54940000D01*
X160347000Y-54747093D01*
X161338312Y-53921000D01*
X161798000Y-53921000D01*
X161855914Y-53909480D01*
X162931113Y-53909480D01*
X162959892Y-54439199D01*
X163107240Y-54794929D01*
X163342852Y-54856583D01*
X164097435Y-54102000D01*
X163342852Y-53347417D01*
X163107240Y-53409071D01*
X162931113Y-53909480D01*
X161855914Y-53909480D01*
X162117541Y-53857439D01*
X162388434Y-53676434D01*
X163507941Y-52556927D01*
X163642607Y-52691827D01*
X163903193Y-52800032D01*
X163584111Y-52932200D01*
X163522457Y-53167812D01*
X164277040Y-53922395D01*
X164291183Y-53908253D01*
X164470788Y-54087858D01*
X164456645Y-54102000D01*
X164470788Y-54116143D01*
X164291183Y-54295748D01*
X164277040Y-54281605D01*
X163522457Y-55036188D01*
X163584111Y-55271800D01*
X163669558Y-55301875D01*
X163465143Y-55340338D01*
X163249019Y-55479410D01*
X163104029Y-55691610D01*
X163053020Y-55943500D01*
X163053020Y-57340500D01*
X163097298Y-57575817D01*
X163236370Y-57791941D01*
X163448570Y-57936931D01*
X163700460Y-57987940D01*
X165097460Y-57987940D01*
X165227000Y-57963565D01*
X165227000Y-127290000D01*
X163000000Y-127290000D01*
X162728295Y-127344046D01*
X162497954Y-127497954D01*
X162344046Y-127728295D01*
X162290000Y-128000000D01*
X162290000Y-129290000D01*
X157377388Y-129290000D01*
X157388680Y-129262739D01*
X157388680Y-128332180D01*
X157229930Y-128173430D01*
X156080680Y-128173430D01*
X156080680Y-128193430D01*
X155826680Y-128193430D01*
X155826680Y-128173430D01*
X154677430Y-128173430D01*
X154518680Y-128332180D01*
X154518680Y-129262739D01*
X154529972Y-129290000D01*
X142391388Y-129290000D01*
X142402680Y-129262739D01*
X142402680Y-128332180D01*
X142243930Y-128173430D01*
X141094680Y-128173430D01*
X141094680Y-128193430D01*
X140840680Y-128193430D01*
X140840680Y-128173430D01*
X139691430Y-128173430D01*
X139532680Y-128332180D01*
X139532680Y-129262739D01*
X139543972Y-129290000D01*
X134710000Y-129290000D01*
X134710000Y-128007745D01*
X146901861Y-128007745D01*
X146975995Y-128253864D01*
X147513223Y-128446965D01*
X148083454Y-128419778D01*
X148484005Y-128253864D01*
X148558139Y-128007745D01*
X147730000Y-127179605D01*
X146901861Y-128007745D01*
X134710000Y-128007745D01*
X134710000Y-128000000D01*
X134655954Y-127728295D01*
X134502046Y-127497954D01*
X134271705Y-127344046D01*
X134000000Y-127290000D01*
X131710000Y-127290000D01*
X131710000Y-124620854D01*
X131864457Y-124620854D01*
X132340727Y-125773515D01*
X133221847Y-126656174D01*
X134373674Y-127134454D01*
X135620854Y-127135543D01*
X136360031Y-126830121D01*
X139532680Y-126830121D01*
X139532680Y-127760680D01*
X139691430Y-127919430D01*
X140840680Y-127919430D01*
X140840680Y-126480180D01*
X141094680Y-126480180D01*
X141094680Y-127919430D01*
X142243930Y-127919430D01*
X142402680Y-127760680D01*
X142402680Y-126830121D01*
X142383255Y-126783223D01*
X146283035Y-126783223D01*
X146310222Y-127353454D01*
X146476136Y-127754005D01*
X146722255Y-127828139D01*
X147550395Y-127000000D01*
X147909605Y-127000000D01*
X148737745Y-127828139D01*
X148823022Y-127802453D01*
X148866838Y-128035317D01*
X149005910Y-128251441D01*
X149218110Y-128396431D01*
X149470000Y-128447440D01*
X151070000Y-128447440D01*
X151305317Y-128403162D01*
X151521441Y-128264090D01*
X151666431Y-128051890D01*
X151717440Y-127800000D01*
X151717440Y-126830121D01*
X154518680Y-126830121D01*
X154518680Y-127760680D01*
X154677430Y-127919430D01*
X155826680Y-127919430D01*
X155826680Y-126480180D01*
X156080680Y-126480180D01*
X156080680Y-127919430D01*
X157229930Y-127919430D01*
X157388680Y-127760680D01*
X157388680Y-126830121D01*
X157292007Y-126596732D01*
X157113379Y-126418103D01*
X156879990Y-126321430D01*
X156239430Y-126321430D01*
X156080680Y-126480180D01*
X155826680Y-126480180D01*
X155667930Y-126321430D01*
X155027370Y-126321430D01*
X154793981Y-126418103D01*
X154615353Y-126596732D01*
X154518680Y-126830121D01*
X151717440Y-126830121D01*
X151717440Y-126323428D01*
X152184434Y-125856434D01*
X152365440Y-125585540D01*
X152429000Y-125266000D01*
X152429000Y-124620854D01*
X158864457Y-124620854D01*
X159340727Y-125773515D01*
X160221847Y-126656174D01*
X161373674Y-127134454D01*
X162620854Y-127135543D01*
X163773515Y-126659273D01*
X164656174Y-125778153D01*
X165134454Y-124626326D01*
X165135543Y-123379146D01*
X164659273Y-122226485D01*
X163778153Y-121343826D01*
X162626326Y-120865546D01*
X161379146Y-120864457D01*
X160226485Y-121340727D01*
X159343826Y-122221847D01*
X158865546Y-123373674D01*
X158864457Y-124620854D01*
X152429000Y-124620854D01*
X152429000Y-122989446D01*
X152579317Y-122961162D01*
X152795441Y-122822090D01*
X152940431Y-122609890D01*
X152991440Y-122358000D01*
X152991440Y-119958000D01*
X152947162Y-119722683D01*
X152808090Y-119506559D01*
X152595890Y-119361569D01*
X152573021Y-119356938D01*
X152573158Y-119199000D01*
X154510880Y-119199000D01*
X154510880Y-119931570D01*
X154555158Y-120166887D01*
X154694230Y-120383011D01*
X154906430Y-120528001D01*
X155158320Y-120579010D01*
X156758320Y-120579010D01*
X156993637Y-120534732D01*
X157209761Y-120395660D01*
X157354751Y-120183460D01*
X157405760Y-119931570D01*
X157405760Y-117751570D01*
X157361482Y-117516253D01*
X157222410Y-117300129D01*
X157010210Y-117155139D01*
X156758320Y-117104130D01*
X155158320Y-117104130D01*
X154923003Y-117148408D01*
X154706879Y-117287480D01*
X154561889Y-117499680D01*
X154555952Y-117529000D01*
X154018848Y-117529000D01*
X154126698Y-117484327D01*
X154305327Y-117305699D01*
X154402000Y-117072310D01*
X154402000Y-116581750D01*
X159542000Y-116581750D01*
X159542000Y-117072310D01*
X159638673Y-117305699D01*
X159817302Y-117484327D01*
X160050691Y-117581000D01*
X160666250Y-117581000D01*
X160825000Y-117422250D01*
X160825000Y-116423000D01*
X161079000Y-116423000D01*
X161079000Y-117422250D01*
X161237750Y-117581000D01*
X161853309Y-117581000D01*
X162086698Y-117484327D01*
X162265327Y-117305699D01*
X162362000Y-117072310D01*
X162362000Y-116581750D01*
X162203250Y-116423000D01*
X161079000Y-116423000D01*
X160825000Y-116423000D01*
X159700750Y-116423000D01*
X159542000Y-116581750D01*
X154402000Y-116581750D01*
X154243250Y-116423000D01*
X153119000Y-116423000D01*
X153119000Y-116443000D01*
X152865000Y-116443000D01*
X152865000Y-116423000D01*
X151740750Y-116423000D01*
X151582000Y-116581750D01*
X151582000Y-117072310D01*
X151678673Y-117305699D01*
X151801895Y-117428921D01*
X151706833Y-117428838D01*
X151363057Y-117570883D01*
X151099808Y-117833673D01*
X150957162Y-118177201D01*
X150956838Y-118549167D01*
X151012322Y-118683449D01*
X150845808Y-118849673D01*
X150703162Y-119193201D01*
X150703037Y-119337084D01*
X150608683Y-119354838D01*
X150392559Y-119493910D01*
X150247569Y-119706110D01*
X150196560Y-119958000D01*
X150196560Y-122358000D01*
X150240838Y-122593317D01*
X150379910Y-122809441D01*
X150592110Y-122954431D01*
X150759000Y-122988227D01*
X150759000Y-124920132D01*
X150126572Y-125552560D01*
X149470000Y-125552560D01*
X149234683Y-125596838D01*
X149018559Y-125735910D01*
X148873569Y-125948110D01*
X148823055Y-126197557D01*
X148737745Y-126171861D01*
X147909605Y-127000000D01*
X147550395Y-127000000D01*
X146722255Y-126171861D01*
X146476136Y-126245995D01*
X146283035Y-126783223D01*
X142383255Y-126783223D01*
X142306007Y-126596732D01*
X142127379Y-126418103D01*
X141893990Y-126321430D01*
X141253430Y-126321430D01*
X141094680Y-126480180D01*
X140840680Y-126480180D01*
X140681930Y-126321430D01*
X140041370Y-126321430D01*
X139807981Y-126418103D01*
X139629353Y-126596732D01*
X139532680Y-126830121D01*
X136360031Y-126830121D01*
X136773515Y-126659273D01*
X137441698Y-125992255D01*
X146901861Y-125992255D01*
X147730000Y-126820395D01*
X148558139Y-125992255D01*
X148484005Y-125746136D01*
X147946777Y-125553035D01*
X147376546Y-125580222D01*
X146975995Y-125746136D01*
X146901861Y-125992255D01*
X137441698Y-125992255D01*
X137656174Y-125778153D01*
X138134454Y-124626326D01*
X138135543Y-123379146D01*
X137659273Y-122226485D01*
X136778153Y-121343826D01*
X135626326Y-120865546D01*
X134379146Y-120864457D01*
X133226485Y-121340727D01*
X132343826Y-122221847D01*
X131865546Y-123373674D01*
X131864457Y-124620854D01*
X131710000Y-124620854D01*
X131710000Y-115646000D01*
X134551560Y-115646000D01*
X134551560Y-116946000D01*
X134595838Y-117181317D01*
X134734910Y-117397441D01*
X134947110Y-117542431D01*
X135199000Y-117593440D01*
X136749000Y-117593440D01*
X136984317Y-117549162D01*
X137200441Y-117410090D01*
X137345431Y-117197890D01*
X137396440Y-116946000D01*
X137396440Y-115646000D01*
X137352162Y-115410683D01*
X137213090Y-115194559D01*
X137000890Y-115049569D01*
X136749000Y-114998560D01*
X135199000Y-114998560D01*
X134963683Y-115042838D01*
X134747559Y-115181910D01*
X134602569Y-115394110D01*
X134551560Y-115646000D01*
X131710000Y-115646000D01*
X131710000Y-112081750D01*
X134564000Y-112081750D01*
X134564000Y-112572310D01*
X134660673Y-112805699D01*
X134839302Y-112984327D01*
X135072691Y-113081000D01*
X135688250Y-113081000D01*
X135847000Y-112922250D01*
X135847000Y-111923000D01*
X136101000Y-111923000D01*
X136101000Y-112922250D01*
X136259750Y-113081000D01*
X136875309Y-113081000D01*
X137108698Y-112984327D01*
X137287327Y-112805699D01*
X137384000Y-112572310D01*
X137384000Y-112081750D01*
X137225250Y-111923000D01*
X136101000Y-111923000D01*
X135847000Y-111923000D01*
X134722750Y-111923000D01*
X134564000Y-112081750D01*
X131710000Y-112081750D01*
X131710000Y-111019690D01*
X134564000Y-111019690D01*
X134564000Y-111510250D01*
X134722750Y-111669000D01*
X135847000Y-111669000D01*
X135847000Y-110669750D01*
X136101000Y-110669750D01*
X136101000Y-111669000D01*
X137225250Y-111669000D01*
X137384000Y-111510250D01*
X137384000Y-111019690D01*
X137287327Y-110786301D01*
X137108698Y-110607673D01*
X136875309Y-110511000D01*
X136259750Y-110511000D01*
X136101000Y-110669750D01*
X135847000Y-110669750D01*
X135688250Y-110511000D01*
X135072691Y-110511000D01*
X134839302Y-110607673D01*
X134660673Y-110786301D01*
X134564000Y-111019690D01*
X131710000Y-111019690D01*
X131710000Y-100533000D01*
X134551560Y-100533000D01*
X134551560Y-101833000D01*
X134595838Y-102068317D01*
X134734910Y-102284441D01*
X134947110Y-102429431D01*
X135199000Y-102480440D01*
X136749000Y-102480440D01*
X136984317Y-102436162D01*
X137200441Y-102297090D01*
X137345431Y-102084890D01*
X137396440Y-101833000D01*
X137396440Y-100533000D01*
X137352162Y-100297683D01*
X137213090Y-100081559D01*
X137000890Y-99936569D01*
X136749000Y-99885560D01*
X135199000Y-99885560D01*
X134963683Y-99929838D01*
X134747559Y-100068910D01*
X134602569Y-100281110D01*
X134551560Y-100533000D01*
X131710000Y-100533000D01*
X131710000Y-96968750D01*
X134564000Y-96968750D01*
X134564000Y-97459310D01*
X134660673Y-97692699D01*
X134839302Y-97871327D01*
X135072691Y-97968000D01*
X135688250Y-97968000D01*
X135847000Y-97809250D01*
X135847000Y-96810000D01*
X136101000Y-96810000D01*
X136101000Y-97809250D01*
X136259750Y-97968000D01*
X136875309Y-97968000D01*
X137108698Y-97871327D01*
X137287327Y-97692699D01*
X137384000Y-97459310D01*
X137384000Y-96968750D01*
X137225250Y-96810000D01*
X136101000Y-96810000D01*
X135847000Y-96810000D01*
X134722750Y-96810000D01*
X134564000Y-96968750D01*
X131710000Y-96968750D01*
X131710000Y-95906690D01*
X134564000Y-95906690D01*
X134564000Y-96397250D01*
X134722750Y-96556000D01*
X135847000Y-96556000D01*
X135847000Y-95556750D01*
X136101000Y-95556750D01*
X136101000Y-96556000D01*
X137225250Y-96556000D01*
X137384000Y-96397250D01*
X137384000Y-95906690D01*
X137287327Y-95673301D01*
X137108698Y-95494673D01*
X136875309Y-95398000D01*
X136259750Y-95398000D01*
X136101000Y-95556750D01*
X135847000Y-95556750D01*
X135688250Y-95398000D01*
X135072691Y-95398000D01*
X134839302Y-95494673D01*
X134660673Y-95673301D01*
X134564000Y-95906690D01*
X131710000Y-95906690D01*
X131710000Y-85547000D01*
X134551560Y-85547000D01*
X134551560Y-86847000D01*
X134595838Y-87082317D01*
X134734910Y-87298441D01*
X134947110Y-87443431D01*
X135199000Y-87494440D01*
X136749000Y-87494440D01*
X136984317Y-87450162D01*
X137200441Y-87311090D01*
X137345431Y-87098890D01*
X137396440Y-86847000D01*
X137396440Y-85547000D01*
X137352162Y-85311683D01*
X137213090Y-85095559D01*
X137000890Y-84950569D01*
X136749000Y-84899560D01*
X135199000Y-84899560D01*
X134963683Y-84943838D01*
X134747559Y-85082910D01*
X134602569Y-85295110D01*
X134551560Y-85547000D01*
X131710000Y-85547000D01*
X131710000Y-81982750D01*
X134564000Y-81982750D01*
X134564000Y-82473310D01*
X134660673Y-82706699D01*
X134839302Y-82885327D01*
X135072691Y-82982000D01*
X135688250Y-82982000D01*
X135847000Y-82823250D01*
X135847000Y-81824000D01*
X136101000Y-81824000D01*
X136101000Y-82823250D01*
X136259750Y-82982000D01*
X136875309Y-82982000D01*
X137108698Y-82885327D01*
X137287327Y-82706699D01*
X137384000Y-82473310D01*
X137384000Y-81982750D01*
X137225250Y-81824000D01*
X136101000Y-81824000D01*
X135847000Y-81824000D01*
X134722750Y-81824000D01*
X134564000Y-81982750D01*
X131710000Y-81982750D01*
X131710000Y-80920690D01*
X134564000Y-80920690D01*
X134564000Y-81411250D01*
X134722750Y-81570000D01*
X135847000Y-81570000D01*
X135847000Y-80570750D01*
X136101000Y-80570750D01*
X136101000Y-81570000D01*
X137225250Y-81570000D01*
X137384000Y-81411250D01*
X137384000Y-80920690D01*
X137287327Y-80687301D01*
X137108698Y-80508673D01*
X136875309Y-80412000D01*
X136259750Y-80412000D01*
X136101000Y-80570750D01*
X135847000Y-80570750D01*
X135688250Y-80412000D01*
X135072691Y-80412000D01*
X134839302Y-80508673D01*
X134660673Y-80687301D01*
X134564000Y-80920690D01*
X131710000Y-80920690D01*
X131710000Y-70561000D01*
X134551560Y-70561000D01*
X134551560Y-71861000D01*
X134595838Y-72096317D01*
X134734910Y-72312441D01*
X134947110Y-72457431D01*
X135199000Y-72508440D01*
X136749000Y-72508440D01*
X136984317Y-72464162D01*
X137200441Y-72325090D01*
X137345431Y-72112890D01*
X137396440Y-71861000D01*
X137396440Y-70561000D01*
X137352162Y-70325683D01*
X137213090Y-70109559D01*
X137000890Y-69964569D01*
X136749000Y-69913560D01*
X135199000Y-69913560D01*
X134963683Y-69957838D01*
X134747559Y-70096910D01*
X134602569Y-70309110D01*
X134551560Y-70561000D01*
X131710000Y-70561000D01*
X131710000Y-66996750D01*
X134564000Y-66996750D01*
X134564000Y-67487310D01*
X134660673Y-67720699D01*
X134839302Y-67899327D01*
X135072691Y-67996000D01*
X135688250Y-67996000D01*
X135847000Y-67837250D01*
X135847000Y-66838000D01*
X136101000Y-66838000D01*
X136101000Y-67837250D01*
X136259750Y-67996000D01*
X136875309Y-67996000D01*
X137108698Y-67899327D01*
X137287327Y-67720699D01*
X137384000Y-67487310D01*
X137384000Y-66996750D01*
X137225250Y-66838000D01*
X136101000Y-66838000D01*
X135847000Y-66838000D01*
X134722750Y-66838000D01*
X134564000Y-66996750D01*
X131710000Y-66996750D01*
X131710000Y-65934690D01*
X134564000Y-65934690D01*
X134564000Y-66425250D01*
X134722750Y-66584000D01*
X135847000Y-66584000D01*
X135847000Y-65584750D01*
X136101000Y-65584750D01*
X136101000Y-66584000D01*
X137225250Y-66584000D01*
X137384000Y-66425250D01*
X137384000Y-65934690D01*
X137287327Y-65701301D01*
X137108698Y-65522673D01*
X136875309Y-65426000D01*
X136259750Y-65426000D01*
X136101000Y-65584750D01*
X135847000Y-65584750D01*
X135688250Y-65426000D01*
X135072691Y-65426000D01*
X134839302Y-65522673D01*
X134660673Y-65701301D01*
X134564000Y-65934690D01*
X131710000Y-65934690D01*
X131710000Y-57970167D01*
X133430838Y-57970167D01*
X133572883Y-58313943D01*
X133835673Y-58577192D01*
X134179201Y-58719838D01*
X134551167Y-58720162D01*
X134894943Y-58578117D01*
X135158192Y-58315327D01*
X135258778Y-58073090D01*
X135809428Y-57522440D01*
X136749000Y-57522440D01*
X136984317Y-57478162D01*
X137200441Y-57339090D01*
X137345431Y-57126890D01*
X137396440Y-56875000D01*
X137396440Y-55575000D01*
X137352162Y-55339683D01*
X137213090Y-55123559D01*
X137000890Y-54978569D01*
X136749000Y-54927560D01*
X135199000Y-54927560D01*
X134963683Y-54971838D01*
X134747559Y-55110910D01*
X134602569Y-55323110D01*
X134551560Y-55575000D01*
X134551560Y-56418572D01*
X134077667Y-56892465D01*
X133837057Y-56991883D01*
X133573808Y-57254673D01*
X133431162Y-57598201D01*
X133430838Y-57970167D01*
X131710000Y-57970167D01*
X131710000Y-52010750D01*
X134564000Y-52010750D01*
X134564000Y-52501310D01*
X134660673Y-52734699D01*
X134839302Y-52913327D01*
X135072691Y-53010000D01*
X135688250Y-53010000D01*
X135847000Y-52851250D01*
X135847000Y-51852000D01*
X136101000Y-51852000D01*
X136101000Y-52851250D01*
X136259750Y-53010000D01*
X136875309Y-53010000D01*
X137108698Y-52913327D01*
X137287327Y-52734699D01*
X137384000Y-52501310D01*
X137384000Y-52010750D01*
X137225250Y-51852000D01*
X136101000Y-51852000D01*
X135847000Y-51852000D01*
X134722750Y-51852000D01*
X134564000Y-52010750D01*
X131710000Y-52010750D01*
X131710000Y-50948690D01*
X134564000Y-50948690D01*
X134564000Y-51439250D01*
X134722750Y-51598000D01*
X135847000Y-51598000D01*
X135847000Y-50598750D01*
X136101000Y-50598750D01*
X136101000Y-51598000D01*
X137225250Y-51598000D01*
X137384000Y-51439250D01*
X137384000Y-50948690D01*
X137287327Y-50715301D01*
X137108698Y-50536673D01*
X136875309Y-50440000D01*
X136259750Y-50440000D01*
X136101000Y-50598750D01*
X135847000Y-50598750D01*
X135688250Y-50440000D01*
X135072691Y-50440000D01*
X134839302Y-50536673D01*
X134660673Y-50715301D01*
X134564000Y-50948690D01*
X131710000Y-50948690D01*
X131710000Y-49911000D01*
X140135000Y-49911000D01*
X140135000Y-105490936D01*
G36*
X148009000Y-61802766D02*
X147909162Y-62043201D01*
X147908838Y-62415167D01*
X148050883Y-62758943D01*
X148313673Y-63022192D01*
X148657201Y-63164838D01*
X149029167Y-63165162D01*
X149372943Y-63023117D01*
X149636192Y-62760327D01*
X149669405Y-62680341D01*
X149701883Y-62758943D01*
X149964673Y-63022192D01*
X150308201Y-63164838D01*
X150680167Y-63165162D01*
X151023943Y-63023117D01*
X151287192Y-62760327D01*
X151429838Y-62416799D01*
X151430162Y-62044833D01*
X151330000Y-61802422D01*
X151330000Y-56510750D01*
X151582000Y-56510750D01*
X151582000Y-57001310D01*
X151678673Y-57234699D01*
X151857302Y-57413327D01*
X152090691Y-57510000D01*
X152706250Y-57510000D01*
X152865000Y-57351250D01*
X152865000Y-56352000D01*
X153119000Y-56352000D01*
X153119000Y-57351250D01*
X153277750Y-57510000D01*
X153893309Y-57510000D01*
X154126698Y-57413327D01*
X154305327Y-57234699D01*
X154402000Y-57001310D01*
X154402000Y-56510750D01*
X154243250Y-56352000D01*
X153119000Y-56352000D01*
X152865000Y-56352000D01*
X151740750Y-56352000D01*
X151582000Y-56510750D01*
X151330000Y-56510750D01*
X151330000Y-55799234D01*
X151429838Y-55558799D01*
X151429933Y-55448690D01*
X151582000Y-55448690D01*
X151582000Y-55939250D01*
X151740750Y-56098000D01*
X152865000Y-56098000D01*
X152865000Y-55098750D01*
X153119000Y-55098750D01*
X153119000Y-56098000D01*
X154243250Y-56098000D01*
X154402000Y-55939250D01*
X154402000Y-55448690D01*
X154305327Y-55215301D01*
X154126698Y-55036673D01*
X153893309Y-54940000D01*
X153277750Y-54940000D01*
X153119000Y-55098750D01*
X152865000Y-55098750D01*
X152706250Y-54940000D01*
X152090691Y-54940000D01*
X151857302Y-55036673D01*
X151678673Y-55215301D01*
X151582000Y-55448690D01*
X151429933Y-55448690D01*
X151430162Y-55186833D01*
X151288117Y-54843057D01*
X151025327Y-54579808D01*
X150681799Y-54437162D01*
X150309833Y-54436838D01*
X149966057Y-54578883D01*
X149702808Y-54841673D01*
X149679000Y-54899009D01*
X149679000Y-49911000D01*
X157153000Y-49911000D01*
X157153000Y-51832132D01*
X156455434Y-51134566D01*
X156366287Y-51075000D01*
X156184541Y-50953561D01*
X155865000Y-50890000D01*
X154379630Y-50890000D01*
X154370162Y-50839683D01*
X154231090Y-50623559D01*
X154018890Y-50478569D01*
X153767000Y-50427560D01*
X152217000Y-50427560D01*
X151981683Y-50471838D01*
X151765559Y-50610910D01*
X151620569Y-50823110D01*
X151569560Y-51075000D01*
X151569560Y-52375000D01*
X151613838Y-52610317D01*
X151752910Y-52826441D01*
X151965110Y-52971431D01*
X152217000Y-53022440D01*
X153767000Y-53022440D01*
X154002317Y-52978162D01*
X154218441Y-52839090D01*
X154363431Y-52626890D01*
X154376977Y-52560000D01*
X155519132Y-52560000D01*
X156391000Y-53431868D01*
X156391000Y-66818132D01*
X155693434Y-66120566D01*
X155604287Y-66061000D01*
X155422541Y-65939561D01*
X155103000Y-65876000D01*
X154379630Y-65876000D01*
X154370162Y-65825683D01*
X154231090Y-65609559D01*
X154018890Y-65464569D01*
X153767000Y-65413560D01*
X152217000Y-65413560D01*
X151981683Y-65457838D01*
X151765559Y-65596910D01*
X151620569Y-65809110D01*
X151569560Y-66061000D01*
X151569560Y-67361000D01*
X151613838Y-67596317D01*
X151752910Y-67812441D01*
X151965110Y-67957431D01*
X152217000Y-68008440D01*
X153767000Y-68008440D01*
X154002317Y-67964162D01*
X154218441Y-67825090D01*
X154363431Y-67612890D01*
X154376977Y-67546000D01*
X154757132Y-67546000D01*
X155629000Y-68417868D01*
X155629000Y-108411766D01*
X155529162Y-108652201D01*
X155528952Y-108893000D01*
X150814880Y-108893000D01*
X151023943Y-108806617D01*
X151287192Y-108543827D01*
X151303713Y-108504041D01*
X151442167Y-108504162D01*
X151785943Y-108362117D01*
X152049192Y-108099327D01*
X152191838Y-107755799D01*
X152192162Y-107383833D01*
X152092000Y-107141422D01*
X152092000Y-102468000D01*
X152706250Y-102468000D01*
X152865000Y-102309250D01*
X152865000Y-101310000D01*
X153119000Y-101310000D01*
X153119000Y-102309250D01*
X153277750Y-102468000D01*
X153893309Y-102468000D01*
X154126698Y-102371327D01*
X154305327Y-102192699D01*
X154402000Y-101959310D01*
X154402000Y-101468750D01*
X154243250Y-101310000D01*
X153119000Y-101310000D01*
X152865000Y-101310000D01*
X152845000Y-101310000D01*
X152845000Y-101056000D01*
X152865000Y-101056000D01*
X152865000Y-100056750D01*
X153119000Y-100056750D01*
X153119000Y-101056000D01*
X154243250Y-101056000D01*
X154402000Y-100897250D01*
X154402000Y-100406690D01*
X154305327Y-100173301D01*
X154126698Y-99994673D01*
X153893309Y-99898000D01*
X153277750Y-99898000D01*
X153119000Y-100056750D01*
X152865000Y-100056750D01*
X152706250Y-99898000D01*
X152092000Y-99898000D01*
X152092000Y-98707368D01*
X152818928Y-97980440D01*
X153767000Y-97980440D01*
X154002317Y-97936162D01*
X154218441Y-97797090D01*
X154363431Y-97584890D01*
X154414440Y-97333000D01*
X154414440Y-96033000D01*
X154370162Y-95797683D01*
X154231090Y-95581559D01*
X154018890Y-95436569D01*
X153767000Y-95385560D01*
X152217000Y-95385560D01*
X151981683Y-95429838D01*
X151765559Y-95568910D01*
X151620569Y-95781110D01*
X151569560Y-96033000D01*
X151569560Y-96868072D01*
X150666566Y-97771066D01*
X150485561Y-98041959D01*
X150422000Y-98361500D01*
X150422000Y-101997132D01*
X149017434Y-100592566D01*
X148863933Y-100490000D01*
X148746541Y-100411561D01*
X148427000Y-100348000D01*
X145321630Y-100348000D01*
X145312162Y-100297683D01*
X145173090Y-100081559D01*
X144960890Y-99936569D01*
X144709000Y-99885560D01*
X143159000Y-99885560D01*
X142923683Y-99929838D01*
X142707559Y-100068910D01*
X142562569Y-100281110D01*
X142511560Y-100533000D01*
X142511560Y-101833000D01*
X142555838Y-102068317D01*
X142694910Y-102284441D01*
X142907110Y-102429431D01*
X143159000Y-102480440D01*
X144709000Y-102480440D01*
X144944317Y-102436162D01*
X145160441Y-102297090D01*
X145305431Y-102084890D01*
X145318977Y-102018000D01*
X148081132Y-102018000D01*
X148349165Y-102286033D01*
X148268799Y-102252662D01*
X147896833Y-102252338D01*
X147553057Y-102394383D01*
X147289808Y-102657173D01*
X147189222Y-102899410D01*
X141871467Y-108217165D01*
X141904838Y-108136799D01*
X141905162Y-107764833D01*
X141805000Y-107522422D01*
X141805000Y-96968750D01*
X142524000Y-96968750D01*
X142524000Y-97459310D01*
X142620673Y-97692699D01*
X142799302Y-97871327D01*
X143032691Y-97968000D01*
X143648250Y-97968000D01*
X143807000Y-97809250D01*
X143807000Y-96810000D01*
X144061000Y-96810000D01*
X144061000Y-97809250D01*
X144219750Y-97968000D01*
X144835309Y-97968000D01*
X145068698Y-97871327D01*
X145247327Y-97692699D01*
X145344000Y-97459310D01*
X145344000Y-96968750D01*
X145185250Y-96810000D01*
X144061000Y-96810000D01*
X143807000Y-96810000D01*
X142682750Y-96810000D01*
X142524000Y-96968750D01*
X141805000Y-96968750D01*
X141805000Y-95906690D01*
X142524000Y-95906690D01*
X142524000Y-96397250D01*
X142682750Y-96556000D01*
X143807000Y-96556000D01*
X143807000Y-95556750D01*
X144061000Y-95556750D01*
X144061000Y-96556000D01*
X145185250Y-96556000D01*
X145344000Y-96397250D01*
X145344000Y-95906690D01*
X145247327Y-95673301D01*
X145068698Y-95494673D01*
X144835309Y-95398000D01*
X144219750Y-95398000D01*
X144061000Y-95556750D01*
X143807000Y-95556750D01*
X143648250Y-95398000D01*
X143032691Y-95398000D01*
X142799302Y-95494673D01*
X142620673Y-95673301D01*
X142524000Y-95906690D01*
X141805000Y-95906690D01*
X141805000Y-81982750D01*
X142524000Y-81982750D01*
X142524000Y-82473310D01*
X142620673Y-82706699D01*
X142799302Y-82885327D01*
X143032691Y-82982000D01*
X143648250Y-82982000D01*
X143807000Y-82823250D01*
X143807000Y-81824000D01*
X144061000Y-81824000D01*
X144061000Y-82823250D01*
X144219750Y-82982000D01*
X144835309Y-82982000D01*
X145068698Y-82885327D01*
X145247327Y-82706699D01*
X145344000Y-82473310D01*
X145344000Y-81982750D01*
X145185250Y-81824000D01*
X144061000Y-81824000D01*
X143807000Y-81824000D01*
X142682750Y-81824000D01*
X142524000Y-81982750D01*
X141805000Y-81982750D01*
X141805000Y-80920690D01*
X142524000Y-80920690D01*
X142524000Y-81411250D01*
X142682750Y-81570000D01*
X143807000Y-81570000D01*
X143807000Y-80570750D01*
X144061000Y-80570750D01*
X144061000Y-81570000D01*
X145185250Y-81570000D01*
X145344000Y-81411250D01*
X145344000Y-80920690D01*
X145247327Y-80687301D01*
X145068698Y-80508673D01*
X144835309Y-80412000D01*
X144219750Y-80412000D01*
X144061000Y-80570750D01*
X143807000Y-80570750D01*
X143648250Y-80412000D01*
X143032691Y-80412000D01*
X142799302Y-80508673D01*
X142620673Y-80687301D01*
X142524000Y-80920690D01*
X141805000Y-80920690D01*
X141805000Y-70561000D01*
X142511560Y-70561000D01*
X142511560Y-71861000D01*
X142555838Y-72096317D01*
X142694910Y-72312441D01*
X142907110Y-72457431D01*
X143159000Y-72508440D01*
X144098572Y-72508440D01*
X146421500Y-74831368D01*
X146421500Y-87392132D01*
X145356440Y-86327072D01*
X145356440Y-85547000D01*
X145312162Y-85311683D01*
X145173090Y-85095559D01*
X144960890Y-84950569D01*
X144709000Y-84899560D01*
X143159000Y-84899560D01*
X142923683Y-84943838D01*
X142707559Y-85082910D01*
X142562569Y-85295110D01*
X142511560Y-85547000D01*
X142511560Y-86847000D01*
X142555838Y-87082317D01*
X142694910Y-87298441D01*
X142907110Y-87443431D01*
X143159000Y-87494440D01*
X144162072Y-87494440D01*
X145659500Y-88991868D01*
X145659500Y-98188266D01*
X145559662Y-98428701D01*
X145559338Y-98800667D01*
X145701383Y-99144443D01*
X145964173Y-99407692D01*
X146307701Y-99550338D01*
X146679667Y-99550662D01*
X147023443Y-99408617D01*
X147286692Y-99145827D01*
X147408645Y-98852133D01*
X147441667Y-98852162D01*
X147785443Y-98710117D01*
X148048692Y-98447327D01*
X148191338Y-98103799D01*
X148191662Y-97731833D01*
X148091500Y-97489422D01*
X148091500Y-86482750D01*
X151582000Y-86482750D01*
X151582000Y-86973310D01*
X151678673Y-87206699D01*
X151857302Y-87385327D01*
X152090691Y-87482000D01*
X152706250Y-87482000D01*
X152865000Y-87323250D01*
X152865000Y-86324000D01*
X153119000Y-86324000D01*
X153119000Y-87323250D01*
X153277750Y-87482000D01*
X153893309Y-87482000D01*
X154126698Y-87385327D01*
X154305327Y-87206699D01*
X154402000Y-86973310D01*
X154402000Y-86482750D01*
X154243250Y-86324000D01*
X153119000Y-86324000D01*
X152865000Y-86324000D01*
X151740750Y-86324000D01*
X151582000Y-86482750D01*
X148091500Y-86482750D01*
X148091500Y-85420690D01*
X151582000Y-85420690D01*
X151582000Y-85911250D01*
X151740750Y-86070000D01*
X152865000Y-86070000D01*
X152865000Y-85070750D01*
X153119000Y-85070750D01*
X153119000Y-86070000D01*
X154243250Y-86070000D01*
X154402000Y-85911250D01*
X154402000Y-85420690D01*
X154305327Y-85187301D01*
X154126698Y-85008673D01*
X153893309Y-84912000D01*
X153277750Y-84912000D01*
X153119000Y-85070750D01*
X152865000Y-85070750D01*
X152706250Y-84912000D01*
X152090691Y-84912000D01*
X151857302Y-85008673D01*
X151678673Y-85187301D01*
X151582000Y-85420690D01*
X148091500Y-85420690D01*
X148091500Y-84326131D01*
X148313673Y-84548692D01*
X148657201Y-84691338D01*
X149029167Y-84691662D01*
X149372943Y-84549617D01*
X149636192Y-84286827D01*
X149736778Y-84044590D01*
X151249368Y-82532000D01*
X151604370Y-82532000D01*
X151613838Y-82582317D01*
X151752910Y-82798441D01*
X151965110Y-82943431D01*
X152217000Y-82994440D01*
X153767000Y-82994440D01*
X154002317Y-82950162D01*
X154218441Y-82811090D01*
X154363431Y-82598890D01*
X154414440Y-82347000D01*
X154414440Y-81047000D01*
X154370162Y-80811683D01*
X154231090Y-80595559D01*
X154018890Y-80450569D01*
X153767000Y-80399560D01*
X152217000Y-80399560D01*
X151981683Y-80443838D01*
X151765559Y-80582910D01*
X151620569Y-80795110D01*
X151607023Y-80862000D01*
X150903500Y-80862000D01*
X150583959Y-80925561D01*
X150402213Y-81047000D01*
X150313066Y-81106566D01*
X148555667Y-82863965D01*
X148315057Y-82963383D01*
X148091500Y-83186550D01*
X148091500Y-74485500D01*
X148027939Y-74165959D01*
X147846934Y-73895066D01*
X145448618Y-71496750D01*
X151582000Y-71496750D01*
X151582000Y-71987310D01*
X151678673Y-72220699D01*
X151857302Y-72399327D01*
X152090691Y-72496000D01*
X152706250Y-72496000D01*
X152865000Y-72337250D01*
X152865000Y-71338000D01*
X153119000Y-71338000D01*
X153119000Y-72337250D01*
X153277750Y-72496000D01*
X153893309Y-72496000D01*
X154126698Y-72399327D01*
X154305327Y-72220699D01*
X154402000Y-71987310D01*
X154402000Y-71496750D01*
X154243250Y-71338000D01*
X153119000Y-71338000D01*
X152865000Y-71338000D01*
X151740750Y-71338000D01*
X151582000Y-71496750D01*
X145448618Y-71496750D01*
X145356440Y-71404572D01*
X145356440Y-70561000D01*
X145332674Y-70434690D01*
X151582000Y-70434690D01*
X151582000Y-70925250D01*
X151740750Y-71084000D01*
X152865000Y-71084000D01*
X152865000Y-70084750D01*
X153119000Y-70084750D01*
X153119000Y-71084000D01*
X154243250Y-71084000D01*
X154402000Y-70925250D01*
X154402000Y-70434690D01*
X154305327Y-70201301D01*
X154126698Y-70022673D01*
X153893309Y-69926000D01*
X153277750Y-69926000D01*
X153119000Y-70084750D01*
X152865000Y-70084750D01*
X152706250Y-69926000D01*
X152090691Y-69926000D01*
X151857302Y-70022673D01*
X151678673Y-70201301D01*
X151582000Y-70434690D01*
X145332674Y-70434690D01*
X145312162Y-70325683D01*
X145173090Y-70109559D01*
X144960890Y-69964569D01*
X144709000Y-69913560D01*
X143159000Y-69913560D01*
X142923683Y-69957838D01*
X142707559Y-70096910D01*
X142562569Y-70309110D01*
X142511560Y-70561000D01*
X141805000Y-70561000D01*
X141805000Y-66996750D01*
X142524000Y-66996750D01*
X142524000Y-67487310D01*
X142620673Y-67720699D01*
X142799302Y-67899327D01*
X143032691Y-67996000D01*
X143648250Y-67996000D01*
X143807000Y-67837250D01*
X143807000Y-66838000D01*
X144061000Y-66838000D01*
X144061000Y-67837250D01*
X144219750Y-67996000D01*
X144835309Y-67996000D01*
X145068698Y-67899327D01*
X145247327Y-67720699D01*
X145344000Y-67487310D01*
X145344000Y-66996750D01*
X145185250Y-66838000D01*
X144061000Y-66838000D01*
X143807000Y-66838000D01*
X142682750Y-66838000D01*
X142524000Y-66996750D01*
X141805000Y-66996750D01*
X141805000Y-65934690D01*
X142524000Y-65934690D01*
X142524000Y-66425250D01*
X142682750Y-66584000D01*
X143807000Y-66584000D01*
X143807000Y-65584750D01*
X144061000Y-65584750D01*
X144061000Y-66584000D01*
X145185250Y-66584000D01*
X145344000Y-66425250D01*
X145344000Y-65934690D01*
X145247327Y-65701301D01*
X145068698Y-65522673D01*
X144835309Y-65426000D01*
X144219750Y-65426000D01*
X144061000Y-65584750D01*
X143807000Y-65584750D01*
X143648250Y-65426000D01*
X143032691Y-65426000D01*
X142799302Y-65522673D01*
X142620673Y-65701301D01*
X142524000Y-65934690D01*
X141805000Y-65934690D01*
X141805000Y-55575000D01*
X142511560Y-55575000D01*
X142511560Y-56875000D01*
X142555838Y-57110317D01*
X142694910Y-57326441D01*
X142907110Y-57471431D01*
X143159000Y-57522440D01*
X144709000Y-57522440D01*
X144944317Y-57478162D01*
X145160441Y-57339090D01*
X145305431Y-57126890D01*
X145356440Y-56875000D01*
X145356440Y-55575000D01*
X145312162Y-55339683D01*
X145173090Y-55123559D01*
X144960890Y-54978569D01*
X144709000Y-54927560D01*
X143159000Y-54927560D01*
X142923683Y-54971838D01*
X142707559Y-55110910D01*
X142562569Y-55323110D01*
X142511560Y-55575000D01*
X141805000Y-55575000D01*
X141805000Y-52010750D01*
X142524000Y-52010750D01*
X142524000Y-52501310D01*
X142620673Y-52734699D01*
X142799302Y-52913327D01*
X143032691Y-53010000D01*
X143648250Y-53010000D01*
X143807000Y-52851250D01*
X143807000Y-51852000D01*
X144061000Y-51852000D01*
X144061000Y-52851250D01*
X144219750Y-53010000D01*
X144835309Y-53010000D01*
X145068698Y-52913327D01*
X145247327Y-52734699D01*
X145344000Y-52501310D01*
X145344000Y-52010750D01*
X145185250Y-51852000D01*
X144061000Y-51852000D01*
X143807000Y-51852000D01*
X142682750Y-51852000D01*
X142524000Y-52010750D01*
X141805000Y-52010750D01*
X141805000Y-50948690D01*
X142524000Y-50948690D01*
X142524000Y-51439250D01*
X142682750Y-51598000D01*
X143807000Y-51598000D01*
X143807000Y-50598750D01*
X144061000Y-50598750D01*
X144061000Y-51598000D01*
X145185250Y-51598000D01*
X145344000Y-51439250D01*
X145344000Y-50948690D01*
X145247327Y-50715301D01*
X145068698Y-50536673D01*
X144835309Y-50440000D01*
X144219750Y-50440000D01*
X144061000Y-50598750D01*
X143807000Y-50598750D01*
X143648250Y-50440000D01*
X143032691Y-50440000D01*
X142799302Y-50536673D01*
X142620673Y-50715301D01*
X142524000Y-50948690D01*
X141805000Y-50948690D01*
X141805000Y-49911000D01*
X148009000Y-49911000D01*
X148009000Y-61802766D01*
X148009000Y-61802766D01*
G37*
X148009000Y-61802766D02*
X147909162Y-62043201D01*
X147908838Y-62415167D01*
X148050883Y-62758943D01*
X148313673Y-63022192D01*
X148657201Y-63164838D01*
X149029167Y-63165162D01*
X149372943Y-63023117D01*
X149636192Y-62760327D01*
X149669405Y-62680341D01*
X149701883Y-62758943D01*
X149964673Y-63022192D01*
X150308201Y-63164838D01*
X150680167Y-63165162D01*
X151023943Y-63023117D01*
X151287192Y-62760327D01*
X151429838Y-62416799D01*
X151430162Y-62044833D01*
X151330000Y-61802422D01*
X151330000Y-56510750D01*
X151582000Y-56510750D01*
X151582000Y-57001310D01*
X151678673Y-57234699D01*
X151857302Y-57413327D01*
X152090691Y-57510000D01*
X152706250Y-57510000D01*
X152865000Y-57351250D01*
X152865000Y-56352000D01*
X153119000Y-56352000D01*
X153119000Y-57351250D01*
X153277750Y-57510000D01*
X153893309Y-57510000D01*
X154126698Y-57413327D01*
X154305327Y-57234699D01*
X154402000Y-57001310D01*
X154402000Y-56510750D01*
X154243250Y-56352000D01*
X153119000Y-56352000D01*
X152865000Y-56352000D01*
X151740750Y-56352000D01*
X151582000Y-56510750D01*
X151330000Y-56510750D01*
X151330000Y-55799234D01*
X151429838Y-55558799D01*
X151429933Y-55448690D01*
X151582000Y-55448690D01*
X151582000Y-55939250D01*
X151740750Y-56098000D01*
X152865000Y-56098000D01*
X152865000Y-55098750D01*
X153119000Y-55098750D01*
X153119000Y-56098000D01*
X154243250Y-56098000D01*
X154402000Y-55939250D01*
X154402000Y-55448690D01*
X154305327Y-55215301D01*
X154126698Y-55036673D01*
X153893309Y-54940000D01*
X153277750Y-54940000D01*
X153119000Y-55098750D01*
X152865000Y-55098750D01*
X152706250Y-54940000D01*
X152090691Y-54940000D01*
X151857302Y-55036673D01*
X151678673Y-55215301D01*
X151582000Y-55448690D01*
X151429933Y-55448690D01*
X151430162Y-55186833D01*
X151288117Y-54843057D01*
X151025327Y-54579808D01*
X150681799Y-54437162D01*
X150309833Y-54436838D01*
X149966057Y-54578883D01*
X149702808Y-54841673D01*
X149679000Y-54899009D01*
X149679000Y-49911000D01*
X157153000Y-49911000D01*
X157153000Y-51832132D01*
X156455434Y-51134566D01*
X156366287Y-51075000D01*
X156184541Y-50953561D01*
X155865000Y-50890000D01*
X154379630Y-50890000D01*
X154370162Y-50839683D01*
X154231090Y-50623559D01*
X154018890Y-50478569D01*
X153767000Y-50427560D01*
X152217000Y-50427560D01*
X151981683Y-50471838D01*
X151765559Y-50610910D01*
X151620569Y-50823110D01*
X151569560Y-51075000D01*
X151569560Y-52375000D01*
X151613838Y-52610317D01*
X151752910Y-52826441D01*
X151965110Y-52971431D01*
X152217000Y-53022440D01*
X153767000Y-53022440D01*
X154002317Y-52978162D01*
X154218441Y-52839090D01*
X154363431Y-52626890D01*
X154376977Y-52560000D01*
X155519132Y-52560000D01*
X156391000Y-53431868D01*
X156391000Y-66818132D01*
X155693434Y-66120566D01*
X155604287Y-66061000D01*
X155422541Y-65939561D01*
X155103000Y-65876000D01*
X154379630Y-65876000D01*
X154370162Y-65825683D01*
X154231090Y-65609559D01*
X154018890Y-65464569D01*
X153767000Y-65413560D01*
X152217000Y-65413560D01*
X151981683Y-65457838D01*
X151765559Y-65596910D01*
X151620569Y-65809110D01*
X151569560Y-66061000D01*
X151569560Y-67361000D01*
X151613838Y-67596317D01*
X151752910Y-67812441D01*
X151965110Y-67957431D01*
X152217000Y-68008440D01*
X153767000Y-68008440D01*
X154002317Y-67964162D01*
X154218441Y-67825090D01*
X154363431Y-67612890D01*
X154376977Y-67546000D01*
X154757132Y-67546000D01*
X155629000Y-68417868D01*
X155629000Y-108411766D01*
X155529162Y-108652201D01*
X155528952Y-108893000D01*
X150814880Y-108893000D01*
X151023943Y-108806617D01*
X151287192Y-108543827D01*
X151303713Y-108504041D01*
X151442167Y-108504162D01*
X151785943Y-108362117D01*
X152049192Y-108099327D01*
X152191838Y-107755799D01*
X152192162Y-107383833D01*
X152092000Y-107141422D01*
X152092000Y-102468000D01*
X152706250Y-102468000D01*
X152865000Y-102309250D01*
X152865000Y-101310000D01*
X153119000Y-101310000D01*
X153119000Y-102309250D01*
X153277750Y-102468000D01*
X153893309Y-102468000D01*
X154126698Y-102371327D01*
X154305327Y-102192699D01*
X154402000Y-101959310D01*
X154402000Y-101468750D01*
X154243250Y-101310000D01*
X153119000Y-101310000D01*
X152865000Y-101310000D01*
X152845000Y-101310000D01*
X152845000Y-101056000D01*
X152865000Y-101056000D01*
X152865000Y-100056750D01*
X153119000Y-100056750D01*
X153119000Y-101056000D01*
X154243250Y-101056000D01*
X154402000Y-100897250D01*
X154402000Y-100406690D01*
X154305327Y-100173301D01*
X154126698Y-99994673D01*
X153893309Y-99898000D01*
X153277750Y-99898000D01*
X153119000Y-100056750D01*
X152865000Y-100056750D01*
X152706250Y-99898000D01*
X152092000Y-99898000D01*
X152092000Y-98707368D01*
X152818928Y-97980440D01*
X153767000Y-97980440D01*
X154002317Y-97936162D01*
X154218441Y-97797090D01*
X154363431Y-97584890D01*
X154414440Y-97333000D01*
X154414440Y-96033000D01*
X154370162Y-95797683D01*
X154231090Y-95581559D01*
X154018890Y-95436569D01*
X153767000Y-95385560D01*
X152217000Y-95385560D01*
X151981683Y-95429838D01*
X151765559Y-95568910D01*
X151620569Y-95781110D01*
X151569560Y-96033000D01*
X151569560Y-96868072D01*
X150666566Y-97771066D01*
X150485561Y-98041959D01*
X150422000Y-98361500D01*
X150422000Y-101997132D01*
X149017434Y-100592566D01*
X148863933Y-100490000D01*
X148746541Y-100411561D01*
X148427000Y-100348000D01*
X145321630Y-100348000D01*
X145312162Y-100297683D01*
X145173090Y-100081559D01*
X144960890Y-99936569D01*
X144709000Y-99885560D01*
X143159000Y-99885560D01*
X142923683Y-99929838D01*
X142707559Y-100068910D01*
X142562569Y-100281110D01*
X142511560Y-100533000D01*
X142511560Y-101833000D01*
X142555838Y-102068317D01*
X142694910Y-102284441D01*
X142907110Y-102429431D01*
X143159000Y-102480440D01*
X144709000Y-102480440D01*
X144944317Y-102436162D01*
X145160441Y-102297090D01*
X145305431Y-102084890D01*
X145318977Y-102018000D01*
X148081132Y-102018000D01*
X148349165Y-102286033D01*
X148268799Y-102252662D01*
X147896833Y-102252338D01*
X147553057Y-102394383D01*
X147289808Y-102657173D01*
X147189222Y-102899410D01*
X141871467Y-108217165D01*
X141904838Y-108136799D01*
X141905162Y-107764833D01*
X141805000Y-107522422D01*
X141805000Y-96968750D01*
X142524000Y-96968750D01*
X142524000Y-97459310D01*
X142620673Y-97692699D01*
X142799302Y-97871327D01*
X143032691Y-97968000D01*
X143648250Y-97968000D01*
X143807000Y-97809250D01*
X143807000Y-96810000D01*
X144061000Y-96810000D01*
X144061000Y-97809250D01*
X144219750Y-97968000D01*
X144835309Y-97968000D01*
X145068698Y-97871327D01*
X145247327Y-97692699D01*
X145344000Y-97459310D01*
X145344000Y-96968750D01*
X145185250Y-96810000D01*
X144061000Y-96810000D01*
X143807000Y-96810000D01*
X142682750Y-96810000D01*
X142524000Y-96968750D01*
X141805000Y-96968750D01*
X141805000Y-95906690D01*
X142524000Y-95906690D01*
X142524000Y-96397250D01*
X142682750Y-96556000D01*
X143807000Y-96556000D01*
X143807000Y-95556750D01*
X144061000Y-95556750D01*
X144061000Y-96556000D01*
X145185250Y-96556000D01*
X145344000Y-96397250D01*
X145344000Y-95906690D01*
X145247327Y-95673301D01*
X145068698Y-95494673D01*
X144835309Y-95398000D01*
X144219750Y-95398000D01*
X144061000Y-95556750D01*
X143807000Y-95556750D01*
X143648250Y-95398000D01*
X143032691Y-95398000D01*
X142799302Y-95494673D01*
X142620673Y-95673301D01*
X142524000Y-95906690D01*
X141805000Y-95906690D01*
X141805000Y-81982750D01*
X142524000Y-81982750D01*
X142524000Y-82473310D01*
X142620673Y-82706699D01*
X142799302Y-82885327D01*
X143032691Y-82982000D01*
X143648250Y-82982000D01*
X143807000Y-82823250D01*
X143807000Y-81824000D01*
X144061000Y-81824000D01*
X144061000Y-82823250D01*
X144219750Y-82982000D01*
X144835309Y-82982000D01*
X145068698Y-82885327D01*
X145247327Y-82706699D01*
X145344000Y-82473310D01*
X145344000Y-81982750D01*
X145185250Y-81824000D01*
X144061000Y-81824000D01*
X143807000Y-81824000D01*
X142682750Y-81824000D01*
X142524000Y-81982750D01*
X141805000Y-81982750D01*
X141805000Y-80920690D01*
X142524000Y-80920690D01*
X142524000Y-81411250D01*
X142682750Y-81570000D01*
X143807000Y-81570000D01*
X143807000Y-80570750D01*
X144061000Y-80570750D01*
X144061000Y-81570000D01*
X145185250Y-81570000D01*
X145344000Y-81411250D01*
X145344000Y-80920690D01*
X145247327Y-80687301D01*
X145068698Y-80508673D01*
X144835309Y-80412000D01*
X144219750Y-80412000D01*
X144061000Y-80570750D01*
X143807000Y-80570750D01*
X143648250Y-80412000D01*
X143032691Y-80412000D01*
X142799302Y-80508673D01*
X142620673Y-80687301D01*
X142524000Y-80920690D01*
X141805000Y-80920690D01*
X141805000Y-70561000D01*
X142511560Y-70561000D01*
X142511560Y-71861000D01*
X142555838Y-72096317D01*
X142694910Y-72312441D01*
X142907110Y-72457431D01*
X143159000Y-72508440D01*
X144098572Y-72508440D01*
X146421500Y-74831368D01*
X146421500Y-87392132D01*
X145356440Y-86327072D01*
X145356440Y-85547000D01*
X145312162Y-85311683D01*
X145173090Y-85095559D01*
X144960890Y-84950569D01*
X144709000Y-84899560D01*
X143159000Y-84899560D01*
X142923683Y-84943838D01*
X142707559Y-85082910D01*
X142562569Y-85295110D01*
X142511560Y-85547000D01*
X142511560Y-86847000D01*
X142555838Y-87082317D01*
X142694910Y-87298441D01*
X142907110Y-87443431D01*
X143159000Y-87494440D01*
X144162072Y-87494440D01*
X145659500Y-88991868D01*
X145659500Y-98188266D01*
X145559662Y-98428701D01*
X145559338Y-98800667D01*
X145701383Y-99144443D01*
X145964173Y-99407692D01*
X146307701Y-99550338D01*
X146679667Y-99550662D01*
X147023443Y-99408617D01*
X147286692Y-99145827D01*
X147408645Y-98852133D01*
X147441667Y-98852162D01*
X147785443Y-98710117D01*
X148048692Y-98447327D01*
X148191338Y-98103799D01*
X148191662Y-97731833D01*
X148091500Y-97489422D01*
X148091500Y-86482750D01*
X151582000Y-86482750D01*
X151582000Y-86973310D01*
X151678673Y-87206699D01*
X151857302Y-87385327D01*
X152090691Y-87482000D01*
X152706250Y-87482000D01*
X152865000Y-87323250D01*
X152865000Y-86324000D01*
X153119000Y-86324000D01*
X153119000Y-87323250D01*
X153277750Y-87482000D01*
X153893309Y-87482000D01*
X154126698Y-87385327D01*
X154305327Y-87206699D01*
X154402000Y-86973310D01*
X154402000Y-86482750D01*
X154243250Y-86324000D01*
X153119000Y-86324000D01*
X152865000Y-86324000D01*
X151740750Y-86324000D01*
X151582000Y-86482750D01*
X148091500Y-86482750D01*
X148091500Y-85420690D01*
X151582000Y-85420690D01*
X151582000Y-85911250D01*
X151740750Y-86070000D01*
X152865000Y-86070000D01*
X152865000Y-85070750D01*
X153119000Y-85070750D01*
X153119000Y-86070000D01*
X154243250Y-86070000D01*
X154402000Y-85911250D01*
X154402000Y-85420690D01*
X154305327Y-85187301D01*
X154126698Y-85008673D01*
X153893309Y-84912000D01*
X153277750Y-84912000D01*
X153119000Y-85070750D01*
X152865000Y-85070750D01*
X152706250Y-84912000D01*
X152090691Y-84912000D01*
X151857302Y-85008673D01*
X151678673Y-85187301D01*
X151582000Y-85420690D01*
X148091500Y-85420690D01*
X148091500Y-84326131D01*
X148313673Y-84548692D01*
X148657201Y-84691338D01*
X149029167Y-84691662D01*
X149372943Y-84549617D01*
X149636192Y-84286827D01*
X149736778Y-84044590D01*
X151249368Y-82532000D01*
X151604370Y-82532000D01*
X151613838Y-82582317D01*
X151752910Y-82798441D01*
X151965110Y-82943431D01*
X152217000Y-82994440D01*
X153767000Y-82994440D01*
X154002317Y-82950162D01*
X154218441Y-82811090D01*
X154363431Y-82598890D01*
X154414440Y-82347000D01*
X154414440Y-81047000D01*
X154370162Y-80811683D01*
X154231090Y-80595559D01*
X154018890Y-80450569D01*
X153767000Y-80399560D01*
X152217000Y-80399560D01*
X151981683Y-80443838D01*
X151765559Y-80582910D01*
X151620569Y-80795110D01*
X151607023Y-80862000D01*
X150903500Y-80862000D01*
X150583959Y-80925561D01*
X150402213Y-81047000D01*
X150313066Y-81106566D01*
X148555667Y-82863965D01*
X148315057Y-82963383D01*
X148091500Y-83186550D01*
X148091500Y-74485500D01*
X148027939Y-74165959D01*
X147846934Y-73895066D01*
X145448618Y-71496750D01*
X151582000Y-71496750D01*
X151582000Y-71987310D01*
X151678673Y-72220699D01*
X151857302Y-72399327D01*
X152090691Y-72496000D01*
X152706250Y-72496000D01*
X152865000Y-72337250D01*
X152865000Y-71338000D01*
X153119000Y-71338000D01*
X153119000Y-72337250D01*
X153277750Y-72496000D01*
X153893309Y-72496000D01*
X154126698Y-72399327D01*
X154305327Y-72220699D01*
X154402000Y-71987310D01*
X154402000Y-71496750D01*
X154243250Y-71338000D01*
X153119000Y-71338000D01*
X152865000Y-71338000D01*
X151740750Y-71338000D01*
X151582000Y-71496750D01*
X145448618Y-71496750D01*
X145356440Y-71404572D01*
X145356440Y-70561000D01*
X145332674Y-70434690D01*
X151582000Y-70434690D01*
X151582000Y-70925250D01*
X151740750Y-71084000D01*
X152865000Y-71084000D01*
X152865000Y-70084750D01*
X153119000Y-70084750D01*
X153119000Y-71084000D01*
X154243250Y-71084000D01*
X154402000Y-70925250D01*
X154402000Y-70434690D01*
X154305327Y-70201301D01*
X154126698Y-70022673D01*
X153893309Y-69926000D01*
X153277750Y-69926000D01*
X153119000Y-70084750D01*
X152865000Y-70084750D01*
X152706250Y-69926000D01*
X152090691Y-69926000D01*
X151857302Y-70022673D01*
X151678673Y-70201301D01*
X151582000Y-70434690D01*
X145332674Y-70434690D01*
X145312162Y-70325683D01*
X145173090Y-70109559D01*
X144960890Y-69964569D01*
X144709000Y-69913560D01*
X143159000Y-69913560D01*
X142923683Y-69957838D01*
X142707559Y-70096910D01*
X142562569Y-70309110D01*
X142511560Y-70561000D01*
X141805000Y-70561000D01*
X141805000Y-66996750D01*
X142524000Y-66996750D01*
X142524000Y-67487310D01*
X142620673Y-67720699D01*
X142799302Y-67899327D01*
X143032691Y-67996000D01*
X143648250Y-67996000D01*
X143807000Y-67837250D01*
X143807000Y-66838000D01*
X144061000Y-66838000D01*
X144061000Y-67837250D01*
X144219750Y-67996000D01*
X144835309Y-67996000D01*
X145068698Y-67899327D01*
X145247327Y-67720699D01*
X145344000Y-67487310D01*
X145344000Y-66996750D01*
X145185250Y-66838000D01*
X144061000Y-66838000D01*
X143807000Y-66838000D01*
X142682750Y-66838000D01*
X142524000Y-66996750D01*
X141805000Y-66996750D01*
X141805000Y-65934690D01*
X142524000Y-65934690D01*
X142524000Y-66425250D01*
X142682750Y-66584000D01*
X143807000Y-66584000D01*
X143807000Y-65584750D01*
X144061000Y-65584750D01*
X144061000Y-66584000D01*
X145185250Y-66584000D01*
X145344000Y-66425250D01*
X145344000Y-65934690D01*
X145247327Y-65701301D01*
X145068698Y-65522673D01*
X144835309Y-65426000D01*
X144219750Y-65426000D01*
X144061000Y-65584750D01*
X143807000Y-65584750D01*
X143648250Y-65426000D01*
X143032691Y-65426000D01*
X142799302Y-65522673D01*
X142620673Y-65701301D01*
X142524000Y-65934690D01*
X141805000Y-65934690D01*
X141805000Y-55575000D01*
X142511560Y-55575000D01*
X142511560Y-56875000D01*
X142555838Y-57110317D01*
X142694910Y-57326441D01*
X142907110Y-57471431D01*
X143159000Y-57522440D01*
X144709000Y-57522440D01*
X144944317Y-57478162D01*
X145160441Y-57339090D01*
X145305431Y-57126890D01*
X145356440Y-56875000D01*
X145356440Y-55575000D01*
X145312162Y-55339683D01*
X145173090Y-55123559D01*
X144960890Y-54978569D01*
X144709000Y-54927560D01*
X143159000Y-54927560D01*
X142923683Y-54971838D01*
X142707559Y-55110910D01*
X142562569Y-55323110D01*
X142511560Y-55575000D01*
X141805000Y-55575000D01*
X141805000Y-52010750D01*
X142524000Y-52010750D01*
X142524000Y-52501310D01*
X142620673Y-52734699D01*
X142799302Y-52913327D01*
X143032691Y-53010000D01*
X143648250Y-53010000D01*
X143807000Y-52851250D01*
X143807000Y-51852000D01*
X144061000Y-51852000D01*
X144061000Y-52851250D01*
X144219750Y-53010000D01*
X144835309Y-53010000D01*
X145068698Y-52913327D01*
X145247327Y-52734699D01*
X145344000Y-52501310D01*
X145344000Y-52010750D01*
X145185250Y-51852000D01*
X144061000Y-51852000D01*
X143807000Y-51852000D01*
X142682750Y-51852000D01*
X142524000Y-52010750D01*
X141805000Y-52010750D01*
X141805000Y-50948690D01*
X142524000Y-50948690D01*
X142524000Y-51439250D01*
X142682750Y-51598000D01*
X143807000Y-51598000D01*
X143807000Y-50598750D01*
X144061000Y-50598750D01*
X144061000Y-51598000D01*
X145185250Y-51598000D01*
X145344000Y-51439250D01*
X145344000Y-50948690D01*
X145247327Y-50715301D01*
X145068698Y-50536673D01*
X144835309Y-50440000D01*
X144219750Y-50440000D01*
X144061000Y-50598750D01*
X143807000Y-50598750D01*
X143648250Y-50440000D01*
X143032691Y-50440000D01*
X142799302Y-50536673D01*
X142620673Y-50715301D01*
X142524000Y-50948690D01*
X141805000Y-50948690D01*
X141805000Y-49911000D01*
X148009000Y-49911000D01*
X148009000Y-61802766D01*
M02*
